<svg id="RewardsMoneyBag" xmlns="http://www.w3.org/2000/svg" width="76.709" height="76.709" viewBox="0 0 76.709 76.709">
  <path id="Path_196" data-name="Path 196" d="M1,38.355A37.355,37.355,0,1,1,38.355,75.709,37.355,37.355,0,0,1,1,38.355Z" fill="none" stroke="#dbdbdb" stroke-width="2"/>
  <path id="Path_197" data-name="Path 197" d="M35.506,8.364H42.03a2.259,2.259,0,0,1,2.025,3.261l-2.9,5.868-.388.785.772.413A29.838,29.838,0,0,1,56.742,44.155c0,6.412-2.39,11.352-6.208,14.7S41.365,64.027,35.4,64.027s-11.3-1.812-15.134-5.172-6.208-8.288-6.208-14.7A29.864,29.864,0,0,1,28.982,18.844l.724-.4-.333-.756-2.707-6.155a2.259,2.259,0,0,1,2.068-3.169ZM42.03,6.557H28.735a4.067,4.067,0,0,0-3.723,5.7l2.379,5.411A31.722,31.722,0,0,0,12.25,44.155c0,6.9,2.59,12.346,6.824,16.059S29.079,65.834,35.4,65.834s12.107-1.921,16.326-5.621,6.824-9.16,6.824-16.059a31.7,31.7,0,0,0-15.4-26.632l2.521-5.1A4.067,4.067,0,0,0,42.03,6.557Z" transform="translate(2.306 1.139)" fill="#828282" fill-rule="evenodd"/>
  <path id="Path_198" data-name="Path 198" d="M31.9,26v4.925" transform="translate(6.335 5.125)" fill="none" stroke="#000" stroke-width="2"/>
  <path id="Path_199" data-name="Path 199" d="M31.9,41.913v4.925" transform="translate(6.335 8.387)" fill="none" stroke="#000" stroke-width="2"/>
  <path id="Path_200" data-name="Path 200" d="M39.96,30.052H30.406a3.729,3.729,0,0,0-3.729,3.729h0a2.854,2.854,0,0,0,2.257,2.791l8.386,1.794a3.338,3.338,0,0,1,2.64,3.264h0a3.338,3.338,0,0,1-3.338,3.338H25.5" transform="translate(5.022 5.956)" fill="none" stroke="#000" stroke-width="2"/>
  <path id="Path_201" data-name="Path 201" d="M26.384,16h0a4.384,4.384,0,0,1,2.448,3.933v2.7a2.353,2.353,0,0,1-2.353,2.353h0a2.353,2.353,0,0,1-2.353-2.353V19.765A4.267,4.267,0,0,1,26.384,16Zm0,0H39.639" transform="translate(4.74 3.075)" fill="none" stroke="#828282" stroke-linecap="round" stroke-width="2"/>
</svg>
