<svg xmlns="http://www.w3.org/2000/svg" width="76.62" height="76.941" viewBox="0 0 76.62 76.941">
  <g id="PublishMarketing" transform="translate(-1 -1.018)">
    <path id="Path_161" data-name="Path 161" d="M67.653,56.871v-8.6c8.93-11.554,9.372-28.832,8.756-38.62a8.053,8.053,0,0,0-8.3-7.635c-9.692.213-26.763,2.088-38.95,11.716H20.711A9.831,9.831,0,0,0,13.395,17l-8.88,9.893A9.831,9.831,0,0,0,2,33.461V67.128a9.831,9.831,0,0,0,9.831,9.831H47.36a9.831,9.831,0,0,0,6.883-2.811L64.7,63.891A9.831,9.831,0,0,0,67.653,56.871Z" transform="translate(0 0)" fill="none" stroke="#dbdbdb" stroke-width="2"/>
    <path id="Path_162" data-name="Path 162" d="M34.036,34.2l-17.3,17.3" transform="translate(3.374 7.366)" fill="none" stroke="#828282" stroke-linecap="round" stroke-linejoin="round" stroke-width="2"/>
    <path id="Path_166" data-name="Path 166" d="M4.916,0A4.916,4.916,0,1,1,0,4.916,4.916,4.916,0,0,1,4.916,0Z" transform="translate(43.837 25.082)" fill="none" stroke="#000" stroke-width="2"/>
    <path id="Path_163" data-name="Path 163" d="M47.679,37.138c-7.12,1.908-13.091,5.509-15.721,8.354" transform="translate(6.858 8.039)" fill="none" stroke="#000" stroke-linejoin="round" stroke-width="2"/>
    <path id="Path_164" data-name="Path 164" d="M19.478,35.464a.922.922,0,1,0,1.3,1.3Zm1.3,1.3a44.188,44.188,0,0,0,5.795-8,48.052,48.052,0,0,0,4.011-8.127l-1.751-.575a46.483,46.483,0,0,1-3.844,7.76,42.533,42.533,0,0,1-5.513,7.635Z" transform="translate(3.939 4.132)"/>
    <path id="Path_165" data-name="Path 165" d="M34.325,20.524c6.431-6.431,20.592-10.706,30.13-9.165C66,20.9,61.72,35.057,55.289,41.488L53.624,43.1,53.616,54.87,39.4,68.572,37.725,51.026l-19.245,6.3,4.385-19.245L6.766,36.4,20.944,22.2l11.762-.018Z" transform="translate(1.091 2.066)" fill="none" stroke="#828282" stroke-linecap="round" stroke-linejoin="round" stroke-width="2"/>
  </g>
</svg>
