<svg xmlns="http://www.w3.org/2000/svg" width="79.027" height="76.941" viewBox="0 0 79.027 76.941">
  <g id="Star" transform="translate(-1.21 -1.11)">
    <path id="Path_189" data-name="Path 189" d="M28.838,15.937C32.052,5.868,46.3,5.86,49.522,15.926l2.2,6.875,7.08-.04C69.395,22.7,73.8,36.29,65.181,42.451l-5.716,4.088,2.25,6.766C65.053,63.338,53.539,71.738,45,65.5l-5.842-4.272-5.777,4.23C24.851,71.7,13.329,63.3,16.667,53.268l2.238-6.729-5.718-4.084C4.566,36.3,8.964,22.7,19.559,22.762l7.088.04Z" transform="translate(1.782 1.75)" fill="none" stroke="#828282" stroke-linejoin="round" stroke-width="2"/>
    <path id="Path_190" data-name="Path 190" d="M30.346,5.482a17.655,17.655,0,0,1,20.755,0L71.936,20.62a17.655,17.655,0,0,1,6.414,19.739L70.391,64.852A17.655,17.655,0,0,1,53.6,77.051H27.847a17.655,17.655,0,0,1-16.791-12.2L3.1,40.359A17.655,17.655,0,0,1,9.511,20.62Z" transform="translate(0 0)" fill="none" stroke="#dbdbdb" stroke-linejoin="round" stroke-width="2"/>
    <path id="Path_191" data-name="Path 191" d="M35.581,18.387a.959.959,0,0,1,1.828,0l4.025,12.6,13.214-.074a.959.959,0,0,1,.564,1.739l-10.734,7.7,4.159,12.538a.959.959,0,0,1-1.478,1.076L36.494,46.139,25.847,53.957a.959.959,0,0,1-1.478-1.075l4.158-12.535-10.748-7.7a.959.959,0,0,1,.564-1.739l13.229.074Z" transform="translate(4.225 4.355)" fill="none" stroke="#000" stroke-linejoin="round" stroke-width="2"/>
  </g>
</svg>
