<svg xmlns="http://www.w3.org/2000/svg" width="76" height="76" viewBox="0 0 76 76">
  <g id="_66bba1028c13ff761c431f51_UserCollaborate_64px_Dark" data-name="66bba1028c13ff761c431f51_UserCollaborate_64px_Dark" transform="translate(-0.25 -0.25)">
    <path id="Path_192" data-name="Path 192" d="M26.246,2.043A24.2,24.2,0,0,0,7.889,42.02v-.86a9.266,9.266,0,0,1,5.849-8.613q-.248,1.078-.4,2.19A7.467,7.467,0,0,0,9.682,41.16v2.546h-.2a24.279,24.279,0,0,0,5.455,3.945,24.986,24.986,0,0,0,1.215,2.559A26,26,0,1,1,50.21,16.154a24.973,24.973,0,0,0-2.558-1.214q-.213-.4-.44-.795A24.332,24.332,0,0,0,40,6.326,24.088,24.088,0,0,0,26.246,2.043Zm8.977,11.23A10.174,10.174,0,1,0,17.744,23.648q.558-.783,1.174-1.521a8.381,8.381,0,0,1,14.405-8.555Q34.261,13.387,35.223,13.273Z" fill-rule="evenodd"/>
    <path id="Path_193" data-name="Path 193" d="M36.246,12.043A24.2,24.2,0,0,0,17.889,52.02v-.86a9.266,9.266,0,0,1,5.849-8.613q-.248,1.078-.4,2.19a7.467,7.467,0,0,0-3.654,6.423v2.546h-.2a24.277,24.277,0,0,0,5.455,3.945,24.986,24.986,0,0,0,1.215,2.559A26,26,0,1,1,60.21,26.154a24.973,24.973,0,0,0-2.558-1.214q-.213-.4-.44-.795A24.333,24.333,0,0,0,50,16.326,24.088,24.088,0,0,0,36.246,12.043Zm8.977,11.23A10.174,10.174,0,1,0,27.744,33.648q.558-.783,1.174-1.521a8.381,8.381,0,0,1,14.405-8.555Q44.261,23.387,45.223,23.273Z" transform="translate(1.952 1.952)" fill="#828282" fill-rule="evenodd"/>
    <circle id="Ellipse_23" data-name="Ellipse 23" cx="9.276" cy="9.276" r="9.276" transform="translate(40.874 32.69)" fill="none" stroke="#dbdbdb" stroke-width="2"/>
    <path id="Path_194" data-name="Path 194" d="M27.392,58.391V55.845a8.367,8.367,0,0,1,8.367-8.367H53.946a8.367,8.367,0,0,1,8.367,8.367v2.546" transform="translate(5.299 9.22)" fill="none" stroke="#dbdbdb" stroke-width="2"/>
    <path id="Path_195" data-name="Path 195" d="M71.2,46.1a25.078,25.078,0,1,1-3.358-12.55A25.1,25.1,0,0,1,71.2,46.1Z" transform="translate(4.051 4.051)" fill="none" stroke="#dbdbdb" stroke-width="2"/>
  </g>
</svg>
