<svg xmlns="http://www.w3.org/2000/svg" width="76.65" height="76.65" viewBox="0 0 76.65 76.65">
  <g id="_6528482932335261a04a45ed_Integrations" data-name="6528482932335261a04a45ed_Integrations" transform="translate(-5 -5)">
    <path id="Path_204" data-name="Path 204" d="M6,11.742A5.742,5.742,0,0,1,11.742,6H74.908a5.742,5.742,0,0,1,5.742,5.742V74.908a5.742,5.742,0,0,1-5.742,5.742H11.742A5.742,5.742,0,0,1,6,74.908Z" fill="none" stroke="#dbdbdb" stroke-width="2"/>
    <rect id="Rectangle_159" data-name="Rectangle 159" width="23" height="23" rx="1" transform="translate(40 69) rotate(180)" fill="none" stroke="#828282" stroke-width="2"/>
    <rect id="Rectangle_160" data-name="Rectangle 160" width="23" height="23" rx="1" transform="translate(40 40) rotate(180)" fill="none" stroke="#828282" stroke-width="2"/>
    <rect id="Rectangle_161" data-name="Rectangle 161" width="23" height="23" rx="1" transform="translate(69 40) rotate(180)" fill="none" stroke="#828282" stroke-width="2"/>
    <rect id="Rectangle_162" data-name="Rectangle 162" width="3" height="26" transform="translate(59 71) rotate(180)"/>
    <rect id="Rectangle_163" data-name="Rectangle 163" width="3" height="26" transform="translate(71 56) rotate(90)"/>
  </g>
</svg>
