<svg xmlns="http://www.w3.org/2000/svg" width="23.241" height="23.021" viewBox="0 0 23.241 23.021">
  <g id="arrow-counter-clockwise" transform="translate(-1.265 -1.488)">
    <path id="Path_121" data-name="Path 121" d="M4.266,17.511a9.914,9.914,0,0,0,4.35,4.42,9.673,9.673,0,0,0,6.079.924,9.773,9.773,0,0,0,5.43-2.933A10.139,10.139,0,0,0,21.618,8.134,9.893,9.893,0,0,0,17.1,3.9a9.667,9.667,0,0,0-6.111-.676A9.181,9.181,0,0,0,5.854,6.281,8.467,8.467,0,0,0,4.5,8.26" transform="translate(0.141)" fill="none" stroke="#000" stroke-linecap="round" stroke-linejoin="round" stroke-width="3"/>
    <path id="Path_122" data-name="Path 122" d="M9.59,8.282,3.99,9.29,3,3.59" transform="translate(0 0.066)" fill="none" stroke="#000" stroke-linecap="round" stroke-linejoin="round" stroke-width="3"/>
  </g>
</svg>
