<svg id="Dropbox_logo_2017" xmlns="http://www.w3.org/2000/svg" width="175.318" height="34.52" viewBox="0 0 175.318 34.52">
  <path id="Path_83" data-name="Path 83" d="M20.337,6.487,10.168,12.974,20.337,19.46,10.168,25.947,0,19.425l10.168-6.487L0,6.487,10.168,0ZM10.116,28.033l10.168-6.487,10.168,6.487L20.284,34.52Zm10.221-8.608,10.168-6.487L20.337,6.487,30.453,0,40.621,6.487,30.453,12.974,40.621,19.46,30.453,25.947Z" fill="#001f26"/>
  <path id="Path_84" data-name="Path 84" d="M277.2,28.918h8.222c5.242,0,9.572,3.033,9.572,9.958v1.455c0,6.978-4.05,10.116-9.415,10.116H277.2Zm4.593,3.91V46.52h3.524c2.98,0,4.979-1.946,4.979-6.276V39.1c0-4.33-2.1-6.276-5.137-6.276Zm15.638.21h3.682l.6,4.05c.7-2.752,2.49-4.225,5.733-4.225h1.14v4.646h-1.893c-3.734,0-4.646,1.3-4.646,4.979V50.5H297.5V33.038Zm12.062,9.081v-.491c0-5.838,3.734-9.029,8.819-9.029,5.189,0,8.818,3.191,8.818,9.029v.491c0,5.733-3.524,8.818-8.818,8.818C312.684,50.885,309.494,47.87,309.494,42.12Zm12.991-.053v-.438c0-3.243-1.63-5.189-4.225-5.189-2.542,0-4.225,1.788-4.225,5.189v.438c0,3.138,1.63,4.926,4.225,4.926C320.854,46.941,322.485,45.205,322.485,42.067Zm7.03-9.029H333.3l.438,3.3a5.877,5.877,0,0,1,5.733-3.734c4.436,0,7.363,3.191,7.363,9.1v.491c0,5.733-3.243,8.766-7.363,8.766a5.721,5.721,0,0,1-5.575-3.243v8.818h-4.436l.053-23.493Zm12.711,9.029v-.386c0-3.471-1.788-5.189-4.173-5.189-2.542,0-4.225,1.946-4.225,5.189v.333c0,3.086,1.63,5.032,4.173,5.032C340.612,46.993,342.225,45.328,342.225,42.067Zm11.326,5.207-.386,3.191h-3.892V27.2h4.435v8.924a5.723,5.723,0,0,1,5.68-3.524c4.173.053,7.258,2.928,7.258,8.713v.543c0,5.785-2.928,9.1-7.363,9.1C356.356,50.885,354.463,49.535,353.551,47.274Zm8.433-5.417v-.438c0-3.191-1.736-4.979-4.173-4.979-2.489,0-4.225,2-4.225,5.032v.386c0,3.243,1.683,5.137,4.173,5.137C360.423,46.993,361.984,45.328,361.984,41.857Zm6.61.263v-.491c0-5.838,3.734-9.029,8.818-9.029,5.189,0,8.818,3.191,8.818,9.029v.491c0,5.733-3.576,8.818-8.818,8.818C371.784,50.885,368.593,47.87,368.593,42.12Zm13.026-.053v-.438c0-3.243-1.63-5.189-4.225-5.189-2.542,0-4.225,1.788-4.225,5.189v.438c0,3.138,1.63,4.926,4.225,4.926C380.006,46.941,381.619,45.205,381.619,42.067Zm10.554-.649-6.119-8.38H391.3l3.524,5.242,3.576-5.242h5.189l-6.206,8.328,6.539,9.1h-5.137l-4-5.785-3.892,5.785h-5.365Z" transform="translate(-228.602 -22.431)" fill="#001f26"/>
</svg>
