<svg xmlns="http://www.w3.org/2000/svg" width="126.987" height="29.026" viewBox="0 0 126.987 29.026">
  <path id="path1112" d="M112.295,0A14.605,14.605,0,0,0,97.6,14.513a14.693,14.693,0,0,0,29.384,0A14.606,14.606,0,0,0,112.295,0ZM0,1.164v4.7H10.974V23.2H0v4.7H26.7V23.2H15.767V5.868H26.7v-4.7Zm33.774,0v26.7H46.584c8.287-.09,13.975-5.912,13.975-13.392,0-7.391-5.6-13.08-13.751-13.3Zm32.609,0V27.906H93.348V23.2H71.22V16.886H88.465v-4.7H71.22V5.868H93.348v-4.7Zm45.912,3.9a9.587,9.587,0,0,1,9.63,9.5,9.631,9.631,0,0,1-19.261,0,9.559,9.559,0,0,1,9.63-9.5Zm-73.729.717h8.107a8.471,8.471,0,0,1,8.69,8.779c-.045,5.017-3.494,8.645-8.779,8.735H38.566Z" fill="#001f26"/>
</svg>
