<svg id="ABM_Industries_logo_2018" xmlns="http://www.w3.org/2000/svg" width="98.879" height="53.866" viewBox="0 0 98.879 53.866">
  <path id="Path_67" data-name="Path 67" d="M730.47,111.822A5.824,5.824,0,1,1,736.29,106,5.832,5.832,0,0,1,730.47,111.822Z" transform="translate(-655.184 -100.174)" fill="#001f26"/>
  <path id="Path_68" data-name="Path 68" d="M696.633,132.656c2.059,0,3.594-.81,3.594-2.626,0-1.936-1.624-2.664-3.594-2.664h-5.751v5.29Zm-.277-9.218c1.732,0,3.02-.725,3.02-2.376,0-1.467-1.061-2.384-3.02-2.384h-5.474v4.759Zm11.129,7.154c0,4-2.972,6.414-8.545,6.414H684.076V120.7c0-3.6,2.073-6.366,6.587-6.366h7.65c5.292,0,7.828,2.13,7.828,5.763a4.981,4.981,0,0,1-3.65,4.767v.153C703.986,125.209,707.485,126.79,707.485,130.592ZM666.6,119.044l-3.784,8.879h7.812l-3.784-8.879Zm5.023-4.71,10.8,22.672h-8.054l-2.033-4.855H661.107l-2.035,4.855h-7.516s5.38-11.158,7.226-15.236c2.165-4.793,4.013-7.436,8.508-7.436Zm72.366,22.672h-6.309l-1.492-13.67h-.333l-4.767,13.67h-8.474l-4.769-13.67h-.334l-1.487,13.67h-6.309s1.266-11.5,1.777-16.152c.479-4.322,2.741-6.521,6.729-6.521h2.86l5.648,15.947h.243l5.643-15.947h2.835c3.972,0,6.238,2.2,6.733,6.53C742.7,125.335,743.988,137.006,743.988,137.006Z" transform="translate(-651.557 -100.877)" fill="#001f26"/>
  <path id="Path_69" data-name="Path 69" d="M686.835,152.684h1.494c1.181,0,1.411-.6,1.411-1.184,0-.833-.37-1.2-1.393-1.2h-1.512Zm1.432-5.513h-1.432v2.124h1.512c.921,0,1.154-.541,1.154-1.063S689.318,147.171,688.267,147.171Zm-2.5-1h2.457c1.8,0,2.4.93,2.4,2.061a1.865,1.865,0,0,1-.733,1.494,1.893,1.893,0,0,1,.972,1.774c0,1.214-.66,2.186-2.585,2.186h-2.516" transform="translate(-653.255 -102.456)" fill="#001f26"/>
  <path id="Path_70" data-name="Path 70" d="M693.268,152.352c0,.472.351.643.812.643a2.69,2.69,0,0,0,1.163-.242V148.8h1.033v5.011h-.693l-.1-.281a2.583,2.583,0,0,1-1.4.411c-1.232,0-1.843-.6-1.843-1.612V148.8h1.031" transform="translate(-653.576 -102.587)" fill="#001f26"/>
  <path id="Path_71" data-name="Path 71" d="M699.114,153.822c-.793,0-1.214-.319-1.214-1.213v-3.928h1.013v3.957c0,.182.1.233.39.233v.95Zm-.7-7.518a.7.7,0,1,1-.7.7A.7.7,0,0,1,698.413,146.3Z" transform="translate(-653.847 -102.463)" fill="#001f26"/>
  <path id="Path_72" data-name="Path 72" d="M701.855,153.815c-.791,0-1.213-.319-1.213-1.213v-6.435h1.012v6.464c0,.182.1.233.393.233v.95" transform="translate(-653.993 -102.456)" fill="#001f26"/>
  <path id="Path_73" data-name="Path 73" d="M705.328,149.5c-.981,0-1.132.771-1.132,1.683s.151,1.686,1.132,1.686a2.47,2.47,0,0,0,1.131-.242v-2.9a1.857,1.857,0,0,0-.37-.13A3.013,3.013,0,0,0,705.328,149.5Zm2.144,4.19H706.8l-.1-.281a2.794,2.794,0,0,1-1.372.411c-1.7,0-2.176-1.062-2.176-2.636s.481-2.634,2.176-2.634a2.608,2.608,0,0,1,1.131.269V146.17h1.013" transform="translate(-654.117 -102.456)" fill="#001f26"/>
  <path id="Path_74" data-name="Path 74" d="M710.327,153.822c-.794,0-1.214-.319-1.214-1.213v-3.928h1.01v3.957c0,.182.1.233.393.233v.95Zm-.7-7.518a.7.7,0,1,1-.7.7A.7.7,0,0,1,709.624,146.3Z" transform="translate(-654.404 -102.463)" fill="#001f26"/>
  <path id="Path_75" data-name="Path 75" d="M714.861,150.26c0-.469-.352-.641-.813-.641a2.691,2.691,0,0,0-1.163.241v3.949h-1.033V148.8h.7l.1.28a2.591,2.591,0,0,1,1.4-.411c1.234,0,1.846.6,1.846,1.613v3.529h-1.033" transform="translate(-654.549 -102.58)" fill="#001f26"/>
  <path id="Path_76" data-name="Path 76" d="M719.3,151.624c.921,0,1.033-.481,1.033-1s-.112-1-1.033-1-1.023.481-1.023,1S718.381,151.624,719.3,151.624Zm-.3,2.354c-.529.174-.951.422-.951.835,0,.543.422.68,1.253.68s1.585-.181,1.585-.821c0-.352-.151-.493-.582-.541Zm.3-1.4c-.119,0-.239,0-.352-.011-.119.08-.251.2-.251.3,0,.122.052.16.182.181l1.592.189c.933.109,1.444.5,1.444,1.435,0,1.261-1.222,1.774-2.615,1.774-1.422,0-2.274-.484-2.274-1.633a1.352,1.352,0,0,1,.841-1.214v-.011a.929.929,0,0,1-.18-.591.979.979,0,0,1,.351-.72,1.825,1.825,0,0,1-.743-1.654,1.759,1.759,0,0,1,2.005-1.955,2.975,2.975,0,0,1,.9.13h1.615v.68l-.681.192a2.483,2.483,0,0,1,.168.953A1.754,1.754,0,0,1,719.3,152.578Z" transform="translate(-654.806 -102.58)" fill="#001f26"/>
  <path id="Path_77" data-name="Path 77" d="M729.632,146.167h1.152l-2.667,7.648h-.732l-2.667-7.648h1.155l1.884,5.885" transform="translate(-655.187 -102.456)" fill="#001f26"/>
  <path id="Path_78" data-name="Path 78" d="M732.482,151.464c-.629.06-.81.411-.81.762s.08.762.81.762a2.4,2.4,0,0,0,1.143-.313v-1.312Zm.221-1.845a5.612,5.612,0,0,0-1.713.3v-.954a5.369,5.369,0,0,1,1.713-.3c1.546,0,1.945.7,1.945,1.743v3.4h-.691l-.091-.258a2.867,2.867,0,0,1-1.4.39,1.6,1.6,0,0,1-1.825-1.713c0-.794.372-1.494,1.854-1.615l1.132-.091v-.1C733.625,149.879,733.425,149.619,732.7,149.619Z" transform="translate(-655.481 -102.58)" fill="#001f26"/>
  <path id="Path_79" data-name="Path 79" d="M737.495,153.815c-.791,0-1.213-.319-1.213-1.213v-6.435h1.012v6.464c0,.182.1.233.393.233v.95" transform="translate(-655.761 -102.456)" fill="#001f26"/>
  <path id="Path_80" data-name="Path 80" d="M739.878,152.352c0,.472.352.643.812.643a2.677,2.677,0,0,0,1.161-.242V148.8h1.033v5.011h-.691l-.1-.281a2.6,2.6,0,0,1-1.4.411c-1.234,0-1.845-.6-1.845-1.612V148.8h1.033" transform="translate(-655.888 -102.587)" fill="#001f26"/>
  <path id="Path_81" data-name="Path 81" d="M745.351,150.892h2.115c-.008-.661-.111-1.273-.932-1.273C745.67,149.619,745.419,150.171,745.351,150.892Zm.01.891c.08.692.372,1.205,1.173,1.205a3.881,3.881,0,0,0,1.724-.363v.974a4.073,4.073,0,0,1-1.724.339c-1.7,0-2.235-1.051-2.235-2.636s.54-2.634,2.235-2.634c1.753,0,2,1.232,2,2.634v.481" transform="translate(-656.159 -102.58)" fill="#001f26"/>
  <path id="Path_82" data-name="Path 82" d="M752.857,135.877h.386c.329,0,.684-.018.684-.412,0-.306-.278-.394-.534-.394h-.536Zm0,1.316h-.3V134.8h.919c.541,0,.751.233.751.661a.644.644,0,0,1-.6.68l.711,1.049H754l-.714-1.049h-.43Zm.452.584a1.772,1.772,0,1,0-1.771-1.772A1.768,1.768,0,0,0,753.31,137.777Zm0-3.845a2.073,2.073,0,1,1-2.072,2.074A2.076,2.076,0,0,1,753.31,133.932Z" transform="translate(-656.503 -101.849)" fill="#001f26"/>
</svg>
