<svg id="GREENHOUSE_WORDMARK_GREEN" xmlns="http://www.w3.org/2000/svg" width="144.397" height="32.373" viewBox="0 0 144.397 32.373">
  <path id="Path_96" data-name="Path 96" d="M12.215,20.013a5.109,5.109,0,0,1-1.578,3.645c-1.088,1.088-2.666,1.36-2.666,2.285,0,1.251,2.013.871,3.945,2.8A6.926,6.926,0,0,1,6.991,40.606,6.924,6.924,0,0,1,2.068,28.748C4,26.816,6.012,27.2,6.012,25.946c0-.925-1.578-1.2-2.666-2.285A5.118,5.118,0,0,1,6.91,14.847c.544,0,1.034.082,1.442.082.735,0,1.115-.326,1.115-.843,0-.3-.136-.68-.136-1.088a1.728,1.728,0,0,1,3.455.054A1.823,1.823,0,0,1,11.4,14.738c-.49.163-.871.381-.871.871C10.528,16.53,12.215,17.428,12.215,20.013Zm-.544,13.659a4.683,4.683,0,1,0-4.679,4.87A4.706,4.706,0,0,0,11.671,33.672ZM10.066,19.958A3.118,3.118,0,0,0,6.991,16.83a3.129,3.129,0,0,0,0,6.257A3.118,3.118,0,0,0,10.066,19.958Z" transform="translate(0 -8.233)"/>
  <path id="Path_97" data-name="Path 97" d="M64.521,25.082a1.476,1.476,0,0,1,1.523,1.469,1.453,1.453,0,0,1-1.5,1.469c-.9,0-1.387-.571-2.285-.571a1.539,1.539,0,0,0-1.551,1.687V37.7a1.156,1.156,0,1,1-2.312,0V26.17A1.155,1.155,0,0,1,59.543,25c1.17,0,.952,1.115,2.122,1.115C62.78,26.115,63.188,25.082,64.521,25.082Z" transform="translate(-42.513 -18.199)"/>
  <path id="Path_98" data-name="Path 98" d="M90.2,31.573c0-4.108,2.829-7.073,6.719-7.073a6.171,6.171,0,0,1,6.393,6.175,1.308,1.308,0,0,1-1.333,1.415H93.138c-.381,0-.517.136-.517.435a4.623,4.623,0,0,0,4.87,4.053,5.128,5.128,0,0,0,2.992-1.007,1.3,1.3,0,0,1,.789-.3,1.081,1.081,0,0,1,.653,1.9,7.328,7.328,0,0,1-11.725-5.6Zm9.63-3.917a3.957,3.957,0,0,0-2.911-1.143,4.3,4.3,0,0,0-3.047,1.251,3.341,3.341,0,0,0-1.061,1.986c0,.272.163.381.517.381H100.4c.326,0,.49-.109.49-.381A3.531,3.531,0,0,0,99.83,27.656Z" transform="translate(-65.662 -17.835)"/>
  <path id="Path_99" data-name="Path 99" d="M147,31.573c0-4.108,2.829-7.073,6.719-7.073a6.171,6.171,0,0,1,6.393,6.175,1.308,1.308,0,0,1-1.333,1.415h-8.841c-.381,0-.517.136-.517.435a4.623,4.623,0,0,0,4.87,4.053,5.128,5.128,0,0,0,2.992-1.007,1.3,1.3,0,0,1,.789-.3,1.081,1.081,0,0,1,.653,1.9A7.328,7.328,0,0,1,147,31.573Zm9.63-3.917a3.957,3.957,0,0,0-2.911-1.143,4.3,4.3,0,0,0-3.047,1.251,3.341,3.341,0,0,0-1.061,1.986c0,.272.163.381.517.381H157.2c.326,0,.49-.109.49-.381A3.531,3.531,0,0,0,156.63,27.656Z" transform="translate(-107.01 -17.835)"/>
  <path id="Path_100" data-name="Path 100" d="M217.274,38.51a1.161,1.161,0,0,1-1.17-1.17v-7.4a3.5,3.5,0,0,0-6.992,0v7.4a1.156,1.156,0,1,1-2.312,0V25.779a1.144,1.144,0,0,1,1.115-1.143c1.143,0,1.088,1.034,1.687,1.034s1.415-1.17,3.537-1.17a5.354,5.354,0,0,1,5.278,5.441v7.4A1.155,1.155,0,0,1,217.274,38.51Z" transform="translate(-150.542 -17.835)"/>
  <path id="Path_101" data-name="Path 101" d="M274.674,20.675a1.161,1.161,0,0,1-1.17-1.17v-7.4a3.5,3.5,0,0,0-6.991,0v7.4a1.156,1.156,0,1,1-2.312,0V1.17a1.156,1.156,0,1,1,2.312,0V7.182c0,.326.136.517.49.517.6,0,1.415-1.034,3.537-1.034a5.354,5.354,0,0,1,5.278,5.441v7.4A1.155,1.155,0,0,1,274.674,20.675Z" transform="translate(-192.326 0)"/>
  <path id="Path_102" data-name="Path 102" d="M318.59,31.573a7.128,7.128,0,1,1,7.128,7.073A7.054,7.054,0,0,1,318.59,31.573Zm11.945,0a4.806,4.806,0,1,0-9.6,0,4.806,4.806,0,1,0,9.6,0Z" transform="translate(-231.92 -17.835)"/>
  <path id="Path_103" data-name="Path 103" d="M383.833,25A1.161,1.161,0,0,1,385,26.17v7.4a3.5,3.5,0,0,0,6.991,0v-7.4a1.156,1.156,0,1,1,2.312,0V37.732a1.144,1.144,0,0,1-1.115,1.143c-1.143,0-1.088-1.034-1.687-1.034s-1.415,1.17-3.537,1.17a5.354,5.354,0,0,1-5.278-5.441v-7.4A1.157,1.157,0,0,1,383.833,25Z" transform="translate(-278.582 -18.199)"/>
  <path id="Path_104" data-name="Path 104" d="M438.161,37.64a1.45,1.45,0,0,1-.871-1.279,1.039,1.039,0,0,1,1.034-1.061c.68,0,.979.408,1.551.707a4.912,4.912,0,0,0,2.53.626c1.85,0,2.775-.843,2.775-1.877,0-1.469-1.36-1.741-3.21-2.231-2.285-.6-4.489-1.279-4.489-3.917,0-2.34,1.8-4.108,4.978-4.108a6.4,6.4,0,0,1,3.346.9,1.307,1.307,0,0,1,.653,1.061,1.12,1.12,0,0,1-1.115,1.115,2.21,2.21,0,0,1-1.143-.544,3.229,3.229,0,0,0-1.823-.517c-1.823,0-2.612.789-2.612,1.85,0,1.387,1.333,1.714,3.237,2.176,2.231.544,4.434,1.251,4.434,3.945,0,2.34-1.741,4.162-5.087,4.162A7.965,7.965,0,0,1,438.161,37.64Z" transform="translate(-318.329 -17.835)"/>
  <path id="Path_105" data-name="Path 105" d="M482.59,31.573c0-4.108,2.829-7.073,6.719-7.073a6.171,6.171,0,0,1,6.393,6.175,1.308,1.308,0,0,1-1.333,1.415h-8.841c-.381,0-.517.136-.517.435a4.623,4.623,0,0,0,4.87,4.053,5.128,5.128,0,0,0,2.992-1.007,1.3,1.3,0,0,1,.789-.3,1.081,1.081,0,0,1,.653,1.9,7.328,7.328,0,0,1-11.725-5.6Zm9.633-3.917a3.957,3.957,0,0,0-2.911-1.143,4.3,4.3,0,0,0-3.047,1.251A3.341,3.341,0,0,0,485.2,29.75c0,.272.163.381.517.381h7.073c.326,0,.49-.109.49-.381A3.531,3.531,0,0,0,492.223,27.656Z" transform="translate(-351.305 -17.835)"/>
</svg>
