<svg id="g853" xmlns="http://www.w3.org/2000/svg" width="201.929" height="36.753" viewBox="0 0 201.929 36.753">
  <g id="g847" transform="translate(0 8.872)">
    <path id="path841" d="M4.187,20.177A4.2,4.2,0,0,1,.524,18.052a4.064,4.064,0,0,1,.115-4.183L8.182,2.024a4.224,4.224,0,0,1,7.327.2A4.06,4.06,0,0,1,15.281,6.4L7.744,18.243A4.2,4.2,0,0,1,4.187,20.177Z" transform="translate(0 0.001)" fill="#001f26"/>
    <path id="path843" d="M34.117,20.178a4.19,4.19,0,0,1-3.656-2.12,4.051,4.051,0,0,1,.115-4.172L38.1,2.068a4.22,4.22,0,0,1,7.354.168,4.051,4.051,0,0,1-.272,4.2L37.66,18.249A4.2,4.2,0,0,1,34.117,20.178Z" transform="translate(-16.993 0)" fill="#001f26"/>
    <ellipse id="ellipse845" cx="3.883" cy="3.802" rx="3.883" ry="3.802" transform="translate(25.888 12.674)" fill="#001f26"/>
  </g>
  <path id="path849" d="M415.864,48.254c1.173,0,1.874.834,1.874,2.2v4.682h1.593V50.348c0-2.323-1.095-3.671-3.153-3.671a3.013,3.013,0,0,0-2.846,1.7,2.609,2.609,0,0,0-2.136-1.614,3.675,3.675,0,0,0-.895-.053,2.875,2.875,0,0,0-2.258,1.384V46.855h-1.595v8.282h1.595V50.667a2.18,2.18,0,0,1,2.277-2.413c1.067,0,1.769.817,1.769,2.183v4.7h1.585V50.667a2.182,2.182,0,0,1,2.189-2.413Zm-15.268,5.5a2.621,2.621,0,0,0,1.941-.8,2.7,2.7,0,0,0,.756-1.981,2.7,2.7,0,1,0-5.395,0,2.7,2.7,0,0,0,.751,1.977,2.623,2.623,0,0,0,1.934.807Zm0,1.553a4.192,4.192,0,0,1-4.275-4.346,4.283,4.283,0,1,1,8.565,0,4.22,4.22,0,0,1-4.3,4.354Zm-12.48-4.346-.016.01A4.36,4.36,0,0,1,395.594,48l-1.208,1.029a2.723,2.723,0,0,0-1.945-.78,2.656,2.656,0,0,0-2.748,2.713,2.785,2.785,0,0,0,1.7,2.573,2.724,2.724,0,0,0,3-.6l1.226,1.029a4.348,4.348,0,0,1-7.5-3Zm-5.1,2.587a1.091,1.091,0,1,1,1.09,1.047,1.1,1.1,0,0,1-1.09-1.047Z" transform="translate(-217.403 -26.489)" fill="#001f26"/>
  <path id="path851" d="M224.321,9.837h-5.674L214.67,20.091,210.713,9.837h-5.674l6.9,16.2-4.291,10.713h5.633Zm-34.51,9.012a4.408,4.408,0,0,0,4.485,4.292,4.295,4.295,0,1,0,0-8.589,4.41,4.41,0,0,0-4.485,4.3Zm8.816,9.048v-2.05c-1.151,1.742-3.835,2.4-5.213,2.4a9.172,9.172,0,0,1-9.123-9.4,9.171,9.171,0,0,1,9.123-9.4c1.149,0,3.833.384,5.213,2.4v-2h5.289V27.9l-5.289,0Zm-15.841,0H177.5V25.654c-.884,1.662-3.027,2.63-5.251,2.63-4.6,0-8.664-3.674-8.664-9.362,0-5.8,4.064-9.474,8.664-9.474,2.221,0,4.37.927,5.251,2.59V0h5.289Zm-5.4-9.089a4.143,4.143,0,1,0-8.281,0,4.116,4.116,0,0,0,4.14,4.369,4.184,4.184,0,0,0,4.14-4.369Zm-26.878-.467c0-2.745,1.419-3.674,3.3-3.674,1.8,0,3.1,1.2,3.1,3.6v9.631h5.328V17.1c0-5.142-2.531-7.657-6.556-7.657a5.965,5.965,0,0,0-5.174,3.017V9.837h-5.324V27.894h5.326ZM134.361,28.2a9.075,9.075,0,0,1-9.279-9.4,9.3,9.3,0,1,1,18.6,0,9.1,9.1,0,0,1-9.316,9.4Zm0-5.257a3.978,3.978,0,0,0,4.064-4.139,3.989,3.989,0,0,0-4.064-4.1,3.944,3.944,0,0,0-2.88,1.184,4.016,4.016,0,0,0-1.146,2.916A3.967,3.967,0,0,0,134.361,22.947Zm-18.83-8.277c1.571,0,2.951,1.238,2.951,3.6V27.9h5.289V17.641c0-5.452-2.651-8.2-6.9-8.2a6.115,6.115,0,0,0-5.366,3.209c-1-2.089-2.913-3.172-5.745-3.172a5.118,5.118,0,0,0-4.676,2.979V9.839H95.754V27.9h5.326V18.341c0-2.745,1.5-3.674,3.1-3.674,1.534,0,2.911,1.2,2.951,3.48V27.9h5.328V18.341c0-2.625,1.381-3.671,3.066-3.671Z" transform="translate(-54.351)" fill="#001f26" fill-rule="evenodd"/>
</svg>
