<svg id="Vice_Logo" xmlns="http://www.w3.org/2000/svg" width="116.985" height="34.52" viewBox="0 0 116.985 34.52">
  <g id="Group_34" data-name="Group 34" transform="translate(0 0)">
    <path id="Path_91" data-name="Path 91" d="M231.732,42.169c-.226.3-.927.088-1.2.209C230.623,41.928,231.325,42.186,231.732,42.169Z" transform="translate(-136.81 -28.776)" fill="#001f26" fill-rule="evenodd"/>
    <path id="Path_92" data-name="Path 92" d="M154.7,54.633c3.641-.111,7.052-.639,10.328-.626-1.613.68-3.432,1.279-5.268,1.93-1.794.636-3.7,1.455-5.581,1.408-.987-.024-2.392-.353-2.5-1.3-.154-1.314.927-2.418,1.669-3.339a23.438,23.438,0,0,1,2.608-2.66C155.649,51.482,155.049,53.072,154.7,54.633Z" transform="translate(-92.22 -33.26)" fill="#001f26" fill-rule="evenodd"/>
    <path id="Path_93" data-name="Path 93" d="M230.341,63a8.569,8.569,0,0,1-3.338.835,27.387,27.387,0,0,1-5.112,0C224.123,63.035,227.624,63.19,230.341,63Z" transform="translate(-131.925 -40.588)" fill="#001f26" fill-rule="evenodd"/>
    <path id="Path_94" data-name="Path 94" d="M157.7,34.685c-.893,3.036-2.079,6.231-3.025,9.389,1.512-.034,3.252-.266,5.007-.418,1.537-.133,3.6-.071,4.643-.782.883-.6.9-1.919,1.565-2.817.4,1.45,1.607,3.41.731,4.8-.645,1.021-2.771,1.7-4.173,2.191-1.664.58-2.909,1.063-4.59,1.721a17.708,17.708,0,0,1-4.9,1.408c-2.346.259-5.55-.211-5.842-2.5a4.346,4.346,0,0,1,.574-2.347,19.514,19.514,0,0,1,3.808-4.9c.978-1.012,1.971-1.981,2.973-2.869C155.555,36.585,156.653,35.631,157.7,34.685Zm-4.329,6.676a23.439,23.439,0,0,0-2.608,2.66c-.742.92-1.823,2.024-1.669,3.339.112.951,1.516,1.28,2.5,1.3,1.884.046,3.787-.772,5.581-1.408,1.837-.651,3.655-1.25,5.268-1.93-3.276-.013-6.687.516-10.328.626C152.466,44.39,153.067,42.8,153.367,41.361Z" transform="translate(-89.637 -24.578)" fill="#001f26" fill-rule="evenodd"/>
    <path id="Path_95" data-name="Path 95" d="M31.281,27.955a3.459,3.459,0,0,0,1.148-1.565,9.518,9.518,0,0,0,.835-1.878,8.375,8.375,0,0,0,.052-2.921c-.408-5.228,4.909-6.33,9.337-7.094a32.051,32.051,0,0,1,8.554-.1,6.059,6.059,0,0,0,1.148.156c.393-.058,1.036-.655,1.408-.887a8.433,8.433,0,0,1,2.973-1.252,14.193,14.193,0,0,1,4.747.261,62.321,62.321,0,0,1,12.884,3.547c.069.317-.526.861-.73,1.252,3.419-1.853,6.636-3.779,10.588-4.955a20.2,20.2,0,0,1,11.475-.1,8.407,8.407,0,0,0,1.46.469,15.109,15.109,0,0,0,2.191-.261c11.688-.985,22.572,2.365,32.548,4.277a19.4,19.4,0,0,1-9.128,7.772c.407.4.871.549,1.2.939a4.012,4.012,0,0,1,.209,4.121c-.607,1.211-1.929,1.9-2.608,2.66,2.136-.125,4.253.265,4.538,2.243a5.72,5.72,0,0,1-1.826,4.694c-3.141,3.309-8.617,4.394-13.927,5.477A56.668,56.668,0,0,1,98.932,45.95c-3.4.032-8.693-.279-10.171-2.451a3.322,3.322,0,0,1-.469-1.617c-4.113,1.762-8.728,3.621-14.344,3.756-5.776.138-11.049-1.257-13.04-5.164-.946,1.716-1.765,3.443-3.39,4.381-1.86,1.074-5.178,1.222-7.459.783-2.529-.487-4.473-1.552-4.695-4.173-.219-2.591.828-5.119,1.513-7.25.747-2.323,1.577-4.435,2.4-6.468a11.092,11.092,0,0,0-2.712,2.973,43.447,43.447,0,0,1-8.606,8.606,36.077,36.077,0,0,1-7.251,4.225c-2.431,1.013-6.422,2.405-9.441,1.2A2.378,2.378,0,0,1,19.7,41.777c.279-.775,1.238-1.226,1.3-2.086.05-.656-.6-1.523-.991-2.191a52.86,52.86,0,0,1-3.234-6.155c-1.141-2.769-2.536-6.681-1.512-10.015.939-3.057,3.586-4.89,6.207-6.363A39.613,39.613,0,0,1,28,12.1c1.356-.476,3.719-1.274,4.747.1,1.449,1.943.195,5.716-.313,7.772A31.744,31.744,0,0,0,31.281,27.955ZM61.847,14.394a12.685,12.685,0,0,0-5.112-.261,6.433,6.433,0,0,0-2.034.939c-.444.3-1.2,1.113-1.773,1.2a12.8,12.8,0,0,1-2.451-.261,27.838,27.838,0,0,0-11.892,1.148c-1.2.436-2.718,1.038-3.286,2.191-.667,1.355.161,3.233-.052,4.955a7.189,7.189,0,0,1-.835,2.243,24.147,24.147,0,0,1-2.452,3.7c-.348.464-1.1,1.48-1.773,1.356-.464-.086-.678-.9-.73-1.826-.232-4.053.768-7.449,1.46-10.849a17.433,17.433,0,0,0,.573-4.486c-.085-.989-.53-1.391-1.356-1.356-1.368.058-3.063,1.017-4.381,1.565a23.833,23.833,0,0,0-3.808,1.982c-2.336,1.5-4.552,3.414-4.955,6.676-.428,3.466.967,6.538,2.191,8.971a20.333,20.333,0,0,0,2.139,3.651c.736.941,2.232,2.427,2.034,3.808-.145,1.012-2.182,2.037-1.826,3.077.181.529,1.38.669,2.452.679a15.569,15.569,0,0,0,7.407-2.139,37.485,37.485,0,0,0,7.563-5.112,50.2,50.2,0,0,0,6.364-6.312c1.909-2.3,3.508-4.859,5.477-7.25,1.408,3.813-.03,6.9-1.2,9.65a46.459,46.459,0,0,0-1.617,4.381c-.452,1.436-1.1,3.578-.678,5.164.55,2.058,3.629,2.435,6.051,2.243a6.4,6.4,0,0,0,4.121-1.565c1.971-1.929,3.01-4.65,4.225-7.2-.256,3.541,1.187,5.624,3.495,6.885a18.218,18.218,0,0,0,8.658,1.826c6.751,0,11.846-2.553,16.013-4.851a5.2,5.2,0,0,0,.156,3.234c.9,1.693,3.291,1.819,5.894,2.034a41.129,41.129,0,0,0,4.486.156,54.709,54.709,0,0,0,9.493-1.1c4.208-.83,8.716-2.084,11.892-4.173,1.072-.7,2.25-1.626,2.5-2.869.719-3.524-3.469-2.481-5.738-1.982-1.734.381-3.467.908-4.955,1.252-3.286.76-7.6,1.747-10.536.417-.448-.2-1.1-.533-1.1-1.2a1.914,1.914,0,0,1,.782-1.2c1.078-.842,2.865-1.061,4.747-1.2,4.668-.345,11.565.412,14.344-2.5a3.4,3.4,0,0,0,.574-3.755c-.641-1.042-2.282-1.268-3.755-1.2-4.046.189-7.458,1.869-11.006,1.773-.651-.018-1.89-.007-2.086-.469-.244-.573.363-1.426.679-1.826a3.891,3.891,0,0,1,1.408-1.252,8.447,8.447,0,0,1,3.182,0,36.675,36.675,0,0,0,9.65.156,13.922,13.922,0,0,0,7.98-4.694,2.424,2.424,0,0,0,.73-.991c-8.475-1.528-18.139-4-27.436-3.86a9.659,9.659,0,0,0-4.329.887c-1.01.526-2.445,1.734-2.243,3.13.12.829,1.2,1.438,1.982,1.721.992.362,2.022.5,2.869.887-2.19.4-4.837,1.029-7.042,1.408.43-1.092,1-2.154,1.513-3.495.346-.9,1.156-2.86.886-4.016-.26-1.117-2.4-1.336-3.86-1.356a22.462,22.462,0,0,0-4.434.469c-8.386,1.782-14.765,6.371-20.238,10.9a42.786,42.786,0,0,1,3.912-6.781c.2-.3.517-.659.469-.887A65.144,65.144,0,0,0,61.847,14.394Zm46.788,10.641c.273-.121.973.087,1.2-.209C109.427,24.843,108.725,24.584,108.634,25.034Zm-3.756,9.65a27.387,27.387,0,0,0,5.112,0,8.571,8.571,0,0,0,3.338-.835C110.611,34.035,107.111,33.88,104.878,34.684Z" transform="translate(-14.912 -11.432)" fill="#001f26" fill-rule="evenodd"/>
  </g>
</svg>
