<svg id="NCR_logo_black" xmlns="http://www.w3.org/2000/svg" width="138.092" height="39.645" viewBox="0 0 138.092 39.645">
  <path id="Path_85" data-name="Path 85" d="M114.434,26.007a8.319,8.319,0,0,1-.277-1.77V12.452h4.72v22.7L103.765,22.639a7.035,7.035,0,0,1-1.287-1.454,6.857,6.857,0,0,1,.24,1.578l0,11.877H97.991V12.029l14.973,12.262a8.994,8.994,0,0,1,1.47,1.716" transform="translate(-30.332 -3.723)" fill="#001f26"/>
  <path id="Path_86" data-name="Path 86" d="M178.548,12.645c7.48,0,9.4,2.95,9.4,7.189,0,3.073-2.263,6.083-6.826,6.439l-.5.024a1.933,1.933,0,0,1,.9.522L189.8,34.83h-6.4L171.841,23.092H177.6c5.156,0,5.306-2.717,5.341-3.4.1-1.763-.467-3.173-4.4-3.173h-6.582V34.83h-4.905V12.645Z" transform="translate(-51.709 -3.914)" fill="#001f26"/>
  <path id="Path_87" data-name="Path 87" d="M131.315,23.907c0-9.294,7.779-11.736,14.319-11.736a34.51,34.51,0,0,1,7.377.752l.007,4.713a24.631,24.631,0,0,0-7.383-1.379c-6.2,0-9.21,2.408-9.21,7.65,0,4.293,3.245,7.028,9.21,7.028a25.258,25.258,0,0,0,7.862-1.318l-.009,4.572a39.275,39.275,0,0,1-7.853.832c-6.985,0-14.319-3.394-14.319-11.114" transform="translate(-40.647 -3.767)" fill="#001f26"/>
  <path id="Path_88" data-name="Path 88" d="M46.325,13.471l4.6,4.335c-.126.056-.271.125-.441.211a8.885,8.885,0,0,0-.965.588,18.591,18.591,0,0,0-3.012,2.719l-9,9.521a16.347,16.347,0,0,1-4.565,3.6l-4.606-4.337c.126-.059.271-.124.438-.213a8.98,8.98,0,0,0,.965-.584,18.9,18.9,0,0,0,3.015-2.721l8.995-9.5a16.458,16.458,0,0,1,4.571-3.617" transform="translate(-8.773 -4.17)" fill="#001f26"/>
  <path id="Path_89" data-name="Path 89" d="M19.733,32.356a11.71,11.71,0,0,0,5.174-1.061,15.166,15.166,0,0,0,2.12-1.378A23.941,23.941,0,0,0,29.591,27.6L38.6,18.1c2.272-2.392,3.637-3.131,4.465-3.422l4.619,4.375C46.717,20.088,35.22,32.333,35.22,32.333c-.784.847-1.609,1.663-2.171,2.178-.539.5-1.462,1.238-1.938,1.587a18.377,18.377,0,0,1-11.179,3.588C8.912,39.685,0,30.715,0,20.387,0,7.574,10.011.139,19.129.139a19.112,19.112,0,0,1,6.811.989,26.382,26.382,0,0,1,3.773,1.69,20.318,20.318,0,0,0-3.78,3.415L24.083,8.218A12.853,12.853,0,0,0,19.35,7.47,12.344,12.344,0,0,0,7.332,20.164a12.5,12.5,0,0,0,12.4,12.191" transform="translate(0 -0.04)" fill="#001f26"/>
  <path id="Path_90" data-name="Path 90" d="M43.029,8.39a15.511,15.511,0,0,0-2.124,1.379,24.607,24.607,0,0,0-2.564,2.316l-9,9.5C27.066,23.974,25.7,24.71,24.872,25L20.253,20.63C21.22,19.6,32.714,7.354,32.714,7.354c.786-.847,1.609-1.663,2.171-2.18.539-.5,1.462-1.235,1.942-1.587A18.366,18.366,0,0,1,48.007,0c11.02,0,19.927,8.97,19.927,19.3,0,12.817-10.009,20.248-19.129,20.248A18.933,18.933,0,0,1,42,38.552a26.2,26.2,0,0,1-3.78-1.69A21.043,21.043,0,0,0,42,33.454l1.846-1.985a12.973,12.973,0,0,0,4.736.748A12.352,12.352,0,0,0,60.6,19.517,12.506,12.506,0,0,0,48.2,7.327,11.691,11.691,0,0,0,43.029,8.39" transform="translate(-6.269)" fill="#001f26"/>
</svg>
