<svg id="Meta_Platforms_Inc._logo" xmlns="http://www.w3.org/2000/svg" width="144.066" height="29.026" viewBox="0 0 144.066 29.026">
  <path id="Logo0" d="M4.72,19.142a7.282,7.282,0,0,0,.845,3.725,2.882,2.882,0,0,0,2.518,1.445c1.231,0,2.357-.305,4.527-3.307,1.739-2.406,3.787-5.782,5.165-7.9L20.11,9.519a34.8,34.8,0,0,1,5.65-7.136A8.56,8.56,0,0,1,31.319,0c3.2,0,6.252,1.856,8.586,5.336A24.405,24.405,0,0,1,43.7,18.9a13.256,13.256,0,0,1-1.568,6.819,6.554,6.554,0,0,1-5.943,3.305V24.312c2.679,0,3.348-2.462,3.348-5.279a22.306,22.306,0,0,0-3-11.654C35.074,5.12,33.178,3.74,31.091,3.74c-2.257,0-4.073,1.7-6.114,4.737-1.085,1.612-2.2,3.577-3.45,5.795L20.151,16.71A61.531,61.531,0,0,1,15.3,24.575c-2.424,3.228-4.494,4.451-7.219,4.451a7.08,7.08,0,0,1-6.542-3.509A12.717,12.717,0,0,1,0,18.973Z" transform="translate(0 0)" fill="#001f26"/>
  <path id="Logo1" d="M24.49,5.668C26.654,2.333,29.777,0,33.359,0a9.565,9.565,0,0,1,6.29,2.372c2.356,1.922,4.866,5.088,8,10.3l1.123,1.872a78.008,78.008,0,0,0,5.156,7.936c1.161,1.407,1.974,1.827,3.03,1.827,2.679,0,3.348-2.462,3.348-5.279l4.164-.131A13.256,13.256,0,0,1,62.9,25.721a6.554,6.554,0,0,1-5.943,3.305,7.4,7.4,0,0,1-5.574-2.22,30.943,30.943,0,0,1-4.5-6.035l-3.919-6.547A45.01,45.01,0,0,0,38.153,7.38c-1.123-1.193-2.567-2.634-4.871-2.634-1.865,0-3.448,1.308-4.773,3.31Z" transform="translate(-20.768)" fill="#001f26"/>
  <path id="Logo2" d="M12.515,4.746c-1.865,0-3.448,1.308-4.773,3.31A21.042,21.042,0,0,0,4.72,19.142a7.282,7.282,0,0,0,.845,3.725l-4.024,2.65A12.717,12.717,0,0,1,0,18.973a25,25,0,0,1,3.722-13.3C5.886,2.333,9.009,0,12.591,0Z" transform="translate(0 0)" fill="#001f26"/>
  <path id="Text" d="M347.94,6.04h5.46l9.284,16.8,9.285-16.8h5.342v27.6h-4.454V12.487l-8.142,14.647h-4.179l-8.141-14.647V33.637H347.94Zm43.328,10.29c-3.194,0-5.118,2.4-5.579,5.381H396.53C396.307,18.644,394.538,16.33,391.268,16.33Zm-9.995,7.077c0-6.264,4.048-10.823,10.072-10.823,5.925,0,9.463,4.5,9.463,11.158v1.223H385.689c.536,3.238,2.685,5.421,6.15,5.421A8.138,8.138,0,0,0,397.97,28l2.366,2.9a12.3,12.3,0,0,1-8.655,3.232c-6.521,0-10.408-4.755-10.408-10.723Zm24.937-6.682h-4.1V13.078h4.1V7.046h4.3v6.032h6.229v3.647h-6.229v9.244c0,3.156,1.009,4.278,3.489,4.278a14.429,14.429,0,0,0,2.74-.257V33.6a12.8,12.8,0,0,1-3.568.492q-6.959,0-6.959-7.609Zm28.623,3.547a5.8,5.8,0,0,0-5.618-3.784c-3.678,0-6.032,2.609-6.032,6.86,0,4.144,2.167,6.88,5.855,6.88a6.046,6.046,0,0,0,5.795-3.786Zm4.3,13.366h-4.219V30.759a7.932,7.932,0,0,1-6.8,3.371c-5.589,0-9.325-4.679-9.325-10.782,0-6.161,3.825-10.764,9.562-10.764a7.847,7.847,0,0,1,6.564,3.135V13.078h4.219Z" transform="translate(-295.064 -5.122)" fill="#001f26"/>
</svg>
