<svg xmlns="http://www.w3.org/2000/svg" width="168.189" height="30.044" viewBox="0 0 168.189 30.044">
  <path id="Coinbase" d="M33.945,8.388A10.669,10.669,0,0,0,23.061,19.235,10.565,10.565,0,0,0,33.945,30.043,10.688,10.688,0,0,0,44.91,19.2,10.631,10.631,0,0,0,33.945,8.388Zm.041,17.18a6.013,6.013,0,0,1-6.029-6.331c0-3.67,2.508-6.371,5.988-6.371a6.054,6.054,0,0,1,6.069,6.371A6.012,6.012,0,0,1,33.986,25.568ZM46.244,13.107h3.035V29.641h4.855V8.791h-7.89Zm-35.4-.243a5.52,5.52,0,0,1,5.34,3.911h5.139A10.193,10.193,0,0,0,10.884,8.388,10.669,10.669,0,0,0,0,19.237,10.564,10.564,0,0,0,10.884,30.044a10.237,10.237,0,0,0,10.4-8.429h-5.1a5.473,5.473,0,0,1-5.3,3.953c-3.521,0-5.988-2.7-5.988-6.331C4.9,15.566,7.324,12.864,10.843,12.864ZM138.491,17.22l-3.56-.524c-1.7-.241-2.913-.806-2.913-2.137,0-1.452,1.579-2.177,3.722-2.177,2.347,0,3.844,1.008,4.168,2.661H144.6c-.527-4.194-3.763-6.653-8.739-6.653-5.139,0-8.537,2.621-8.537,6.331,0,3.548,2.226,5.606,6.716,6.25l3.56.524c1.74.241,2.711.928,2.711,2.218,0,1.653-1.7,2.339-4.046,2.339-2.873,0-4.492-1.169-4.734-2.944h-4.774c.446,4.073,3.641,6.936,9.467,6.936,5.3,0,8.82-2.42,8.82-6.574C145.046,19.76,142.5,17.824,138.491,17.22ZM51.707.2a3,3,0,0,0-3.116,3.064,3.116,3.116,0,0,0,6.232,0A3,3,0,0,0,51.707.2ZM122.956,15.93c0-4.516-2.751-7.54-8.577-7.54-5.5,0-8.577,2.783-9.185,7.058h4.815c.243-1.653,1.537-3.024,4.289-3.024,2.469,0,3.682,1.089,3.682,2.42,0,1.734-2.226,2.177-4.977,2.46-3.722.4-8.334,1.693-8.334,6.533,0,3.751,2.792,6.169,7.243,6.169,3.479,0,5.664-1.452,6.757-3.751a3.6,3.6,0,0,0,3.844,3.388h2.832V25.327h-2.388v-9.4Zm-4.774,5.243c0,2.783-2.427,4.84-5.382,4.84-1.821,0-3.359-.766-3.359-2.379,0-2.056,2.469-2.621,4.734-2.863,2.185-.2,3.4-.685,4.006-1.614ZM92.409,8.388a8.463,8.463,0,0,0-6.6,3.024V0H80.959V29.641h4.774V26.9a8.421,8.421,0,0,0,6.676,3.145c5.826,0,10.237-4.6,10.237-10.808S98.154,8.388,92.409,8.388Zm-.728,17.18a6.013,6.013,0,0,1-6.029-6.331,6.079,6.079,0,0,1,6.069-6.371c3.521,0,5.988,2.7,5.988,6.371A6.012,6.012,0,0,1,91.681,25.568ZM69.346,8.388a7.266,7.266,0,0,0-6.434,3.105v-2.7H58.1V29.64h4.855V18.308c0-3.186,2.023-5.444,5.017-5.444,2.792,0,4.531,1.976,4.531,4.84V29.641h4.855v-12.3C77.357,12.1,74.647,8.388,69.346,8.388Zm98.843,10.163A9.856,9.856,0,0,0,157.953,8.389a10.554,10.554,0,0,0-10.8,10.847,10.538,10.538,0,0,0,10.884,10.808c5.058,0,9.023-2.985,10.034-7.218h-5.058c-.728,1.855-2.508,2.9-4.9,2.9a5.825,5.825,0,0,1-5.988-5.324h16.063V18.551Zm-15.78-1.614a5.433,5.433,0,0,1,5.463-4.314,5.084,5.084,0,0,1,5.34,4.314Z" fill="#001f26"/>
</svg>
