<svg xmlns="http://www.w3.org/2000/svg" width="126.379" height="23.173" viewBox="0 0 126.379 23.173">
  <path id="path2859" d="M324.485-465.323h-6.79v8.841h-7.068v-8.841h-6.79v22.244h6.79v-8.75h7.068v8.75h6.79ZM348.1-447.549v-17.774h-6.79v22.244h12.277l1.021-4.47Zm-11.809-17.774H329.5v22.244h6.79Zm27.526,0h-6.787v22.244h6.787Zm33.475,5.677c0-1.211,1.211-1.77,3.161-1.77a17.01,17.01,0,0,1,6.047,1.122l-.556-4.843a26.554,26.554,0,0,0-6.23-.651c-5.487,0-9.208,2.165-9.208,6.7,0,7.817,10.605,6.237,10.605,9.865,0,1.394-1.027,2.137-3.537,2.137a20.306,20.306,0,0,1-7.719-1.767l.746,5.121a22.409,22.409,0,0,0,7.068,1.116c5.671,0,10.321-1.862,10.321-7.447,0-7.441-10.7-6.047-10.7-9.584m-19.152,11.262c6.319,0,10.321-3.259,10.321-8.936,0-6.233-4.277-8.468-11.253-8.468a76.647,76.647,0,0,0-8.275.465v22.244h6.79v-5.3Zm3.626-8.841c0,2.883-1.394,4.839-4.931,4.839h-1.113v-9.192c.4-.022.765-.022,1.113-.022,3.347,0,4.931,1.58,4.931,4.375m-90.947,8.841c6.322,0,10.321-3.259,10.321-8.936,0-6.233-4.277-8.468-11.25-8.468a76.707,76.707,0,0,0-8.279.465v22.244h6.79v-5.3Zm3.629-8.841c0,2.883-1.4,4.839-4.931,4.839H288.4v-9.192c.4-.022.768-.022,1.116-.022,3.347,0,4.931,1.58,4.931,4.375" transform="translate(-281.612 465.788)" fill="#001f26"/>
</svg>
