<svg xmlns="http://www.w3.org/2000/svg" width="88.24" height="31.987" viewBox="0 0 88.24 31.987">
  <path id="TED_three_letter_logo" d="M8.9,9.015H0V.85H27.66V9.015h-8.9V32.837H8.9ZM29.19.85H56.084V9.015H39.049v3.939H56.084v7.683H39.049v4.035H56.084v8.165H29.19V.85Zm28.52,0H73.885C84.509.85,88.241,8.727,88.241,16.8c0,9.8-5.169,16.041-16.27,16.041H57.71V.85Zm9.859,23.822H71.4c6.125,0,6.988-4.994,6.988-7.972,0-2.018-.67-7.589-7.754-7.589H67.471Z" transform="translate(0 -0.85)" fill="#001f26"/>
</svg>
