<svg id="Upwork-logo" xmlns="http://www.w3.org/2000/svg" width="126.379" height="38.318" viewBox="0 0 126.379 38.318">
  <path id="Path_65" data-name="Path 65" d="M81.171,22.337A10.229,10.229,0,1,0,91.32,32.52,10.16,10.16,0,0,0,81.171,22.337Zm.077,16.287a5.938,5.938,0,1,1,5.906-5.963,6.1,6.1,0,0,1-5.906,5.964Zm22.425-11.47a5.229,5.229,0,0,0-5.153,5.328l.046,9.722-4.42.021-.089-19.321,4.42-.021.015,3.03a7.023,7.023,0,0,1,5.668-3.055l1.264-.007.021,4.292ZM59.581,23.07l3.346,13.244L66.4,23.037l4.42-.02L65.353,42.376l-4.292.02L57.589,28.9,54.243,42.427l-4.294.02L44.177,23.152l4.292-.02,3.85,13.241,3.1-13.274Zm58.758,8.564a10.3,10.3,0,0,0,5.137-8.863l-4.42.021a5.9,5.9,0,0,1-5.781,5.96l-.632,0-.07-15.279-4.42.021.136,28.663,4.418-.02-.042-9.09.5,0a1.187,1.187,0,0,1,1.141.626l6.227,8.43,5.177-.023Z" transform="translate(0.666 -13.475)" fill="#001f26"/>
  <path id="Path_66" data-name="Path 66" d="M40.114,21.682c-4.8.023-8.445,3.2-9.809,8.253a44.591,44.591,0,0,1-5.1-10.961L20.153,19l.063,13.384a4.8,4.8,0,1,1-9.6.045l-.064-13.384L5.5,19.067l.063,13.384a9.851,9.851,0,1,0,19.7-.093l-.012-2.273a42.835,42.835,0,0,0,3.691,6.043L25.857,50.916l5.176-.023,2.226-10.744a12.759,12.759,0,0,0,6.952,1.987,10.228,10.228,0,0,0-.1-20.455Zm.072,15.279A8.986,8.986,0,0,1,34.5,34.714l.5-2.021v-.116c.371-2.15,1.486-5.816,5.276-5.832a5.067,5.067,0,0,1,5.075,5.014,5.373,5.373,0,0,1-5.154,5.2Z" transform="translate(-5.503 -12.598)" fill="#001f26"/>
</svg>
