<svg xmlns="http://www.w3.org/2000/svg" width="174.713" height="29.123" viewBox="0 0 174.713 29.123">
  <g id="Webflow_logo_2023" transform="translate(0 -0.684)">
    <path id="Path_148" data-name="Path 148" d="M46.688.684,31.79,29.807H17.8l6.235-12.07h-.28C18.609,24.414,10.935,28.81,0,29.807V17.9s7-.413,11.107-4.737H0V.684H12.483V10.952h.28L17.865.684h9.441v10.2h.28L32.878.684Z" transform="translate(0 0)" fill="#001f26" fill-rule="evenodd"/>
    <path id="Path_149" data-name="Path 149" d="M790.78,41.264h4.02V18.187h-4.02Z" transform="translate(-662.855 -14.671)" fill="#001f26"/>
    <path id="Path_150" data-name="Path 150" d="M619.586,41.1a6.885,6.885,0,0,0,2.666.545,7.476,7.476,0,0,0,4.006-1.09,7.373,7.373,0,0,0,2.739-3,9.586,9.586,0,0,0,.972-4.374,9.353,9.353,0,0,0-1-4.374,7.316,7.316,0,0,0-2.784-2.99,7.586,7.586,0,0,0-4.05-1.06,7.047,7.047,0,0,0-2.769.56,5.862,5.862,0,0,0-2.209,1.59q-.068.078-.133.159V18.278h-4.035V41.34h4.006l-.008-2.154q.156.19.332.372A6.892,6.892,0,0,0,619.586,41.1Zm4.123-3.726a4.229,4.229,0,0,1-2.253.6,4.429,4.429,0,0,1-2.3-.619,4.673,4.673,0,0,1-1.664-1.723,5.019,5.019,0,0,1-.6-2.474,4.907,4.907,0,0,1,.589-2.474,4.419,4.419,0,0,1,1.664-1.708,4.354,4.354,0,0,1,2.312-.6,4.133,4.133,0,0,1,2.253.589,3.837,3.837,0,0,1,1.532,1.694,6.026,6.026,0,0,1,0,5.007A4.039,4.039,0,0,1,623.709,37.379Z" transform="translate(-513.824 -14.748)" fill="#001f26" fill-rule="evenodd"/>
    <path id="Path_151" data-name="Path 151" d="M324.611,26.835h4.595l4.11,15.011,4.373-15.011h3.829l4.742,14.709,3.947-14.709h4.212L348.2,48.513h-3.962l-4.822-14.37-4.427,14.37h-4.006Z" transform="translate(-272.098 -21.921)" fill="#001f26"/>
    <path id="Path_152" data-name="Path 152" d="M507.086,75.375a8.632,8.632,0,0,1-4.33-1.06,7.961,7.961,0,0,1-3.019-3.019,8.8,8.8,0,0,1-1.09-4.4,8.549,8.549,0,0,1,1.119-4.344,8.037,8.037,0,0,1,3.034-3.034,8.48,8.48,0,0,1,4.271-1.09A8.928,8.928,0,0,1,511.71,59.6a7.282,7.282,0,0,1,2.99,3.343,9.3,9.3,0,0,1,.722,4.933H502.806a4.574,4.574,0,0,0,.553,2.018,3.978,3.978,0,0,0,1.561,1.561,4.51,4.51,0,0,0,2.239.56,5.1,5.1,0,0,0,1.753-.324,4.141,4.141,0,0,0,1.37-.869,3.049,3.049,0,0,0,.81-1.237H515.3a6.851,6.851,0,0,1-1.532,3.019,7.837,7.837,0,0,1-2.887,2.047A9.466,9.466,0,0,1,507.086,75.375Zm-3.711-11.546a4.253,4.253,0,0,0-.489,1.325h8.362a3.746,3.746,0,0,0-.554-1.635,3.582,3.582,0,0,0-1.443-1.34,4.319,4.319,0,0,0-2.062-.486,4.48,4.48,0,0,0-2.224.56A4.155,4.155,0,0,0,503.374,63.829Z" transform="translate(-417.98 -48.4)" fill="#001f26" fill-rule="evenodd"/>
    <path id="Path_153" data-name="Path 153" d="M722.82,25.264a6.8,6.8,0,0,1,.9-3.505,6.183,6.183,0,0,1,2.518-2.4,8.253,8.253,0,0,1,3.814-.9v3.579a3.555,3.555,0,0,0-1.738.427,2.665,2.665,0,0,0-1.09,1.163,3.875,3.875,0,0,0-.38,1.635h3.12v3.4H726.84V41.493h-4.02V28.666h-2.592v-3.4Z" transform="translate(-603.716 -14.9)" fill="#001f26"/>
    <path id="Path_154" data-name="Path 154" d="M834.628,75.27a8.946,8.946,0,0,1-4.4-1.075,7.961,7.961,0,0,1-3.034-3,9.352,9.352,0,0,1,0-8.763,7.8,7.8,0,0,1,3.034-3.019,9.586,9.586,0,0,1,8.821,0,7.67,7.67,0,0,1,3.048,3,9.271,9.271,0,0,1,0,8.777,7.7,7.7,0,0,1-3.034,3A9.061,9.061,0,0,1,834.628,75.27Zm0-3.7a4.446,4.446,0,0,0,2.3-.589,4.057,4.057,0,0,0,1.546-1.679,5.989,5.989,0,0,0,0-4.992,3.941,3.941,0,0,0-1.546-1.679,4.645,4.645,0,0,0-4.58,0,3.971,3.971,0,0,0-1.532,1.679,5.4,5.4,0,0,0-.53,2.5,5.491,5.491,0,0,0,.545,2.489,4.225,4.225,0,0,0,1.532,1.679A4.337,4.337,0,0,0,834.628,71.573Z" transform="translate(-692.462 -48.323)" fill="#001f26" fill-rule="evenodd"/>
    <path id="Path_155" data-name="Path 155" d="M935.452,60.518h-4.477l4.845,16.229h3.917l3.187-10.366,3.441,10.366h3.858l4.86-16.229h-4.049l-2.757,10.1-3.046-10.1h-3.918l-3.032,10.324Z" transform="translate(-780.37 -50.155)" fill="#001f26"/>
  </g>
</svg>
