<svg id="layer1" xmlns="http://www.w3.org/2000/svg" xmlns:xlink="http://www.w3.org/1999/xlink" width="200.018" height="38.319" viewBox="0 0 200.018 38.319">
  <defs>
    <clipPath id="clip-path">
      <rect id="rect837" width="200.018" height="38.319" fill="#001f26"/>
    </clipPath>
  </defs>
  <g id="g866" transform="translate(0 0)">
    <g id="g835" transform="translate(0 0)" clip-path="url(#clip-path)">
      <g id="g833" clip-path="url(#clip-path)">
        <path id="path815" d="M42.33,10.816A40.978,40.978,0,0,0,32.02,7.607,29.823,29.823,0,0,0,30.7,10.323a38.208,38.208,0,0,0-11.425,0,28.917,28.917,0,0,0-1.336-2.716A40.841,40.841,0,0,0,7.621,10.824,42.522,42.522,0,0,0,.212,39.5a41.365,41.365,0,0,0,12.644,6.418A31.1,31.1,0,0,0,15.564,41.5,26.735,26.735,0,0,1,11.3,39.448c.358-.262.707-.537,1.045-.819a29.387,29.387,0,0,0,25.28,0c.342.282.692.557,1.045.819a26.668,26.668,0,0,1-4.272,2.06,30.959,30.959,0,0,0,2.708,4.418A41.282,41.282,0,0,0,49.758,39.5,42.485,42.485,0,0,0,42.33,10.816ZM16.684,33.73c-2.468,0-4.492-2.283-4.492-5.062A4.8,4.8,0,0,1,16.684,23.6a4.766,4.766,0,0,1,4.492,5.066A4.79,4.79,0,0,1,16.684,33.73Zm16.6,0c-2.468,0-4.492-2.283-4.492-5.062A4.8,4.8,0,0,1,33.286,23.6a4.766,4.766,0,0,1,4.492,5.066A4.793,4.793,0,0,1,33.286,33.73Z" transform="translate(0 -7.607)" fill="#001f26"/>
        <path id="path817" d="M63.984,16.921h10.73a15.8,15.8,0,0,1,6.564,1.225,8.832,8.832,0,0,1,4.017,3.408,9.409,9.409,0,0,1,1.336,5,9.269,9.269,0,0,1-1.391,4.995A9.424,9.424,0,0,1,81,35.095,16.9,16.9,0,0,1,73.943,36.4h-9.96Zm9.849,14.531a5.649,5.649,0,0,0,4.017-1.32,4.719,4.719,0,0,0,1.4-3.607A4.6,4.6,0,0,0,78,23.145a5.105,5.105,0,0,0-3.781-1.269H70.866v9.576Z" transform="translate(3.166 -7.146)" fill="#001f26"/>
        <path id="path819" d="M101.058,36.263a14.451,14.451,0,0,1-4.017-1.7V29.944a11.038,11.038,0,0,0,3.619,1.742,15.265,15.265,0,0,0,4.39.68,3.354,3.354,0,0,0,1.5-.262c.338-.175.508-.386.508-.628a.946.946,0,0,0-.275-.7,2.362,2.362,0,0,0-1.073-.473l-3.3-.752A8.474,8.474,0,0,1,98.378,27.7a4.465,4.465,0,0,1-.149-5.913,6.649,6.649,0,0,1,2.971-1.849,14.009,14.009,0,0,1,4.512-.656,16.824,16.824,0,0,1,4.237.5,11.689,11.689,0,0,1,3.191,1.28v4.37a11.79,11.79,0,0,0-2.987-1.241,13.226,13.226,0,0,0-3.483-.457q-2.588,0-2.586.891a.667.667,0,0,0,.4.624,6.571,6.571,0,0,0,1.47.433l2.751.5a8.043,8.043,0,0,1,4.017,1.654,4.446,4.446,0,0,1,1.321,3.5,4.634,4.634,0,0,1-2.185,4.024,10.949,10.949,0,0,1-6.206,1.491,18.217,18.217,0,0,1-4.594-.589Z" transform="translate(4.801 -7.029)" fill="#001f26"/>
        <path id="path821" d="M119.654,35.678a8.271,8.271,0,0,1-3.561-3.173,8.662,8.662,0,0,1-1.195-4.51,8.046,8.046,0,0,1,4.87-7.584,13.326,13.326,0,0,1,5.722-1.125,12.422,12.422,0,0,1,6.851,1.754v5.094a8.541,8.541,0,0,0-2.241-1.086,8.77,8.77,0,0,0-2.739-.418,7.238,7.238,0,0,0-4,.946,2.857,2.857,0,0,0-1.446,2.477,2.891,2.891,0,0,0,1.4,2.466,7.192,7.192,0,0,0,4.072.962,9.431,9.431,0,0,0,2.712-.4,10.033,10.033,0,0,0,2.3-.99v4.927a13.242,13.242,0,0,1-7.016,1.837,12.927,12.927,0,0,1-5.727-1.177Z" transform="translate(5.685 -7.029)" fill="#001f26"/>
        <path id="path823" d="M138.288,35.678A8.365,8.365,0,0,1,133.4,27.94a8.115,8.115,0,0,1,1.254-4.47,8.419,8.419,0,0,1,3.62-3.078,14.84,14.84,0,0,1,11.28,0,8.352,8.352,0,0,1,3.6,3.062,8.176,8.176,0,0,1,1.238,4.482,8.331,8.331,0,0,1-4.858,7.739,14.144,14.144,0,0,1-11.252,0Zm8.36-4.939a3.653,3.653,0,0,0,1.006-2.684,3.544,3.544,0,0,0-1.006-2.656,3.722,3.722,0,0,0-2.735-.99,3.774,3.774,0,0,0-2.767.99,3.563,3.563,0,0,0-1,2.656,3.653,3.653,0,0,0,1,2.684,4.227,4.227,0,0,0,5.5,0Z" transform="translate(6.6 -7.029)" fill="#001f26"/>
        <path id="path825" d="M169.822,20.295v6.013a4.823,4.823,0,0,0-2.724-.7,4.261,4.261,0,0,0-3.385,1.348,6.237,6.237,0,0,0-1.183,4.191v5.122h-6.74V19.989h6.6v5.178a8.635,8.635,0,0,1,1.776-4.191,4.058,4.058,0,0,1,3.148-1.348A4.56,4.56,0,0,1,169.822,20.295Z" transform="translate(7.708 -7.012)" fill="#001f26"/>
        <path id="path827" d="M191.5,16.391V36.433h-6.741V32.787a6.469,6.469,0,0,1-2.6,3.134,8.121,8.121,0,0,1-4.308,1.07,7.06,7.06,0,0,1-3.989-1.125,7.4,7.4,0,0,1-2.629-3.09,10.344,10.344,0,0,1-.924-4.442,9.947,9.947,0,0,1,.979-4.593,7.621,7.621,0,0,1,2.834-3.173,7.724,7.724,0,0,1,4.17-1.141q4.817,0,6.465,4.231V16.391Zm-7.747,14.38a3.527,3.527,0,0,0,1.03-2.629,3.376,3.376,0,0,0-1-2.533,4.284,4.284,0,0,0-5.459.016A3.42,3.42,0,0,0,177.3,28.2a3.468,3.468,0,0,0,1.018,2.589,3.677,3.677,0,0,0,2.7,1,3.754,3.754,0,0,0,2.736-1.018Z" transform="translate(8.426 -7.172)" fill="#001f26"/>
        <path id="path829" d="M91.133,21.912a3.219,3.219,0,0,0,3.361-3.054,3.376,3.376,0,0,0-6.721,0A3.218,3.218,0,0,0,91.133,21.912Z" transform="translate(4.343 -7.201)" fill="#001f26"/>
        <path id="path831" d="M87.77,23.628a8.539,8.539,0,0,0,6.72,0V36.163H87.77Z" transform="translate(4.343 -6.814)" fill="#001f26"/>
      </g>
    </g>
  </g>
</svg>
