<svg xmlns="http://www.w3.org/2000/svg" width="138.819" height="39.645" viewBox="0 0 138.819 39.645">
  <g id="shopify-2" transform="translate(0 -0.098)">
    <path id="Path_144" data-name="Path 144" d="M15.718,1.353c.278,0,.417.139.7.278-1.669.7-3.338,2.5-4.173,6.4l-3.06.835C10.154,6.082,12.1,1.353,15.718,1.353Zm1.53,1.391A9.7,9.7,0,0,1,17.8,6.082V6.36L13.771,7.473C14.605,4.552,16,3.3,17.248,2.743Zm3.617,2.5L19.056,5.8V5.386a9.56,9.56,0,0,0-.417-3.06C19.613,2.6,20.447,3.856,20.865,5.247Zm9.041,2.226a.3.3,0,0,0-.278-.278c-.278,0-3.2-.278-3.2-.278S24.342,4.83,24.064,4.691c-.278-.278-.7-.139-.835-.139,0,0-.417.139-1.113.417-.7-1.947-1.947-3.756-4.034-3.756h-.139A2.46,2.46,0,0,0,15.857.1C10.85-.038,8.485,6.221,7.65,9.42c-1.113.278-2.226.7-3.477,1.113-1.113.278-1.113.417-1.252,1.391C2.782,12.619,0,34.6,0,34.6L22.116,38.77l11.962-2.643S29.906,7.751,29.906,7.473Z" transform="translate(0 0)" fill="#001f26"/>
    <path id="Path_145" data-name="Path 145" d="M23.272,5.943c-.139,0-3.06-.278-3.06-.278s-2.086-2.086-2.365-2.226c-.139-.139-.139-.139-.278-.139L15.9,37.518l11.962-2.643S23.689,6.5,23.689,6.221c0-.139-.278-.278-.417-.278" transform="translate(6.216 1.252)" fill="#001f26"/>
    <path id="Path_146" data-name="Path 146" d="M16.636,10.162l-1.53,4.451a6.6,6.6,0,0,0-2.921-.7c-2.365,0-2.5,1.391-2.5,1.808,0,1.947,5.286,2.782,5.286,7.511,0,3.756-2.365,6.12-5.564,6.12a7.645,7.645,0,0,1-5.7-2.365l.974-3.338s1.947,1.669,3.617,1.669a1.452,1.452,0,0,0,1.53-1.53c0-2.643-4.312-2.782-4.312-7.094,0-3.617,2.643-7.094,7.789-7.094a5.525,5.525,0,0,1,3.338.556" transform="translate(1.447 3.71)" fill="#001f26"/>
    <path id="Path_147" data-name="Path 147" d="M36.985,19.966c-1.252-.7-1.808-1.252-1.808-1.947,0-.974.835-1.53,2.226-1.53a7.4,7.4,0,0,1,2.921.7l1.113-3.338s-.974-.835-3.895-.835c-4.173,0-6.955,2.365-6.955,5.7,0,1.947,1.391,3.338,3.06,4.312,1.391.835,1.947,1.391,1.947,2.226s-.7,1.669-2.086,1.669a10.071,10.071,0,0,1-3.895-.974L28.5,29.286A8.8,8.8,0,0,0,33.09,30.4c4.173,0,7.233-2.086,7.233-5.842,0-2.086-1.53-3.617-3.338-4.59m16.831-7.094a6.325,6.325,0,0,0-5.007,2.5h0l1.808-9.459H45.887L41.3,29.981h4.729l1.53-8.207c.556-3.06,2.226-5.007,3.756-5.007,1.113,0,1.53.7,1.53,1.808a10.528,10.528,0,0,1-.139,2.086L50.895,30.12h4.729l1.808-9.737a24.981,24.981,0,0,0,.278-3.06c0-2.782-1.391-4.451-3.895-4.451m12.1,13.771c-1.669,0-2.226-1.391-2.226-3.06,0-2.643,1.391-7.094,3.895-7.094,1.669,0,2.226,1.391,2.226,2.782C69.812,22.331,68.421,26.643,65.917,26.643Zm2.365-13.771c-5.7,0-9.459,5.147-9.459,10.85,0,3.617,2.226,6.538,6.538,6.538,5.564,0,9.319-5.007,9.319-10.85C74.68,16.071,72.733,12.872,68.282,12.872Zm13.91,13.91a2.879,2.879,0,0,1-1.947-.7l.835-4.451c.556-2.921,2.086-4.868,3.756-4.868,1.391,0,1.947,1.391,1.947,2.643C86.643,22.47,84.834,26.782,82.191,26.782Zm4.59-13.91a6.473,6.473,0,0,0-5.007,2.782h0l.278-2.5H77.879a57.584,57.584,0,0,1-.974,6.259L73.567,36.658H78.3L79.549,29.7h.139a6.006,6.006,0,0,0,2.782.556c5.564,0,9.18-5.7,9.18-11.406C91.65,15.793,90.259,12.872,86.782,12.872ZM98.327,6.2a2.674,2.674,0,0,0-2.643,2.782,2.156,2.156,0,0,0,2.226,2.365h0a2.626,2.626,0,0,0,2.782-2.782A2.264,2.264,0,0,0,98.327,6.2M91.789,29.981h4.729l3.2-16.692H94.988ZM111.68,13.289h-3.338l.139-.835c.278-1.669,1.252-3.06,2.782-3.06a4.591,4.591,0,0,1,1.53.278l.974-3.756a6.057,6.057,0,0,0-2.5-.417,6.793,6.793,0,0,0-4.59,1.53,8.955,8.955,0,0,0-2.782,5.286l-.139.835h-2.226l-.7,3.617h2.226l-2.5,13.214h4.729l2.5-13.214h3.2Zm11.267,0s-2.921,7.372-4.312,11.406h0c-.139-1.252-1.113-11.406-1.113-11.406h-5.008l2.782,15.3a1.764,1.764,0,0,1-.139.835,8.033,8.033,0,0,1-2.5,2.782,9.76,9.76,0,0,1-2.643,1.391l1.252,4.034a10.1,10.1,0,0,0,4.59-2.5,30.783,30.783,0,0,0,6.12-9.319l5.7-12.38Z" transform="translate(11.143 2.112)" fill="#001f26"/>
  </g>
</svg>
