<svg xmlns="http://www.w3.org/2000/svg" width="108.994" height="33.047" viewBox="0 0 108.994 33.047">
  <g id="Upwork-logo" transform="translate(-5.503 -13.475)">
    <path id="Path_65" data-name="Path 65" d="M76.082,21.118A8.822,8.822,0,1,0,84.835,29.9a8.762,8.762,0,0,0-8.753-8.782Zm.066,14.047a5.121,5.121,0,1,1,5.094-5.143,5.256,5.256,0,0,1-5.094,5.144Zm19.34-9.892a4.509,4.509,0,0,0-4.444,4.595l.04,8.385-3.812.018L87.2,21.608l3.812-.018L91.02,24.2a6.057,6.057,0,0,1,4.888-2.635L97,21.562l.018,3.7ZM57.462,21.75l2.886,11.422,3-11.45,3.812-.017L62.44,38.4l-3.7.017L55.744,26.779,52.858,38.444l-3.7.017-4.978-16.64,3.7-.017,3.32,11.42,2.67-11.448Zm50.675,7.386a8.886,8.886,0,0,0,4.43-7.644l-3.812.018a5.087,5.087,0,0,1-4.986,5.14l-.545,0-.06-13.177-3.812.018.117,24.72,3.81-.017-.036-7.84.435,0a1.024,1.024,0,0,1,.984.54l5.37,7.27,4.465-.02Z"/>
    <path id="Path_66" data-name="Path 66" d="M35.353,21.31c-4.137.02-7.283,2.757-8.46,7.118a38.457,38.457,0,0,1-4.4-9.453l-4.355.02.054,11.543a4.139,4.139,0,1,1-8.277.039L9.86,19.034l-4.357.02L5.557,30.6a8.5,8.5,0,1,0,16.99-.08l-.01-1.96a36.943,36.943,0,0,0,3.183,5.212L23.057,46.522l4.464-.02,1.92-9.266a11,11,0,0,0,6,1.714,8.821,8.821,0,0,0-.083-17.641Zm.062,13.177a7.75,7.75,0,0,1-4.908-1.938l.427-1.743v-.1c.32-1.854,1.282-5.016,4.55-5.03A4.37,4.37,0,0,1,39.861,30a4.634,4.634,0,0,1-4.445,4.486Z"/>
  </g>
</svg>
