<svg xmlns="http://www.w3.org/2000/svg" width="102.18" height="30.731" viewBox="0 0 102.18 30.731">
  <g id="Vice_Logo" transform="translate(-14.434 -10.973)">
    <g id="Group_34" data-name="Group 34" transform="translate(14.912 11.432)">
      <path id="Path_91" data-name="Path 91" d="M231.567,42.161c-.2.255-.8.076-1.035.18C230.61,41.953,231.216,42.176,231.567,42.161Z" transform="translate(-149.702 -30.61)" stroke="#000" stroke-linecap="round" stroke-width="1" fill-rule="evenodd"/>
      <path id="Path_92" data-name="Path 92" d="M154.28,54c3.14-.1,6.082-.551,8.907-.54-1.391.587-2.96,1.1-4.543,1.664a14.038,14.038,0,0,1-4.813,1.215c-.851-.021-2.063-.3-2.159-1.125-.133-1.134.8-2.085,1.44-2.879a20.214,20.214,0,0,1,2.249-2.294C155.1,51.284,154.582,52.655,154.28,54Z" transform="translate(-100.396 -35.569)" stroke="#000" stroke-linecap="round" stroke-width="1" fill-rule="evenodd"/>
      <path id="Path_93" data-name="Path 93" d="M229.179,63a7.39,7.39,0,0,1-2.879.72,23.62,23.62,0,0,1-4.409,0C223.816,63.031,226.835,63.164,229.179,63Z" transform="translate(-144.301 -43.671)" stroke="#000" stroke-linecap="round" stroke-width="1" fill-rule="evenodd"/>
      <path id="Path_94" data-name="Path 94" d="M156.237,34.685c-.77,2.618-1.793,5.374-2.609,8.1,1.3-.029,2.8-.229,4.319-.36,1.326-.115,3.1-.061,4-.675.762-.518.778-1.655,1.35-2.429.343,1.251,1.386,2.941.63,4.139-.556.881-2.39,1.468-3.6,1.89-1.435.5-2.509.917-3.959,1.484a15.272,15.272,0,0,1-4.229,1.215c-2.023.223-4.787-.182-5.038-2.159a3.748,3.748,0,0,1,.495-2.024,16.829,16.829,0,0,1,3.284-4.228c.843-.873,1.7-1.708,2.564-2.474C154.391,36.324,155.338,35.5,156.237,34.685ZM152.5,40.443a20.216,20.216,0,0,0-2.249,2.294c-.64.794-1.573,1.745-1.439,2.879.1.82,1.308,1.1,2.159,1.125a14.047,14.047,0,0,0,4.813-1.215c1.584-.562,3.152-1.078,4.543-1.664-2.825-.011-5.767.445-8.907.54C151.726,43.055,152.244,41.683,152.5,40.443Z" transform="translate(-97.54 -25.968)" stroke="#000" stroke-linecap="round" stroke-width="1" fill-rule="evenodd"/>
      <path id="Path_95" data-name="Path 95" d="M29.03,25.682a2.983,2.983,0,0,0,.99-1.35,8.208,8.208,0,0,0,.72-1.619,7.223,7.223,0,0,0,.045-2.519c-.352-4.509,4.234-5.46,8.052-6.118a27.642,27.642,0,0,1,7.377-.09,5.226,5.226,0,0,0,.99.135c.339-.05.893-.565,1.215-.765a7.273,7.273,0,0,1,2.564-1.08,12.241,12.241,0,0,1,4.094.225A53.748,53.748,0,0,1,66.187,15.56c.059.274-.454.743-.63,1.08a46.973,46.973,0,0,1,9.131-4.274,17.422,17.422,0,0,1,9.9-.09,7.25,7.25,0,0,0,1.259.4,13.031,13.031,0,0,0,1.889-.225c10.08-.85,19.467,2.04,28.07,3.689a16.735,16.735,0,0,1-7.872,6.7c.351.346.751.473,1.035.81a3.46,3.46,0,0,1,.18,3.554c-.523,1.044-1.664,1.643-2.249,2.294,1.842-.108,3.668.228,3.914,1.934a4.933,4.933,0,0,1-1.574,4.049c-2.709,2.854-7.431,3.789-12.011,4.724a48.873,48.873,0,0,1-9.852.99c-2.933.028-7.5-.241-8.772-2.114a2.865,2.865,0,0,1-.4-1.395c-3.547,1.52-7.528,3.123-12.371,3.239-4.982.119-9.529-1.084-11.246-4.454-.816,1.48-1.522,2.97-2.924,3.779-1.6.926-4.465,1.054-6.433.675-2.181-.42-3.858-1.338-4.049-3.6-.189-2.235.714-4.415,1.3-6.253.644-2,1.36-3.825,2.069-5.578a9.567,9.567,0,0,0-2.339,2.564,37.471,37.471,0,0,1-7.422,7.422,31.114,31.114,0,0,1-6.253,3.644c-2.1.873-5.538,2.075-8.142,1.035a2.051,2.051,0,0,1-1.35-2.564c.24-.668,1.068-1.058,1.125-1.8.043-.566-.517-1.313-.855-1.889a45.588,45.588,0,0,1-2.789-5.308c-.984-2.388-2.187-5.762-1.3-8.637.81-2.637,3.093-4.217,5.353-5.488A34.164,34.164,0,0,1,26.2,12.007c1.169-.411,3.207-1.1,4.094.09,1.249,1.676.168,4.93-.27,6.7A27.377,27.377,0,0,0,29.03,25.682Zm26.361-11.7a10.94,10.94,0,0,0-4.408-.225,5.548,5.548,0,0,0-1.754.81c-.383.259-1.037.96-1.529,1.035a11.043,11.043,0,0,1-2.114-.225,24.009,24.009,0,0,0-10.256.99c-1.037.376-2.344.9-2.834,1.889-.575,1.169.139,2.788-.045,4.274a6.2,6.2,0,0,1-.72,1.934,20.826,20.826,0,0,1-2.115,3.194c-.3.4-.951,1.276-1.529,1.17-.4-.074-.584-.78-.63-1.574-.2-3.5.663-6.424,1.26-9.357a15.035,15.035,0,0,0,.494-3.869c-.073-.853-.457-1.2-1.169-1.17a13.1,13.1,0,0,0-3.779,1.35,20.554,20.554,0,0,0-3.284,1.709c-2.015,1.29-3.926,2.945-4.273,5.758-.369,2.989.834,5.638,1.889,7.737a17.536,17.536,0,0,0,1.844,3.149c.635.812,1.925,2.093,1.754,3.284-.125.873-1.881,1.757-1.574,2.654.156.456,1.191.577,2.115.585a13.427,13.427,0,0,0,6.388-1.844,32.329,32.329,0,0,0,6.522-4.409,43.3,43.3,0,0,0,5.488-5.444c1.647-1.984,3.025-4.19,4.723-6.252,1.215,3.289-.026,5.949-1.035,8.322a40.068,40.068,0,0,0-1.395,3.779c-.39,1.239-.95,3.086-.585,4.453.475,1.775,3.13,2.1,5.218,1.934a5.517,5.517,0,0,0,3.554-1.35c1.7-1.664,2.6-4.01,3.644-6.208-.221,3.054,1.023,4.85,3.014,5.938a15.712,15.712,0,0,0,7.467,1.574c5.822,0,10.216-2.2,13.81-4.184a4.487,4.487,0,0,0,.135,2.789c.774,1.46,2.839,1.568,5.083,1.754a35.471,35.471,0,0,0,3.869.135,47.184,47.184,0,0,0,8.187-.945c3.63-.716,7.517-1.8,10.256-3.6a4.449,4.449,0,0,0,2.159-2.474c.62-3.039-2.992-2.139-4.948-1.71-1.5.329-2.99.783-4.273,1.08-2.834.655-6.556,1.507-9.087.36-.386-.175-.947-.46-.945-1.035a1.65,1.65,0,0,1,.675-1.035,7.92,7.92,0,0,1,4.094-1.035c4.026-.3,9.974.355,12.371-2.16a2.928,2.928,0,0,0,.495-3.239c-.553-.9-1.968-1.094-3.239-1.035-3.489.163-6.432,1.612-9.492,1.529-.561-.015-1.63-.006-1.8-.4-.21-.494.313-1.23.585-1.574a3.355,3.355,0,0,1,1.214-1.08,7.285,7.285,0,0,1,2.744,0,31.63,31.63,0,0,0,8.322.135,12.007,12.007,0,0,0,6.882-4.049,2.09,2.09,0,0,0,.63-.855C106.155,15.636,97.821,13.5,89.8,13.625a8.33,8.33,0,0,0-3.734.765c-.871.454-2.109,1.5-1.934,2.7.1.715,1.039,1.24,1.709,1.484.855.312,1.744.431,2.475.765-1.889.343-4.172.887-6.073,1.215.371-.942.862-1.857,1.3-3.014.3-.779,1-2.466.764-3.464-.225-.963-2.067-1.152-3.329-1.17a19.372,19.372,0,0,0-3.824.4c-7.232,1.537-12.734,5.494-17.454,9.4a36.9,36.9,0,0,1,3.374-5.848c.171-.256.446-.569.4-.765A56.183,56.183,0,0,0,55.39,13.986Zm40.351,9.177c.235-.1.839.075,1.035-.18C96.426,23,95.82,22.775,95.742,23.163ZM92.5,31.485a23.62,23.62,0,0,0,4.409,0,7.392,7.392,0,0,0,2.879-.72C97.447,30.926,94.428,30.792,92.5,31.485Z" transform="translate(-14.912 -11.432)" stroke="#000" stroke-linecap="round" stroke-width="1" fill-rule="evenodd"/>
    </g>
  </g>
</svg>
