<svg id="Dropbox_logo_2017" xmlns="http://www.w3.org/2000/svg" width="151.201" height="29.771" viewBox="0 0 151.201 29.771">
  <path id="Path_83" data-name="Path 83" d="M17.539,5.594,8.77,11.189l8.77,5.594L8.77,22.378,0,16.753l8.77-5.594L0,5.594,8.77,0ZM8.724,24.177l8.77-5.594,8.77,5.594-8.77,5.594Zm8.815-7.424,8.77-5.594-8.77-5.564L26.264,0l8.77,5.594-8.77,5.594,8.77,5.594-8.77,5.594Z"/>
  <path id="Path_84" data-name="Path 84" d="M277.2,28.682h7.091c4.521,0,8.256,2.616,8.256,8.588v1.255c0,6.018-3.493,8.724-8.119,8.724H277.2Zm3.961,3.372V43.862H284.2c2.57,0,4.294-1.678,4.294-5.413v-.983c0-3.735-1.814-5.413-4.43-5.413Zm13.487.181h3.175l.514,3.493c.6-2.374,2.147-3.644,4.944-3.644h.983v4.007h-1.633c-3.221,0-4.007,1.119-4.007,4.294v6.91h-3.916V32.235Zm10.4,7.832v-.423c0-5.035,3.221-7.787,7.605-7.787,4.476,0,7.605,2.752,7.605,7.787v.423c0,4.944-3.039,7.605-7.605,7.605C307.8,47.627,305.051,45.027,305.051,40.067Zm11.2-.045v-.378c0-2.8-1.406-4.476-3.644-4.476-2.192,0-3.644,1.542-3.644,4.476v.378c0,2.706,1.406,4.249,3.644,4.249C314.849,44.225,316.255,42.728,316.255,40.022Zm6.063-7.787h3.266l.378,2.843a5.068,5.068,0,0,1,4.944-3.221c3.825,0,6.35,2.752,6.35,7.847v.423c0,4.944-2.8,7.56-6.35,7.56a4.934,4.934,0,0,1-4.808-2.8V52.5h-3.825l.045-20.261Zm10.962,7.787v-.333c0-2.994-1.542-4.476-3.6-4.476-2.192,0-3.644,1.678-3.644,4.476v.287c0,2.661,1.406,4.339,3.6,4.339C331.889,44.271,333.28,42.834,333.28,40.022Zm9.768,4.491-.333,2.752h-3.357V27.2h3.825v7.7a4.936,4.936,0,0,1,4.9-3.039c3.6.045,6.26,2.525,6.26,7.515v.469c0,4.99-2.525,7.847-6.35,7.847A5.012,5.012,0,0,1,343.048,44.513Zm7.273-4.672v-.378c0-2.752-1.5-4.294-3.6-4.294-2.147,0-3.644,1.724-3.644,4.339v.333c0,2.8,1.452,4.43,3.6,4.43C348.975,44.271,350.321,42.834,350.321,39.84Zm5.7.227v-.423c0-5.035,3.221-7.787,7.605-7.787,4.476,0,7.605,2.752,7.605,7.787v.423c0,4.944-3.084,7.605-7.605,7.605C358.773,47.627,356.021,45.027,356.021,40.067Zm11.234-.045v-.378c0-2.8-1.406-4.476-3.644-4.476-2.192,0-3.644,1.542-3.644,4.476v.378c0,2.706,1.406,4.249,3.644,4.249C365.864,44.225,367.255,42.728,367.255,40.022Zm9.1-.559-5.277-7.227H375.6l3.039,4.521,3.085-4.521H386.2l-5.353,7.182,5.64,7.847h-4.43l-3.447-4.99-3.357,4.99h-4.627Z" transform="translate(-235.287 -23.087)"/>
</svg>
