<svg id="NCR_logo_black" xmlns="http://www.w3.org/2000/svg" width="119.096" height="34.191" viewBox="0 0 119.096 34.191">
  <path id="Path_85" data-name="Path 85" d="M112.172,24.085a7.175,7.175,0,0,1-.239-1.526V12.394H116V31.972L102.971,21.18a6.067,6.067,0,0,1-1.11-1.254,5.914,5.914,0,0,1,.207,1.361l0,10.243H97.991v-19.5L110.9,22.6a7.757,7.757,0,0,1,1.268,1.48" transform="translate(-39.639 -4.866)"/>
  <path id="Path_86" data-name="Path 86" d="M176.967,12.645c6.451,0,8.1,2.544,8.1,6.2,0,2.65-1.951,5.246-5.887,5.553l-.431.021a1.667,1.667,0,0,1,.778.45l7.142,6.909h-5.519l-9.971-10.124h4.965c4.447,0,4.576-2.343,4.607-2.934.083-1.521-.4-2.737-3.794-2.737h-5.677V31.778h-4.23V12.645Z" transform="translate(-67.575 -5.115)"/>
  <path id="Path_87" data-name="Path 87" d="M131.315,22.293c0-8.016,6.709-10.122,12.349-10.122a29.763,29.763,0,0,1,6.362.648l.006,4.065a21.243,21.243,0,0,0-6.367-1.189c-5.347,0-7.943,2.077-7.943,6.6,0,3.7,2.8,6.061,7.943,6.061a21.783,21.783,0,0,0,6.781-1.137l-.008,3.943a33.872,33.872,0,0,1-6.773.718c-6.024,0-12.35-2.927-12.35-9.585" transform="translate(-53.119 -4.923)"/>
  <path id="Path_88" data-name="Path 88" d="M43.851,13.471l3.97,3.739c-.108.048-.233.108-.381.182a7.663,7.663,0,0,0-.832.507,16.033,16.033,0,0,0-2.6,2.345l-7.759,8.211a14.1,14.1,0,0,1-3.937,3.108l-3.972-3.74c.108-.051.233-.107.378-.184a7.745,7.745,0,0,0,.832-.5,16.3,16.3,0,0,0,2.6-2.347l7.757-8.2a14.194,14.194,0,0,1,3.942-3.12" transform="translate(-11.465 -5.449)"/>
  <path id="Path_89" data-name="Path 89" d="M17.018,27.923a10.1,10.1,0,0,0,4.463-.915,13.08,13.08,0,0,0,1.828-1.189,20.648,20.648,0,0,0,2.212-2l7.767-8.188c1.959-2.063,3.136-2.7,3.851-2.951l3.984,3.774C40.291,17.343,30.376,27.9,30.376,27.9c-.676.73-1.388,1.435-1.872,1.878-.465.429-1.261,1.068-1.672,1.368a15.849,15.849,0,0,1-9.641,3.094C7.686,34.244,0,26.508,0,17.6,0,6.55,8.634.137,16.5.137a16.483,16.483,0,0,1,5.874.853,22.753,22.753,0,0,1,3.254,1.457,17.523,17.523,0,0,0-3.26,2.945L20.77,7.105a11.085,11.085,0,0,0-4.082-.645A10.646,10.646,0,0,0,6.323,17.408,10.78,10.78,0,0,0,17.018,27.923" transform="translate(0 -0.052)"/>
  <path id="Path_90" data-name="Path 90" d="M39.9,7.236a13.377,13.377,0,0,0-1.832,1.189,21.222,21.222,0,0,0-2.212,2l-7.765,8.19c-1.959,2.063-3.137,2.7-3.851,2.949l-3.984-3.77C21.087,16.9,31,6.342,31,6.342c.678-.73,1.388-1.435,1.872-1.88.465-.429,1.261-1.065,1.675-1.368A15.839,15.839,0,0,1,44.189,0c9.5,0,17.186,7.737,17.186,16.642,0,11.054-8.632,17.463-16.5,17.463a16.329,16.329,0,0,1-5.871-.856,22.6,22.6,0,0,1-3.26-1.457,18.149,18.149,0,0,0,3.266-2.94L40.6,27.14a11.189,11.189,0,0,0,4.084.645A10.653,10.653,0,0,0,55.054,16.833a10.786,10.786,0,0,0-10.7-10.513,10.083,10.083,0,0,0-4.46.917" transform="translate(-8.193)"/>
</svg>
