<svg xmlns="http://www.w3.org/2000/svg" width="174.152" height="31.697" viewBox="0 0 174.152 31.697">
  <g id="g853" transform="translate(0)">
    <g id="g847" transform="translate(0 7.651)">
      <path id="path841" d="M3.611,17.4A3.625,3.625,0,0,1,.452,15.568a3.5,3.5,0,0,1,.1-3.608l6.5-10.215a3.643,3.643,0,0,1,6.319.171,3.5,3.5,0,0,1-.2,3.6l-6.5,10.215A3.626,3.626,0,0,1,3.611,17.4Z" transform="translate(0 0.001)"/>
      <path id="path843" d="M33.542,17.4a3.614,3.614,0,0,1-3.153-1.829,3.494,3.494,0,0,1,.1-3.6L36.98,1.784a3.64,3.64,0,0,1,6.342.145,3.494,3.494,0,0,1-.234,3.619L36.6,15.739A3.62,3.62,0,0,1,33.542,17.4Z" transform="translate(-18.774 0)"/>
      <ellipse id="ellipse845" cx="3.349" cy="3.279" rx="3.349" ry="3.279" transform="translate(22.327 10.93)"/>
    </g>
    <path id="path849" d="M411.345,48.036c1.012,0,1.617.719,1.617,1.9v4.038h1.374v-4.13c0-2-.944-3.166-2.719-3.166a2.6,2.6,0,0,0-2.454,1.468,2.25,2.25,0,0,0-1.843-1.392,3.17,3.17,0,0,0-.772-.045A2.479,2.479,0,0,0,404.6,47.9V46.829h-1.375v7.143H404.6V50.117a1.88,1.88,0,0,1,1.964-2.081c.921,0,1.526.7,1.526,1.883v4.053h1.367V50.117a1.882,1.882,0,0,1,1.888-2.081Zm-13.168,4.742a2.26,2.26,0,0,0,1.674-.692,2.331,2.331,0,0,0,.652-1.709,2.326,2.326,0,1,0-4.653,0,2.324,2.324,0,0,0,.648,1.7,2.262,2.262,0,0,0,1.668.7Zm0,1.34a3.615,3.615,0,0,1-3.687-3.749,3.693,3.693,0,1,1,7.387,0,3.64,3.64,0,0,1-3.71,3.755Zm-10.763-3.749-.014.008a3.76,3.76,0,0,1,6.464-2.563l-1.042.888a2.348,2.348,0,0,0-1.677-.673,2.291,2.291,0,0,0-2.37,2.34,2.4,2.4,0,0,0,1.464,2.219,2.349,2.349,0,0,0,2.584-.521l1.057.888a3.75,3.75,0,0,1-6.465-2.585Zm-4.4,2.231a.941.941,0,1,1,.94.9.951.951,0,0,1-.94-.9Z" transform="translate(-240.184 -29.264)"/>
    <path id="path851" d="M206.636,8.484h-4.894l-3.43,8.844L194.9,8.484h-4.894l5.949,13.974-3.7,9.239h4.858Zm-29.762,7.773a3.8,3.8,0,0,0,3.868,3.7,3.7,3.7,0,1,0,0-7.408,3.8,3.8,0,0,0-3.868,3.7Zm7.6,7.8V22.291c-.992,1.5-3.308,2.07-4.5,2.07a7.911,7.911,0,0,1-7.868-8.106,7.909,7.909,0,0,1,7.868-8.1,5.647,5.647,0,0,1,4.5,2.067V8.489h4.562V24.062h-4.562Zm-13.662,0h-4.562V22.125a5.076,5.076,0,0,1-4.529,2.268c-3.968,0-7.472-3.168-7.472-8.075,0-5,3.5-8.171,7.472-8.171a5.049,5.049,0,0,1,4.529,2.234V0h4.562Zm-4.661-7.839a3.573,3.573,0,1,0-7.142,0,3.55,3.55,0,0,0,3.571,3.768,3.608,3.608,0,0,0,3.571-3.768Zm-23.18-.4c0-2.368,1.224-3.168,2.843-3.168,1.553,0,2.678,1.034,2.678,3.1v8.306h4.595V14.752c0-4.435-2.183-6.6-5.655-6.6a5.145,5.145,0,0,0-4.462,2.6V8.484H138.38V24.057h4.593ZM129.05,24.324a7.827,7.827,0,0,1-8-8.1,8.019,8.019,0,1,1,16.037,0,7.852,7.852,0,0,1-8.035,8.106Zm0-4.534a3.43,3.43,0,0,0,3.5-3.569,3.44,3.44,0,0,0-3.5-3.536,3.4,3.4,0,0,0-2.483,1.021,3.463,3.463,0,0,0-.988,2.515A3.422,3.422,0,0,0,129.05,19.79Zm-16.24-7.139c1.355,0,2.545,1.068,2.545,3.1V24.06h4.562V15.215c0-4.7-2.286-7.07-5.951-7.07a5.274,5.274,0,0,0-4.628,2.767c-.86-1.8-2.512-2.736-4.954-2.736a4.414,4.414,0,0,0-4.032,2.569V8.485h-4.6V24.058h4.593v-8.24c0-2.368,1.29-3.168,2.678-3.168,1.323,0,2.511,1.034,2.545,3v8.407h4.595v-8.24c0-2.264,1.191-3.166,2.645-3.166Z" transform="translate(-60.046)" fill-rule="evenodd"/>
  </g>
</svg>
