<svg xmlns="http://www.w3.org/2000/svg" xmlns:xlink="http://www.w3.org/1999/xlink" width="172.504" height="33.048" viewBox="0 0 172.504 33.048">
  <defs>
    <clipPath id="clip-path">
      <rect id="rect837" width="172.504" height="33.048"/>
    </clipPath>
  </defs>
  <g id="layer1" transform="translate(-5.831 -135.199)">
    <g id="g866" transform="translate(5.831 135.199)">
      <g id="g835" transform="translate(0 0)" clip-path="url(#clip-path)">
        <g id="g833" clip-path="url(#clip-path)">
          <path id="path815" d="M36.507,10.375a35.341,35.341,0,0,0-8.891-2.768,25.72,25.72,0,0,0-1.139,2.342,32.952,32.952,0,0,0-9.854,0,24.939,24.939,0,0,0-1.152-2.342,35.223,35.223,0,0,0-8.9,2.775A36.673,36.673,0,0,0,.183,35.116a35.675,35.675,0,0,0,10.9,5.535,26.819,26.819,0,0,0,2.335-3.81,23.057,23.057,0,0,1-3.678-1.773c.308-.226.61-.463.9-.707a25.344,25.344,0,0,0,21.8,0c.295.244.6.48.9.707a23,23,0,0,1-3.685,1.777A26.7,26.7,0,0,0,32,40.655a35.6,35.6,0,0,0,10.911-5.539A36.641,36.641,0,0,0,36.507,10.375ZM14.389,30.136a4.159,4.159,0,0,1-3.874-4.366A4.137,4.137,0,0,1,14.389,21.4a4.11,4.11,0,0,1,3.874,4.369A4.131,4.131,0,0,1,14.389,30.136Zm14.318,0a4.159,4.159,0,0,1-3.874-4.366A4.137,4.137,0,0,1,28.707,21.4a4.11,4.11,0,0,1,3.874,4.369A4.134,4.134,0,0,1,28.707,30.136Z" transform="translate(0 -7.607)"/>
          <path id="path817" d="M63.984,16.921h9.254A13.623,13.623,0,0,1,78.9,17.978a7.617,7.617,0,0,1,3.464,2.939,8.114,8.114,0,0,1,1.152,4.311,7.994,7.994,0,0,1-1.2,4.308,8.128,8.128,0,0,1-3.654,3.059,14.573,14.573,0,0,1-6.088,1.128h-8.59Zm8.494,12.532a4.872,4.872,0,0,0,3.464-1.139,4.07,4.07,0,0,0,1.21-3.111,3.965,3.965,0,0,0-1.078-2.915,4.4,4.4,0,0,0-3.261-1.094H69.919v8.259Z" transform="translate(-6.071 -8.491)"/>
          <path id="path819" d="M100.506,33.927a12.463,12.463,0,0,1-3.464-1.464V28.477a9.519,9.519,0,0,0,3.122,1.5,13.165,13.165,0,0,0,3.786.586,2.893,2.893,0,0,0,1.291-.226c.292-.151.438-.333.438-.542a.816.816,0,0,0-.237-.6,2.037,2.037,0,0,0-.925-.408l-2.848-.648a7.308,7.308,0,0,1-3.474-1.6,3.851,3.851,0,0,1-.129-5.1,5.734,5.734,0,0,1,2.562-1.595,12.082,12.082,0,0,1,3.891-.566,14.51,14.51,0,0,1,3.654.432,10.081,10.081,0,0,1,2.752,1.1v3.769a10.168,10.168,0,0,0-2.576-1.07,11.407,11.407,0,0,0-3-.394q-2.232,0-2.23.768a.576.576,0,0,0,.346.538,5.667,5.667,0,0,0,1.268.374l2.373.432a6.937,6.937,0,0,1,3.464,1.427,3.834,3.834,0,0,1,1.139,3.015,4,4,0,0,1-1.885,3.471,9.443,9.443,0,0,1-5.352,1.286,15.712,15.712,0,0,1-3.962-.508Z" transform="translate(-9.208 -8.715)"/>
          <path id="path821" d="M119,33.423a7.133,7.133,0,0,1-3.071-2.737A7.47,7.47,0,0,1,114.9,26.8a6.939,6.939,0,0,1,4.2-6.54,11.493,11.493,0,0,1,4.935-.971,10.713,10.713,0,0,1,5.908,1.512v4.393a7.366,7.366,0,0,0-1.932-.936,7.564,7.564,0,0,0-2.362-.36,6.242,6.242,0,0,0-3.451.816,2.464,2.464,0,0,0-1.247,2.137,2.493,2.493,0,0,0,1.21,2.126,6.2,6.2,0,0,0,3.512.83,8.134,8.134,0,0,0,2.339-.346,8.653,8.653,0,0,0,1.98-.854v4.249a11.421,11.421,0,0,1-6.051,1.585A11.149,11.149,0,0,1,119,33.423Z" transform="translate(-10.903 -8.715)"/>
          <path id="path823" d="M137.616,33.422a7.215,7.215,0,0,1-4.213-6.674,7,7,0,0,1,1.081-3.855,7.261,7.261,0,0,1,3.122-2.655,12.8,12.8,0,0,1,9.728,0,7.2,7.2,0,0,1,3.109,2.641,7.051,7.051,0,0,1,1.068,3.865,7.185,7.185,0,0,1-4.19,6.674,12.2,12.2,0,0,1-9.7,0Zm7.21-4.26a3.151,3.151,0,0,0,.868-2.315,3.056,3.056,0,0,0-.868-2.291,3.21,3.21,0,0,0-2.359-.854,3.255,3.255,0,0,0-2.387.854,3.073,3.073,0,0,0-.864,2.291,3.151,3.151,0,0,0,.864,2.315,3.645,3.645,0,0,0,4.746,0Z" transform="translate(-12.658 -8.714)"/>
          <path id="path825" d="M167.892,20.2v5.186a4.159,4.159,0,0,0-2.349-.6,3.675,3.675,0,0,0-2.919,1.163,5.379,5.379,0,0,0-1.02,3.615v4.417H155.79V19.939h5.695V24.4a7.448,7.448,0,0,1,1.532-3.615,3.5,3.5,0,0,1,2.715-1.163A3.933,3.933,0,0,1,167.892,20.2Z" transform="translate(-14.783 -8.747)"/>
          <path id="path827" d="M188.584,16.391V33.676H182.77V30.531a5.579,5.579,0,0,1-2.24,2.7,7,7,0,0,1-3.715.923,6.088,6.088,0,0,1-3.441-.971,6.382,6.382,0,0,1-2.267-2.665,8.921,8.921,0,0,1-.8-3.831,8.579,8.579,0,0,1,.844-3.961,6.573,6.573,0,0,1,2.444-2.737,6.661,6.661,0,0,1,3.6-.984,5.449,5.449,0,0,1,5.576,3.649V16.391Zm-6.681,12.4a3.041,3.041,0,0,0,.888-2.267,2.912,2.912,0,0,0-.864-2.185,3.695,3.695,0,0,0-4.708.014,2.949,2.949,0,0,0-.878,2.219,2.991,2.991,0,0,0,.878,2.233,3.171,3.171,0,0,0,2.325.864,3.238,3.238,0,0,0,2.36-.878Z" transform="translate(-16.16 -8.44)"/>
          <path id="path829" d="M90.671,21.071a2.776,2.776,0,0,0,2.9-2.634,2.912,2.912,0,0,0-5.8,0A2.775,2.775,0,0,0,90.671,21.071Z" transform="translate(-8.329 -8.385)"/>
          <path id="path831" d="M87.77,23.628a7.364,7.364,0,0,0,5.8,0v10.81h-5.8Z" transform="translate(-8.328 -9.127)"/>
        </g>
      </g>
    </g>
  </g>
</svg>
