<svg xmlns="http://www.w3.org/2000/svg" width="109.519" height="25.033" viewBox="0 0 109.519 25.033">
  <path id="path1112" d="M96.848,0A12.6,12.6,0,0,0,84.177,12.517a12.672,12.672,0,0,0,25.342,0A12.6,12.6,0,0,0,96.848,0ZM0,1V5.061H9.465V20.011H0v4.056H23.024V20.011H13.6V5.061h9.426V1ZM29.128,1V24.028H40.176c7.147-.077,12.053-5.1,12.053-11.55C52.229,6.1,47.4,1.2,40.369,1ZM57.251,1V24.067H80.507V20.011H61.423V14.564H76.3V10.507H61.423V5.061H80.507V1Zm39.6,3.361a8.269,8.269,0,0,1,8.306,8.189,8.306,8.306,0,0,1-16.611,0,8.244,8.244,0,0,1,8.306-8.189Zm-63.586.618h6.992a7.306,7.306,0,0,1,7.495,7.572,7.294,7.294,0,0,1-7.572,7.533H33.261Z"/>
</svg>
