<svg xmlns="http://www.w3.org/2000/svg" width="85.277" height="46.456" viewBox="0 0 85.277 46.456">
  <g id="ABM_Industries_logo_2018" transform="translate(-651.557 -100.174)">
    <path id="Path_67" data-name="Path 67" d="M729.668,110.22a5.023,5.023,0,1,1,5.02-5.022A5.03,5.03,0,0,1,729.668,110.22Z" transform="translate(-13.182 0)"/>
    <path id="Path_68" data-name="Path 68" d="M690.432,130.136c1.776,0,3.1-.7,3.1-2.265,0-1.67-1.4-2.3-3.1-2.3h-4.96v4.562Zm-.239-7.95c1.493,0,2.6-.625,2.6-2.049,0-1.266-.915-2.056-2.6-2.056h-4.721v4.1Zm9.6,6.169c0,3.447-2.563,5.532-7.37,5.532H679.6V119.824c0-3.106,1.788-5.49,5.681-5.49h6.6c4.564,0,6.751,1.837,6.751,4.97a4.3,4.3,0,0,1-3.148,4.111v.132A5.04,5.04,0,0,1,699.792,128.356ZM664.53,118.4l-3.264,7.658H668l-3.263-7.658Zm4.332-4.062,9.316,19.553h-6.946l-1.753-4.187h-9.686l-1.755,4.187h-6.482s4.64-9.623,6.232-13.141c1.867-4.133,3.461-6.413,7.338-6.413Zm62.411,19.553h-5.441l-1.287-11.79h-.287l-4.111,11.79h-7.308l-4.113-11.79h-.288l-1.283,11.79h-5.441s1.092-9.917,1.533-13.93c.413-3.728,2.364-5.624,5.8-5.624h2.466l4.871,13.754h.21l4.867-13.754h2.445c3.425,0,5.38,1.9,5.807,5.632C730.159,123.821,731.273,133.887,731.273,133.887Z" transform="translate(0 -2.554)"/>
    <path id="Path_69" data-name="Path 69" d="M686.688,151.788h1.288c1.019,0,1.217-.52,1.217-1.021,0-.718-.319-1.036-1.2-1.036h-1.3Zm1.235-4.755h-1.235v1.832h1.3c.794,0,.995-.466.995-.917S688.83,147.033,687.923,147.033Zm-2.152-.863h2.119c1.554,0,2.074.8,2.074,1.778a1.608,1.608,0,0,1-.632,1.288,1.633,1.633,0,0,1,.839,1.53c0,1.047-.569,1.885-2.229,1.885h-2.17" transform="translate(-6.171 -8.296)"/>
    <path id="Path_70" data-name="Path 70" d="M693.126,151.864c0,.407.3.555.7.555a2.32,2.32,0,0,0,1-.209v-3.4h.891v4.322h-.6l-.087-.243a2.228,2.228,0,0,1-1.21.354c-1.062,0-1.589-.517-1.589-1.39V148.8h.889" transform="translate(-7.337 -8.771)"/>
    <path id="Path_71" data-name="Path 71" d="M698.921,152.787c-.684,0-1.047-.275-1.047-1.046v-3.388h.874v3.413c0,.157.087.2.336.2v.82Zm-.6-6.483a.6.6,0,1,1-.606.606A.6.6,0,0,1,698.317,146.3Z" transform="translate(-8.324 -8.32)"/>
    <path id="Path_72" data-name="Path 72" d="M701.688,152.763c-.682,0-1.046-.275-1.046-1.046v-5.55h.873v5.575c0,.157.087.2.339.2v.82" transform="translate(-8.853 -8.295)"/>
    <path id="Path_73" data-name="Path 73" d="M705.029,149.038c-.846,0-.976.665-.976,1.452s.13,1.454.976,1.454a2.131,2.131,0,0,0,.975-.209v-2.5a1.6,1.6,0,0,0-.319-.112A2.6,2.6,0,0,0,705.029,149.038Zm1.849,3.614H706.3l-.087-.243a2.41,2.41,0,0,1-1.184.354c-1.462,0-1.877-.916-1.877-2.274s.415-2.272,1.877-2.272a2.25,2.25,0,0,1,.975.232V146.17h.874" transform="translate(-9.305 -8.296)"/>
    <path id="Path_74" data-name="Path 74" d="M710.133,152.787c-.684,0-1.047-.275-1.047-1.046v-3.388h.871v3.413c0,.157.089.2.339.2v.82Zm-.606-6.483a.6.6,0,1,1-.606.606A.6.6,0,0,1,709.528,146.3Z" transform="translate(-10.346 -8.32)"/>
    <path id="Path_75" data-name="Path 75" d="M714.447,150.041c0-.4-.3-.552-.7-.552a2.321,2.321,0,0,0-1,.208V153.1h-.891V148.78h.6l.084.242a2.234,2.234,0,0,1,1.21-.354c1.065,0,1.592.517,1.592,1.391V153.1h-.891" transform="translate(-10.874 -8.746)"/>
    <path id="Path_76" data-name="Path 76" d="M718.99,151.217c.794,0,.891-.415.891-.863s-.1-.866-.891-.866-.882.415-.882.866S718.2,151.217,718.99,151.217Zm-.26,2.03c-.457.15-.82.364-.82.72,0,.468.364.586,1.08.586s1.367-.156,1.367-.708c0-.3-.13-.425-.5-.466Zm.26-1.207c-.1,0-.207,0-.3-.01-.1.069-.216.173-.216.259,0,.1.045.138.157.156l1.373.163c.8.094,1.245.433,1.245,1.238,0,1.088-1.054,1.53-2.256,1.53-1.226,0-1.961-.417-1.961-1.408a1.166,1.166,0,0,1,.725-1.047v-.01a.8.8,0,0,1-.155-.51.844.844,0,0,1,.3-.621,1.574,1.574,0,0,1-.641-1.426,1.517,1.517,0,0,1,1.729-1.686,2.566,2.566,0,0,1,.779.112h1.393v.586l-.588.166a2.142,2.142,0,0,1,.145.822A1.513,1.513,0,0,1,718.99,152.04Z" transform="translate(-11.808 -8.746)"/>
    <path id="Path_77" data-name="Path 77" d="M728.956,146.167h.993l-2.3,6.6h-.631l-2.3-6.6h1l1.625,5.075" transform="translate(-13.195 -8.295)"/>
    <path id="Path_78" data-name="Path 78" d="M732.228,151.079c-.543.052-.7.354-.7.657s.069.657.7.657a2.073,2.073,0,0,0,.986-.27v-1.131Zm.191-1.591a4.841,4.841,0,0,0-1.477.26v-.823a4.63,4.63,0,0,1,1.477-.257c1.334,0,1.678.606,1.678,1.5V153.1h-.6l-.079-.222a2.473,2.473,0,0,1-1.21.336,1.379,1.379,0,0,1-1.574-1.477c0-.684.321-1.288,1.6-1.393l.976-.079v-.084C733.214,149.712,733.041,149.488,732.419,149.488Z" transform="translate(-14.263 -8.746)"/>
    <path id="Path_79" data-name="Path 79" d="M737.328,152.763c-.682,0-1.046-.275-1.046-1.046v-5.55h.873v5.575c0,.157.084.2.339.2v.82" transform="translate(-15.281 -8.295)"/>
    <path id="Path_80" data-name="Path 80" d="M739.736,151.864c0,.407.3.555.7.555a2.309,2.309,0,0,0,1-.209v-3.4h.891v4.322h-.6l-.087-.243a2.238,2.238,0,0,1-1.21.354c-1.064,0-1.591-.517-1.591-1.39V148.8h.891" transform="translate(-15.743 -8.771)"/>
    <path id="Path_81" data-name="Path 81" d="M745.206,150.586h1.824c-.007-.57-.1-1.1-.8-1.1C745.482,149.488,745.265,149.965,745.206,150.586Zm.008.769c.069.6.32,1.039,1.011,1.039a3.347,3.347,0,0,0,1.487-.313v.84a3.513,3.513,0,0,1-1.487.293c-1.462,0-1.928-.907-1.928-2.274s.466-2.272,1.928-2.272c1.512,0,1.721,1.062,1.721,2.272v.415" transform="translate(-16.726 -8.746)"/>
    <path id="Path_82" data-name="Path 82" d="M752.635,135.61h.333c.284,0,.59-.016.59-.356,0-.264-.24-.34-.461-.34h-.462Zm0,1.135h-.257v-2.061h.793c.466,0,.648.2.648.57a.555.555,0,0,1-.517.586l.613.9h-.293l-.616-.9h-.371Zm.39.5a1.528,1.528,0,1,0-1.527-1.528A1.525,1.525,0,0,0,753.025,137.248Zm0-3.316a1.788,1.788,0,1,1-1.787,1.788A1.79,1.79,0,0,1,753.025,133.932Z" transform="translate(-17.978 -6.088)"/>
  </g>
</svg>
