<svg xmlns="http://www.w3.org/2000/svg" width="67.268" height="113.437" viewBox="0 0 67.268 113.437">
  <g id="B-Corp-Logo-Tagline-Lockup-Standards-Black-RGB" transform="translate(-65.3 -59.8)">
    <g id="B_Corp_logo" transform="translate(65.3 59.8)">
      <g id="Group_8" data-name="Group 8" transform="translate(0 0)">
        <path id="Path_8" data-name="Path 8" d="M153.427,232.224H166.21c4.395,0,7.183-2.694,7.183-6.876,0-4.985-4.017-6.379-8.317-6.379H153.427Zm0-17.532h10.207c5.789,0,8.152-2.1,8.152-6.12,0-5.316-3.757-6.072-8.152-6.072H153.427Zm-5.1-16.492h13.893c3.379,0,7.844,0,10.136,1.394a9.081,9.081,0,0,1,4.513,7.986,8.826,8.826,0,0,1-5.694,8.577v.118c4.726.969,7.3,4.513,7.3,9.238,0,5.623-4.017,11.01-11.648,11.01H148.3l.024-38.324Z" transform="translate(-128.689 -165.499)"/>
        <path id="Path_9" data-name="Path 9" d="M99.375,137.2a33.575,33.575,0,1,0,33.575,33.575A33.569,33.569,0,0,0,99.375,137.2m29.156,33.6a29.145,29.145,0,1,1-29.156-29.133A29.157,29.157,0,0,1,128.531,170.8" transform="translate(-65.682 -118.912)"/>
        <rect id="Rectangle_16" data-name="Rectangle 16" width="67.008" height="4.395" transform="translate(0.189 92.526)"/>
        <path id="Path_10" data-name="Path 10" d="M331.465,424.105a3,3,0,0,1,.425-.638,2.317,2.317,0,0,1,.638-.425,2.215,2.215,0,0,1,1.559,0,1.6,1.6,0,0,1,.614.425,1.683,1.683,0,0,1,.425.638,1.746,1.746,0,0,1,.165.8,1.884,1.884,0,0,1-.165.8,2.316,2.316,0,0,1-.425.638,1.8,1.8,0,0,1-.614.425,2.081,2.081,0,0,1-.78.142,2.268,2.268,0,0,1-.78-.142,1.888,1.888,0,0,1-.638-.425,1.683,1.683,0,0,1-.425-.638,1.746,1.746,0,0,1-.165-.8,1.813,1.813,0,0,1,.165-.8m.331,1.465a1.212,1.212,0,0,0,.354.543,1.564,1.564,0,0,0,.52.354,1.461,1.461,0,0,0,.638.118,1.8,1.8,0,0,0,.638-.118,2.02,2.02,0,0,0,.52-.354,1.8,1.8,0,0,0,.354-.543,1.61,1.61,0,0,0,.118-.685,1.939,1.939,0,0,0-.118-.662,1.356,1.356,0,0,0-.354-.543,2.021,2.021,0,0,0-.52-.354,1.461,1.461,0,0,0-.638-.118,1.8,1.8,0,0,0-.638.118,1.683,1.683,0,0,0-.52.354,1.8,1.8,0,0,0-.354.543,1.567,1.567,0,0,0-.118.662,1.975,1.975,0,0,0,.118.685m1.654-1.819a.909.909,0,0,1,.614.165.61.61,0,0,1,.213.5.621.621,0,0,1-.189.473.852.852,0,0,1-.449.165l.662,1.04h-.378l-.638-1.016h-.378v1.016h-.354v-2.339Zm-.165,1.04h.236a.445.445,0,0,0,.189-.047.626.626,0,0,0,.142-.118.472.472,0,0,0,.047-.213.445.445,0,0,0-.047-.189.285.285,0,0,0-.118-.118.342.342,0,0,0-.165-.047h-.662v.732Z" transform="translate(-268.451 -337.108)"/>
        <path id="Path_11" data-name="Path 11" d="M73.77,63.344a2.638,2.638,0,0,0-.591-.662,2.944,2.944,0,0,0-.8-.449,3.176,3.176,0,0,0-.945-.165,3.139,3.139,0,0,0-1.536.354,2.942,2.942,0,0,0-1.016.921,4.153,4.153,0,0,0-.567,1.323,6.666,6.666,0,0,0-.189,1.536,5.253,5.253,0,0,0,.189,1.489,4.025,4.025,0,0,0,.567,1.3,2.941,2.941,0,0,0,1.016.921,3.076,3.076,0,0,0,1.536.354,2.526,2.526,0,0,0,1.914-.756,3.481,3.481,0,0,0,.851-1.961H76.77a6.26,6.26,0,0,1-.52,2.056,5.043,5.043,0,0,1-1.11,1.559,4.952,4.952,0,0,1-1.63.992,5.689,5.689,0,0,1-2.056.331,6.076,6.076,0,0,1-2.5-.5,5.357,5.357,0,0,1-1.867-1.323A5.988,5.988,0,0,1,65.9,68.684a6.967,6.967,0,0,1-.4-2.457,7.984,7.984,0,0,1,.4-2.528,5.82,5.82,0,0,1,1.181-2.032A5.709,5.709,0,0,1,68.95,60.3a6.076,6.076,0,0,1,2.5-.5,6.2,6.2,0,0,1,1.89.284,5,5,0,0,1,1.607.851,4.638,4.638,0,0,1,1.725,3.237H74.1a2.884,2.884,0,0,0-.331-.827" transform="translate(-65.453 -59.8)"/>
        <path id="Path_12" data-name="Path 12" d="M120.742,76.416a1.735,1.735,0,0,0-1.323-.473,2.358,2.358,0,0,0-.969.189,1.589,1.589,0,0,0-.614.5,1.735,1.735,0,0,0-.331.614,3.045,3.045,0,0,0-.118.567h3.922a2.363,2.363,0,0,0-.567-1.394m-2.717,4.607a2.11,2.11,0,0,0,1.559.52,2.02,2.02,0,0,0,1.252-.378,1.389,1.389,0,0,0,.638-.78H123.6a4.092,4.092,0,0,1-1.559,2.268,4.483,4.483,0,0,1-2.552.685,5.152,5.152,0,0,1-1.867-.331,4.146,4.146,0,0,1-1.418-.945,4.367,4.367,0,0,1-.9-1.465,5.551,5.551,0,0,1,.024-3.71,4.07,4.07,0,0,1,.921-1.465,4.207,4.207,0,0,1,1.418-.969,4.544,4.544,0,0,1,1.819-.354,4.283,4.283,0,0,1,1.961.425,4.077,4.077,0,0,1,1.37,1.158,4.857,4.857,0,0,1,.78,1.654,5.965,5.965,0,0,1,.165,1.961h-6.332a2.38,2.38,0,0,0,.591,1.725" transform="translate(-103.257 -70.721)"/>
        <path id="Path_13" data-name="Path 13" d="M158.992,74.436v1.63h.024a3.045,3.045,0,0,1,.449-.756,3.123,3.123,0,0,1,.662-.591,3.556,3.556,0,0,1,.8-.378,2.712,2.712,0,0,1,.874-.142,1.429,1.429,0,0,1,.52.095v2.245a2.081,2.081,0,0,0-.4-.047c-.142,0-.307-.024-.449-.024a2.586,2.586,0,0,0-1.11.213,1.861,1.861,0,0,0-.732.614,2.228,2.228,0,0,0-.4.9,5.337,5.337,0,0,0-.118,1.11v3.946H156.7V74.436Z" transform="translate(-135.104 -70.798)"/>
        <path id="Path_14" data-name="Path 14" d="M189.647,66.723v1.607h-1.772v4.347a1.091,1.091,0,0,0,.213.8,1.129,1.129,0,0,0,.8.213,1.909,1.909,0,0,0,.378-.024c.118-.024.236-.024.354-.047v1.867c-.213.024-.425.047-.685.071s-.5.024-.732.024a7.528,7.528,0,0,1-1.063-.071,2.538,2.538,0,0,1-.874-.284,1.6,1.6,0,0,1-.614-.638,2.367,2.367,0,0,1-.213-1.063V68.353H184V66.746h1.465V64.1h2.41v2.623Z" transform="translate(-155.954 -63.084)"/>
        <path id="Path_15" data-name="Path 15" d="M216.21,73.221H213.8V64.431h2.41ZM213.8,61.1h2.41v1.985H213.8Z" transform="translate(-178.713 -60.793)"/>
        <path id="Path_16" data-name="Path 16" d="M228.1,66.062V64.455h1.441V63.77a2.582,2.582,0,0,1,.732-1.914,2.984,2.984,0,0,1,2.2-.756,5.758,5.758,0,0,1,.638.024c.213.024.425.024.614.047v1.8a5.28,5.28,0,0,0-.874-.047.887.887,0,0,0-.709.236,1.14,1.14,0,0,0-.213.78v.52h1.654v1.607h-1.654v7.159h-2.41V66.062Z" transform="translate(-189.634 -60.793)"/>
        <path id="Path_17" data-name="Path 17" d="M260.71,73.221H258.3V64.431h2.41ZM258.3,61.1h2.41v1.985H258.3Z" transform="translate(-212.699 -60.793)"/>
        <path id="Path_18" data-name="Path 18" d="M277.542,76.416a1.735,1.735,0,0,0-1.323-.473,2.358,2.358,0,0,0-.969.189,1.589,1.589,0,0,0-.614.5,1.961,1.961,0,0,0-.331.614,3.043,3.043,0,0,0-.118.567h3.922a2.363,2.363,0,0,0-.567-1.394m-2.717,4.607a2.11,2.11,0,0,0,1.559.52,2.02,2.02,0,0,0,1.252-.378,1.389,1.389,0,0,0,.638-.78H280.4a4.092,4.092,0,0,1-1.559,2.268,4.675,4.675,0,0,1-2.552.685,5.152,5.152,0,0,1-1.867-.331,3.932,3.932,0,0,1-1.418-.945,4.367,4.367,0,0,1-.9-1.465,5.551,5.551,0,0,1,.024-3.71,4.07,4.07,0,0,1,.921-1.465,4.207,4.207,0,0,1,1.418-.969,4.544,4.544,0,0,1,1.819-.354,4.283,4.283,0,0,1,1.961.425,3.861,3.861,0,0,1,1.37,1.158,4.858,4.858,0,0,1,.78,1.654,5.966,5.966,0,0,1,.165,1.961h-6.332a2.486,2.486,0,0,0,.591,1.725" transform="translate(-223.009 -70.721)"/>
        <path id="Path_19" data-name="Path 19" d="M318.474,67.763a2.429,2.429,0,0,0-.354-.874,2.264,2.264,0,0,0-.638-.614,2.2,2.2,0,0,0-1.985,0,2.132,2.132,0,0,0-.662.638,2.746,2.746,0,0,0-.354.9,4.531,4.531,0,0,0,0,2.056,2.782,2.782,0,0,0,.378.9,2.423,2.423,0,0,0,.662.638,1.786,1.786,0,0,0,.969.236,1.818,1.818,0,0,0,.992-.236,2.055,2.055,0,0,0,.638-.638,2.716,2.716,0,0,0,.331-.9,5.009,5.009,0,0,0,.094-1.04,3.147,3.147,0,0,0-.071-1.063m.118,4.324a2.411,2.411,0,0,1-1.111,1.016,3.987,3.987,0,0,1-1.559.307,3.64,3.64,0,0,1-1.725-.378,3.291,3.291,0,0,1-1.229-1.04,4.5,4.5,0,0,1-.732-1.512A6.292,6.292,0,0,1,312,68.708a5.805,5.805,0,0,1,.236-1.7,4.153,4.153,0,0,1,.732-1.441,3.843,3.843,0,0,1,1.205-1.016,3.766,3.766,0,0,1,3.19-.047,2.469,2.469,0,0,1,1.111.969h.024V61.1h2.41V73.221h-2.292V72.11l-.024-.024Z" transform="translate(-253.711 -60.793)"/>
        <path id="Path_20" data-name="Path 20" d="M71.372,496.672a1.829,1.829,0,0,0-1.867-1.489c-1.678,0-2.316,1.441-2.316,2.93,0,1.418.638,2.859,2.316,2.859a1.925,1.925,0,0,0,1.937-1.914h1.819a3.606,3.606,0,0,1-3.757,3.5,4.119,4.119,0,0,1-4.206-4.442c0-2.528,1.559-4.513,4.206-4.513a3.487,3.487,0,0,1,3.686,3.072Z" transform="translate(-65.3 -391.104)"/>
        <path id="Path_21" data-name="Path 21" d="M105.29,509.022c1.158,0,1.512-.992,1.512-1.961,0-.992-.354-1.985-1.512-1.985-1.134,0-1.489.992-1.489,1.985-.024.969.331,1.961,1.489,1.961m0-5.222a3.261,3.261,0,1,1-3.19,3.261,3.051,3.051,0,0,1,3.19-3.261" transform="translate(-93.405 -398.893)"/>
        <path id="Path_22" data-name="Path 22" d="M133.5,503.865h1.607v1.158h.024a2.2,2.2,0,0,1,1.985-1.323,2.069,2.069,0,0,1,.378.047v1.583a4.642,4.642,0,0,0-.614-.047c-1.252,0-1.678.9-1.678,1.985v2.788h-1.7v-6.19Z" transform="translate(-117.386 -398.817)"/>
        <path id="Path_23" data-name="Path 23" d="M157.784,507.061c0-.992-.4-2.008-1.489-2.008-1.111,0-1.465.992-1.465,2.008,0,.992.378,1.961,1.489,1.961s1.465-.969,1.465-1.961m-4.584-3.1h1.607v.78h.024a2.046,2.046,0,0,1,1.843-.945c1.937,0,2.812,1.559,2.812,3.331,0,1.654-.9,3.19-2.717,3.19a2.219,2.219,0,0,1-1.843-.921H154.9v2.93h-1.7v-8.364Z" transform="translate(-132.431 -398.893)"/>
        <path id="Path_24" data-name="Path 24" d="M185.29,509.022c1.158,0,1.512-.992,1.512-1.961,0-.992-.354-1.985-1.512-1.985s-1.489.992-1.489,1.985c-.024.969.331,1.961,1.489,1.961m0-5.222a3.261,3.261,0,1,1-3.19,3.261,3.051,3.051,0,0,1,3.19-3.261" transform="translate(-154.503 -398.893)"/>
        <path id="Path_25" data-name="Path 25" d="M213.524,503.865h1.607v1.158h.024a2.192,2.192,0,0,1,1.961-1.323,2.069,2.069,0,0,1,.378.047v1.583a4.642,4.642,0,0,0-.614-.047c-1.252,0-1.678.9-1.678,1.985v2.788h-1.7l.024-6.19Z" transform="translate(-178.484 -398.817)"/>
        <path id="Path_26" data-name="Path 26" d="M235.811,507.031c-.284.26-.874.26-1.418.354-.52.118-.992.284-.992.9,0,.638.5.78,1.04.78a1.262,1.262,0,0,0,1.37-1.418v-.614Zm-3.922-1.252c.095-1.583,1.512-2.079,2.906-2.079,1.229,0,2.717.284,2.717,1.748v3.213a2.956,2.956,0,0,0,.213,1.37H236a2.617,2.617,0,0,1-.118-.591,2.807,2.807,0,0,1-2.079.756c-1.181,0-2.1-.591-2.1-1.843,0-1.394,1.063-1.725,2.1-1.867,1.04-.165,2.008-.118,2.008-.8,0-.732-.5-.827-1.111-.827-.638,0-1.063.26-1.134.921Z" transform="translate(-192.384 -398.817)"/>
        <path id="Path_27" data-name="Path 27" d="M261.941,498.467h1.252V499.6h-1.252v3.048c0,.567.142.709.709.709a1.854,1.854,0,0,0,.52-.047v1.323a6.648,6.648,0,0,1-.992.047c-1.04,0-1.937-.236-1.937-1.465v-3.639H259.2v-1.134h1.04V496.6h1.7Z" transform="translate(-213.386 -393.395)"/>
        <path id="Path_28" data-name="Path 28" d="M281.424,496.863h1.7v6.167h-1.7Zm1.678-.969h-1.7V494.5h1.7Z" transform="translate(-230.341 -391.791)"/>
        <path id="Path_29" data-name="Path 29" d="M296.69,509.022c1.158,0,1.512-.992,1.512-1.961,0-.992-.354-1.985-1.512-1.985s-1.489.992-1.489,1.985c-.024.969.331,1.961,1.489,1.961m0-5.222a3.261,3.261,0,1,1-3.19,3.261,3.051,3.051,0,0,1,3.19-3.261" transform="translate(-239.582 -398.893)"/>
        <path id="Path_30" data-name="Path 30" d="M325.047,503.889h1.607v.851h.024a2.241,2.241,0,0,1,1.89-1.04c1.8,0,2.245,1.016,2.245,2.552v3.8h-1.7v-3.5c0-1.016-.307-1.512-1.087-1.512-.921,0-1.323.52-1.323,1.772v3.237H325l.047-6.167Z" transform="translate(-263.639 -398.817)"/>
        <path id="Path_31" data-name="Path 31" d="M153.427,232.224H166.21c4.395,0,7.183-2.694,7.183-6.876,0-4.985-4.017-6.379-8.317-6.379H153.427Zm0-17.532h10.207c5.789,0,8.152-2.1,8.152-6.12,0-5.316-3.757-6.072-8.152-6.072H153.427Zm-5.1-16.492h13.893c3.379,0,7.844,0,10.136,1.394a9.081,9.081,0,0,1,4.513,7.986,8.826,8.826,0,0,1-5.694,8.577v.118c4.726.969,7.3,4.513,7.3,9.238,0,5.623-4.017,11.01-11.648,11.01H148.3l.024-38.324Z" transform="translate(-128.689 -165.499)"/>
        <path id="Path_32" data-name="Path 32" d="M99.375,137.2a33.575,33.575,0,1,0,33.575,33.575A33.569,33.569,0,0,0,99.375,137.2m29.156,33.6a29.145,29.145,0,1,1-29.156-29.133A29.157,29.157,0,0,1,128.531,170.8" transform="translate(-65.682 -118.912)"/>
        <rect id="Rectangle_17" data-name="Rectangle 17" width="67.008" height="4.395" transform="translate(0.189 92.526)"/>
        <path id="Path_33" data-name="Path 33" d="M331.465,424.105a3,3,0,0,1,.425-.638,2.317,2.317,0,0,1,.638-.425,2.215,2.215,0,0,1,1.559,0,1.6,1.6,0,0,1,.614.425,1.683,1.683,0,0,1,.425.638,1.746,1.746,0,0,1,.165.8,1.884,1.884,0,0,1-.165.8,2.316,2.316,0,0,1-.425.638,1.8,1.8,0,0,1-.614.425,2.081,2.081,0,0,1-.78.142,2.268,2.268,0,0,1-.78-.142,1.888,1.888,0,0,1-.638-.425,1.683,1.683,0,0,1-.425-.638,1.746,1.746,0,0,1-.165-.8,1.813,1.813,0,0,1,.165-.8m.331,1.465a1.212,1.212,0,0,0,.354.543,1.564,1.564,0,0,0,.52.354,1.461,1.461,0,0,0,.638.118,1.8,1.8,0,0,0,.638-.118,2.02,2.02,0,0,0,.52-.354,1.8,1.8,0,0,0,.354-.543,1.61,1.61,0,0,0,.118-.685,1.939,1.939,0,0,0-.118-.662,1.356,1.356,0,0,0-.354-.543,2.021,2.021,0,0,0-.52-.354,1.461,1.461,0,0,0-.638-.118,1.8,1.8,0,0,0-.638.118,1.683,1.683,0,0,0-.52.354,1.8,1.8,0,0,0-.354.543,1.567,1.567,0,0,0-.118.662,1.975,1.975,0,0,0,.118.685m1.654-1.819a.909.909,0,0,1,.614.165.61.61,0,0,1,.213.5.621.621,0,0,1-.189.473.852.852,0,0,1-.449.165l.662,1.04h-.378l-.638-1.016h-.378v1.016h-.354v-2.339Zm-.165,1.04h.236a.445.445,0,0,0,.189-.047.626.626,0,0,0,.142-.118.472.472,0,0,0,.047-.213.445.445,0,0,0-.047-.189.285.285,0,0,0-.118-.118.342.342,0,0,0-.165-.047h-.662v.732Z" transform="translate(-268.451 -337.108)"/>
        <path id="Path_34" data-name="Path 34" d="M73.77,63.344a2.638,2.638,0,0,0-.591-.662,2.944,2.944,0,0,0-.8-.449,3.176,3.176,0,0,0-.945-.165,3.139,3.139,0,0,0-1.536.354,2.942,2.942,0,0,0-1.016.921,4.153,4.153,0,0,0-.567,1.323,6.666,6.666,0,0,0-.189,1.536,5.253,5.253,0,0,0,.189,1.489,4.025,4.025,0,0,0,.567,1.3,2.941,2.941,0,0,0,1.016.921,3.076,3.076,0,0,0,1.536.354,2.526,2.526,0,0,0,1.914-.756,3.481,3.481,0,0,0,.851-1.961H76.77a6.26,6.26,0,0,1-.52,2.056,5.043,5.043,0,0,1-1.11,1.559,4.952,4.952,0,0,1-1.63.992,5.689,5.689,0,0,1-2.056.331,6.076,6.076,0,0,1-2.5-.5,5.357,5.357,0,0,1-1.867-1.323A5.988,5.988,0,0,1,65.9,68.684a6.967,6.967,0,0,1-.4-2.457,7.984,7.984,0,0,1,.4-2.528,5.82,5.82,0,0,1,1.181-2.032A5.709,5.709,0,0,1,68.95,60.3a6.076,6.076,0,0,1,2.5-.5,6.2,6.2,0,0,1,1.89.284,5,5,0,0,1,1.607.851,4.638,4.638,0,0,1,1.725,3.237H74.1a2.884,2.884,0,0,0-.331-.827" transform="translate(-65.453 -59.8)"/>
        <path id="Path_35" data-name="Path 35" d="M120.742,76.416a1.735,1.735,0,0,0-1.323-.473,2.358,2.358,0,0,0-.969.189,1.589,1.589,0,0,0-.614.5,1.735,1.735,0,0,0-.331.614,3.045,3.045,0,0,0-.118.567h3.922a2.363,2.363,0,0,0-.567-1.394m-2.717,4.607a2.11,2.11,0,0,0,1.559.52,2.02,2.02,0,0,0,1.252-.378,1.389,1.389,0,0,0,.638-.78H123.6a4.092,4.092,0,0,1-1.559,2.268,4.483,4.483,0,0,1-2.552.685,5.152,5.152,0,0,1-1.867-.331,4.146,4.146,0,0,1-1.418-.945,4.367,4.367,0,0,1-.9-1.465,5.551,5.551,0,0,1,.024-3.71,4.07,4.07,0,0,1,.921-1.465,4.207,4.207,0,0,1,1.418-.969,4.544,4.544,0,0,1,1.819-.354,4.283,4.283,0,0,1,1.961.425,4.077,4.077,0,0,1,1.37,1.158,4.857,4.857,0,0,1,.78,1.654,5.965,5.965,0,0,1,.165,1.961h-6.332a2.38,2.38,0,0,0,.591,1.725" transform="translate(-103.257 -70.721)"/>
        <path id="Path_36" data-name="Path 36" d="M158.992,74.436v1.63h.024a3.045,3.045,0,0,1,.449-.756,3.123,3.123,0,0,1,.662-.591,3.556,3.556,0,0,1,.8-.378,2.712,2.712,0,0,1,.874-.142,1.429,1.429,0,0,1,.52.095v2.245a2.081,2.081,0,0,0-.4-.047c-.142,0-.307-.024-.449-.024a2.586,2.586,0,0,0-1.11.213,1.861,1.861,0,0,0-.732.614,2.228,2.228,0,0,0-.4.9,5.337,5.337,0,0,0-.118,1.11v3.946H156.7V74.436Z" transform="translate(-135.104 -70.798)"/>
        <path id="Path_37" data-name="Path 37" d="M189.647,66.723v1.607h-1.772v4.347a1.091,1.091,0,0,0,.213.8,1.129,1.129,0,0,0,.8.213,1.909,1.909,0,0,0,.378-.024c.118-.024.236-.024.354-.047v1.867c-.213.024-.425.047-.685.071s-.5.024-.732.024a7.528,7.528,0,0,1-1.063-.071,2.538,2.538,0,0,1-.874-.284,1.6,1.6,0,0,1-.614-.638,2.367,2.367,0,0,1-.213-1.063V68.353H184V66.746h1.465V64.1h2.41v2.623Z" transform="translate(-155.954 -63.084)"/>
        <path id="Path_38" data-name="Path 38" d="M216.21,73.221H213.8V64.431h2.41ZM213.8,61.1h2.41v1.985H213.8Z" transform="translate(-178.713 -60.793)"/>
        <path id="Path_39" data-name="Path 39" d="M228.1,66.062V64.455h1.441V63.77a2.582,2.582,0,0,1,.732-1.914,2.984,2.984,0,0,1,2.2-.756,5.758,5.758,0,0,1,.638.024c.213.024.425.024.614.047v1.8a5.28,5.28,0,0,0-.874-.047.887.887,0,0,0-.709.236,1.14,1.14,0,0,0-.213.78v.52h1.654v1.607h-1.654v7.159h-2.41V66.062Z" transform="translate(-189.634 -60.793)"/>
        <path id="Path_40" data-name="Path 40" d="M260.71,73.221H258.3V64.431h2.41ZM258.3,61.1h2.41v1.985H258.3Z" transform="translate(-212.699 -60.793)"/>
        <path id="Path_41" data-name="Path 41" d="M277.542,76.416a1.735,1.735,0,0,0-1.323-.473,2.358,2.358,0,0,0-.969.189,1.589,1.589,0,0,0-.614.5,1.961,1.961,0,0,0-.331.614,3.043,3.043,0,0,0-.118.567h3.922a2.363,2.363,0,0,0-.567-1.394m-2.717,4.607a2.11,2.11,0,0,0,1.559.52,2.02,2.02,0,0,0,1.252-.378,1.389,1.389,0,0,0,.638-.78H280.4a4.092,4.092,0,0,1-1.559,2.268,4.675,4.675,0,0,1-2.552.685,5.152,5.152,0,0,1-1.867-.331,3.932,3.932,0,0,1-1.418-.945,4.367,4.367,0,0,1-.9-1.465,5.551,5.551,0,0,1,.024-3.71,4.07,4.07,0,0,1,.921-1.465,4.207,4.207,0,0,1,1.418-.969,4.544,4.544,0,0,1,1.819-.354,4.283,4.283,0,0,1,1.961.425,3.861,3.861,0,0,1,1.37,1.158,4.858,4.858,0,0,1,.78,1.654,5.966,5.966,0,0,1,.165,1.961h-6.332a2.486,2.486,0,0,0,.591,1.725" transform="translate(-223.009 -70.721)"/>
        <path id="Path_42" data-name="Path 42" d="M318.474,67.763a2.429,2.429,0,0,0-.354-.874,2.264,2.264,0,0,0-.638-.614,2.2,2.2,0,0,0-1.985,0,2.132,2.132,0,0,0-.662.638,2.746,2.746,0,0,0-.354.9,4.531,4.531,0,0,0,0,2.056,2.782,2.782,0,0,0,.378.9,2.423,2.423,0,0,0,.662.638,1.786,1.786,0,0,0,.969.236,1.818,1.818,0,0,0,.992-.236,2.055,2.055,0,0,0,.638-.638,2.716,2.716,0,0,0,.331-.9,5.009,5.009,0,0,0,.094-1.04,3.147,3.147,0,0,0-.071-1.063m.118,4.324a2.411,2.411,0,0,1-1.111,1.016,3.987,3.987,0,0,1-1.559.307,3.64,3.64,0,0,1-1.725-.378,3.291,3.291,0,0,1-1.229-1.04,4.5,4.5,0,0,1-.732-1.512A6.292,6.292,0,0,1,312,68.708a5.805,5.805,0,0,1,.236-1.7,4.153,4.153,0,0,1,.732-1.441,3.843,3.843,0,0,1,1.205-1.016,3.766,3.766,0,0,1,3.19-.047,2.469,2.469,0,0,1,1.111.969h.024V61.1h2.41V73.221h-2.292V72.11l-.024-.024Z" transform="translate(-253.711 -60.793)"/>
        <path id="Path_43" data-name="Path 43" d="M71.372,496.672a1.829,1.829,0,0,0-1.867-1.489c-1.678,0-2.316,1.441-2.316,2.93,0,1.418.638,2.859,2.316,2.859a1.925,1.925,0,0,0,1.937-1.914h1.819a3.606,3.606,0,0,1-3.757,3.5,4.119,4.119,0,0,1-4.206-4.442c0-2.528,1.559-4.513,4.206-4.513a3.487,3.487,0,0,1,3.686,3.072Z" transform="translate(-65.3 -391.104)"/>
        <path id="Path_44" data-name="Path 44" d="M105.29,509.022c1.158,0,1.512-.992,1.512-1.961,0-.992-.354-1.985-1.512-1.985-1.134,0-1.489.992-1.489,1.985-.024.969.331,1.961,1.489,1.961m0-5.222a3.261,3.261,0,1,1-3.19,3.261,3.051,3.051,0,0,1,3.19-3.261" transform="translate(-93.405 -398.893)"/>
        <path id="Path_45" data-name="Path 45" d="M133.5,503.865h1.607v1.158h.024a2.2,2.2,0,0,1,1.985-1.323,2.069,2.069,0,0,1,.378.047v1.583a4.642,4.642,0,0,0-.614-.047c-1.252,0-1.678.9-1.678,1.985v2.788h-1.7v-6.19Z" transform="translate(-117.386 -398.817)"/>
        <path id="Path_46" data-name="Path 46" d="M157.784,507.061c0-.992-.4-2.008-1.489-2.008-1.111,0-1.465.992-1.465,2.008,0,.992.378,1.961,1.489,1.961s1.465-.969,1.465-1.961m-4.584-3.1h1.607v.78h.024a2.046,2.046,0,0,1,1.843-.945c1.937,0,2.812,1.559,2.812,3.331,0,1.654-.9,3.19-2.717,3.19a2.219,2.219,0,0,1-1.843-.921H154.9v2.93h-1.7v-8.364Z" transform="translate(-132.431 -398.893)"/>
        <path id="Path_47" data-name="Path 47" d="M185.29,509.022c1.158,0,1.512-.992,1.512-1.961,0-.992-.354-1.985-1.512-1.985s-1.489.992-1.489,1.985c-.024.969.331,1.961,1.489,1.961m0-5.222a3.261,3.261,0,1,1-3.19,3.261,3.051,3.051,0,0,1,3.19-3.261" transform="translate(-154.503 -398.893)"/>
        <path id="Path_48" data-name="Path 48" d="M213.524,503.865h1.607v1.158h.024a2.192,2.192,0,0,1,1.961-1.323,2.069,2.069,0,0,1,.378.047v1.583a4.642,4.642,0,0,0-.614-.047c-1.252,0-1.678.9-1.678,1.985v2.788h-1.7l.024-6.19Z" transform="translate(-178.484 -398.817)"/>
        <path id="Path_49" data-name="Path 49" d="M235.811,507.031c-.284.26-.874.26-1.418.354-.52.118-.992.284-.992.9,0,.638.5.78,1.04.78a1.262,1.262,0,0,0,1.37-1.418v-.614Zm-3.922-1.252c.095-1.583,1.512-2.079,2.906-2.079,1.229,0,2.717.284,2.717,1.748v3.213a2.956,2.956,0,0,0,.213,1.37H236a2.617,2.617,0,0,1-.118-.591,2.807,2.807,0,0,1-2.079.756c-1.181,0-2.1-.591-2.1-1.843,0-1.394,1.063-1.725,2.1-1.867,1.04-.165,2.008-.118,2.008-.8,0-.732-.5-.827-1.111-.827-.638,0-1.063.26-1.134.921Z" transform="translate(-192.384 -398.817)"/>
        <path id="Path_50" data-name="Path 50" d="M261.941,498.467h1.252V499.6h-1.252v3.048c0,.567.142.709.709.709a1.854,1.854,0,0,0,.52-.047v1.323a6.648,6.648,0,0,1-.992.047c-1.04,0-1.937-.236-1.937-1.465v-3.639H259.2v-1.134h1.04V496.6h1.7Z" transform="translate(-213.386 -393.395)"/>
        <path id="Path_51" data-name="Path 51" d="M281.424,496.863h1.7v6.167h-1.7Zm1.678-.969h-1.7V494.5h1.7Z" transform="translate(-230.341 -391.791)"/>
        <path id="Path_52" data-name="Path 52" d="M296.69,509.022c1.158,0,1.512-.992,1.512-1.961,0-.992-.354-1.985-1.512-1.985s-1.489.992-1.489,1.985c-.024.969.331,1.961,1.489,1.961m0-5.222a3.261,3.261,0,1,1-3.19,3.261,3.051,3.051,0,0,1,3.19-3.261" transform="translate(-239.582 -398.893)"/>
        <path id="Path_53" data-name="Path 53" d="M325.047,503.889h1.607v.851h.024a2.241,2.241,0,0,1,1.89-1.04c1.8,0,2.245,1.016,2.245,2.552v3.8h-1.7v-3.5c0-1.016-.307-1.512-1.087-1.512-.921,0-1.323.52-1.323,1.772v3.237H325l.047-6.167Z" transform="translate(-263.639 -398.817)"/>
      </g>
    </g>
  </g>
</svg>
