<svg xmlns="http://www.w3.org/2000/svg" width="76.941" height="76.941" viewBox="0 0 76.941 76.941">
  <g id="PageBuilding" transform="translate(-2 -3)">
    <path id="Path_205" data-name="Path 205" d="M3,15.241A11.241,11.241,0,0,1,14.241,4H66.7A11.241,11.241,0,0,1,77.941,15.241V67.7A11.241,11.241,0,0,1,66.7,78.941H14.241A11.241,11.241,0,0,1,3,67.7Z" fill="none" stroke="#dbdbdb" stroke-width="2"/>
    <path id="Path_206" data-name="Path 206" d="M28.178,51.218H16V10H55.344V36.229" transform="translate(11.356 5.241)" fill="none" stroke="#000" stroke-width="2"/>
    <path id="Path_207" data-name="Path 207" d="M16.494,12H9v7.494" transform="translate(5.241 6.988)" fill="none" stroke="#828282" stroke-linejoin="round" stroke-width="2"/>
    <path id="Path_208" data-name="Path 208" d="M9,33.235V40.73h7.494" transform="translate(5.241 25.538)" fill="none" stroke="#828282" stroke-linejoin="round" stroke-width="2"/>
    <path id="Path_209" data-name="Path 209" d="M9,26.235V33.73" transform="translate(5.241 19.423)" fill="none" stroke="#828282" stroke-linejoin="round" stroke-width="2"/>
    <path id="Path_210" data-name="Path 210" d="M9,19v7.494" transform="translate(5.241 13.103)" fill="none" stroke="#828282" stroke-linejoin="round" stroke-width="2"/>
    <path id="Path_211" data-name="Path 211" d="M23.494,37.235H16" transform="translate(11.356 29.032)" fill="none" stroke="#828282" stroke-linejoin="round" stroke-width="2"/>
    <path id="Path_212" data-name="Path 212" d="M38.577,37.566l6.679,13.189-5.862,2.968L32.716,40.535l-6.566,8.849L26,20,49.6,37.511Z" transform="translate(20.091 13.977)" fill="none" stroke="#000" stroke-linejoin="round" stroke-width="2"/>
  </g>
</svg>
