<svg xmlns="http://www.w3.org/2000/svg" width="79" height="79" viewBox="0 0 79 79">
  <g id="Group_89" data-name="Group 89" transform="translate(-394 -7658)">
    <circle id="olga-zhuravleva-A3MleA0jtoE-unsplash" cx="39.5" cy="39.5" r="39.5" transform="translate(394 7658)" fill="#cfcfcf"/>
    <g id="Group_48" data-name="Group 48" transform="translate(410.604 7674.136)">
      <g id="Group_24" data-name="Group 24" transform="translate(0 0)">
        <path id="Union_5" data-name="Union 5" d="M8.907,48.245l-.51-.12a12.7,12.7,0,0,1-1.952-.581A2.761,2.761,0,0,1,5.4,46.792c-.227-.294-.329-.427-.44-.555L1.18,41.887a2.487,2.487,0,0,1-.433-2.85c.093-.341.461-1.475,2.243-6.33.422-1.183.713-2,.915-2.561a13.759,13.759,0,0,1-1.927-2.582,13.338,13.338,0,0,1-1.614-4.09,18.073,18.073,0,0,1,.191-7.991,20.256,20.256,0,0,1,4.21-8.289A21.172,21.172,0,0,1,13.076,1.3,20,20,0,0,1,16.936.261a19.232,19.232,0,0,1,6.355.007,20.435,20.435,0,0,1,7.7,2.974q.458.3.9.619a19.329,19.329,0,0,1,3.794,3.283c1.368,1.574,4.491,5.223,4.491,5.223A21.973,21.973,0,0,1,45.6,29.938C43.5,44.927,31.136,48.194,29.733,48.517l-.237.06a34.358,34.358,0,0,1-9.06,1.152A48.767,48.767,0,0,1,8.907,48.245ZM6.342,45.039c.134.155.258.316.383.477a1.038,1.038,0,0,0,.478.364,10.561,10.561,0,0,0,1.592.46l.536.126a47.017,47.017,0,0,0,11.1,1.434,32.506,32.506,0,0,0,8.577-1.088l.315-.079c1.273-.293,12.532-3.272,14.463-17.05a20.12,20.12,0,0,0-4.269-15.252q.152.482.276.976a24.862,24.862,0,0,1,.342,9.446,22.364,22.364,0,0,1-2.333,6.924,21.982,21.982,0,0,1-2.927,4.23A14.6,14.6,0,0,1,33.386,37.5a21.113,21.113,0,0,1-4.112,2.771,24.341,24.341,0,0,1-4.465,1.753,33.7,33.7,0,0,1-8.859,1.185l-.367,0a50.465,50.465,0,0,1-6.059-.389,39.227,39.227,0,0,1-5.458-1.048,3.5,3.5,0,0,1-.926-.409Zm4.515-10.188a33.91,33.91,0,0,0,4.545.307,24.109,24.109,0,0,0,8.657-1.4,12.971,12.971,0,0,0,5.163-3.614,13.609,13.609,0,0,0,2.3-4.227c1.112-3.23,2.153-9.435-3.362-14.7A11.9,11.9,0,0,0,25.45,9.377l-.113-.058q-1.241,1.33-2.759,2.99a9.713,9.713,0,0,1,1.885.56,7.662,7.662,0,0,1,4.309,4.769,9.578,9.578,0,0,1,.357,4.356,13,13,0,0,1-1.8,4.893,14.828,14.828,0,0,1-2.668,2.995,16.405,16.405,0,0,1-3.275,2.215,15.67,15.67,0,0,1-7.164,1.736,18.155,18.155,0,0,1-2.846-.226C11.2,34.025,11.019,34.453,10.857,34.852Zm7.936-13.6a14.325,14.325,0,0,0-2.414,2.725q-.587.84-1.116,1.714a8.112,8.112,0,0,0,2.642-.841A5.219,5.219,0,0,0,19.1,24a6.741,6.741,0,0,0,1.859-2.344,2.314,2.314,0,0,0,.2-1.38c-.038,0-.172-.019-.307-.019A3.555,3.555,0,0,0,18.793,21.249ZM14.206,9.716A12.126,12.126,0,0,0,9.367,14.7c-.654,1.288-1.761,4.438-1.17,7.05.078-.133.158-.266.237-.4a33.559,33.559,0,0,1,2.1-3.085A21.919,21.919,0,0,1,13.361,15.2a13.247,13.247,0,0,1,3.092-2.055,10.235,10.235,0,0,1,3.776-.987c1.262-1.384,2.352-2.566,3.292-3.572a11.616,11.616,0,0,0-3.374-.523A12.108,12.108,0,0,0,14.206,9.716Z" transform="translate(0 0)" fill="#fff"/>
        <path id="Path_62" data-name="Path 62" d="M1265.336,234.746a8.328,8.328,0,0,0-1.565,2.629c-.815,2.218-2.28,6.227-2.382,6.727a1.639,1.639,0,0,0,.26,1.93l3.783,4.352c.164.19.313.391.468.589a1.848,1.848,0,0,0,.7.484,11.352,11.352,0,0,0,1.772.521c1.9.425,11.255,3.036,20.657.461q.137-.038.274-.069c1.309-.3,13.148-3.408,15.168-17.815a21.088,21.088,0,0,0-5.218-16.849s-3.12-3.646-4.486-5.217a19.456,19.456,0,0,0-5.165-4.068c-.719-.4-19.624,21.034-24.275,26.322Z" transform="translate(-1259.779 -204.745)" fill="#fff" fill-rule="evenodd"/>
        <path id="Union_4" data-name="Union 4" d="M7.618,46.23a11.393,11.393,0,0,1-1.773-.521,1.841,1.841,0,0,1-.7-.484c-.156-.2-.3-.4-.468-.589L.891,40.284a1.639,1.639,0,0,1-.26-1.93c.055-.268.5-1.553,1.034-3.028l0-.041.08-.219,1.8-4.9h0l0,0L4,28.937a11.992,11.992,0,0,1-2.12-2.59A12.713,12.713,0,0,1,.346,22.454a17.335,17.335,0,0,1,.183-7.637A19.343,19.343,0,0,1,4.557,6.884a20.285,20.285,0,0,1,7.951-5.638,18.87,18.87,0,0,1,3.7-1A19.189,19.189,0,0,1,19.273,0h0A17.052,17.052,0,0,1,22.27.255,19.567,19.567,0,0,1,29.65,3.1q.394.257.773.532a18.5,18.5,0,0,1,3.589,3.107c1.366,1.571,4.486,5.218,4.486,5.218a21.088,21.088,0,0,1,5.217,16.849C41.581,44.06,28.433,46.648,28.433,46.648a33.382,33.382,0,0,1-8.974,1.163A49.578,49.578,0,0,1,7.618,46.23Z" transform="translate(0.981 1.004)"/>
        <g id="Group_21" transform="translate(2.51 2.735)">
          <path id="Union_2" data-name="Union 2" d="M13.5,38.186a46.243,46.243,0,0,1-5.528-.354,34.993,34.993,0,0,1-4.944-.951c-.6-.156-1.774-.562-1.774-.562L.6,36.091l.241-.656C2.548,30.783,3.61,27.891,4.013,26.8A10.7,10.7,0,0,1,1.69,24.113,11.429,11.429,0,0,1,.315,20.624a15.869,15.869,0,0,1,.171-6.988,17.817,17.817,0,0,1,3.708-7.3,18.662,18.662,0,0,1,7.33-5.193,17.368,17.368,0,0,1,3.39-.913A17.769,17.769,0,0,1,17.73,0a16.338,16.338,0,0,1,2.753.234A17.721,17.721,0,0,1,31.673,6.913a20,20,0,0,1,2.434,4.034,14.722,14.722,0,0,1,.931,2.625,22.111,22.111,0,0,1,.3,8.386,19.709,19.709,0,0,1-4.653,9.868,12.881,12.881,0,0,1-1.293,1.29,18.811,18.811,0,0,1-3.626,2.446A21.7,21.7,0,0,1,21.8,37.122a30.3,30.3,0,0,1-5.582.971l.2.1ZM7.681,32.235a32.527,32.527,0,0,0,5.629.493,23.427,23.427,0,0,0,8.428-1.368,13.114,13.114,0,0,0,5.211-3.647,13.611,13.611,0,0,0,2.336-4.269C30.4,20.206,31.442,13.985,25.9,8.7a12.166,12.166,0,0,0-2.775-1.895,11.875,11.875,0,0,0-5.382-1.328,12.317,12.317,0,0,0-6.05,1.676A12.269,12.269,0,0,0,6.8,12.2c-1.052,2.073-2.324,6.467-.28,9.311.365-.719.76-1.431,1.181-2.125A29.79,29.79,0,0,1,9.595,16.6a19.242,19.242,0,0,1,2.5-2.712,11.3,11.3,0,0,1,2.637-1.752,8.459,8.459,0,0,1,3.6-.838,8.039,8.039,0,0,1,3.036.6,6.109,6.109,0,0,1,3.426,3.8,7.9,7.9,0,0,1,.3,3.6,11.081,11.081,0,0,1-1.537,4.17,12.764,12.764,0,0,1-2.276,2.549,14.179,14.179,0,0,1-2.853,1.932,13.579,13.579,0,0,1-6.242,1.506,15.716,15.716,0,0,1-3.227-.342C8.453,30.285,7.953,31.5,7.681,32.235Zm8.147-14.252a14.478,14.478,0,0,0-2.44,2.747,29.447,29.447,0,0,0-1.969,3.238q.324.019.647.021a8.738,8.738,0,0,0,4.055-.975,5.785,5.785,0,0,0,1.339-.944,7.286,7.286,0,0,0,1.955-2.488,3.123,3.123,0,0,0,.274-1.885.971.971,0,0,0-.657-.783,2.342,2.342,0,0,0-.631-.086h0A4.186,4.186,0,0,0,15.828,17.984Z" transform="translate(0)" fill="#fff"/>
        </g>
        <path id="Path_64" data-name="Path 64" d="M1367.47,305.54" transform="translate(-1341.789 -279.683)" stroke="#000" stroke-miterlimit="10" stroke-width="14"/>
      </g>
    </g>
  </g>
</svg>
