<svg xmlns="http://www.w3.org/2000/svg" width="60" height="60" viewBox="0 0 60 60">
  <g id="Group_3332" data-name="Group 3332" transform="translate(-104 -109)">
    <circle id="Ellipse_10" data-name="Ellipse 10" cx="30" cy="30" r="30" transform="translate(104 109)" fill="#f3f3f3" opacity="0.999"/>
    <path id="cookie-solid" d="M32.814,16.227a1.582,1.582,0,0,0-1.343-.27,4.619,4.619,0,0,1-1.17.17,4.71,4.71,0,0,1-4.722-4.619c.008-.053.025-.211.027-.264a1.569,1.569,0,0,0-1.972-1.582A4.644,4.644,0,0,1,17.723,5.12a4.575,4.575,0,0,1,.156-1.126A1.572,1.572,0,0,0,16.2,2.051,15.722,15.722,0,1,0,33.446,17.7c0-.077,0-.153-.011-.252A1.579,1.579,0,0,0,32.814,16.227ZM12.22,8.264a2.358,2.358,0,1,1-2.358,2.358A2.358,2.358,0,0,1,12.22,8.264ZM9.075,20.843a2.358,2.358,0,1,1,2.358-2.358,2.358,2.358,0,0,1-2.358,2.358Zm4.717,6.289a2.358,2.358,0,1,1,2.358-2.358A2.358,2.358,0,0,1,13.792,27.132Zm3.931-10.22a2.358,2.358,0,1,1,2.358,2.358A2.358,2.358,0,0,1,17.723,16.912Zm5.5,10.22a2.358,2.358,0,1,1,2.358-2.358,2.358,2.358,0,0,1-2.358,2.358Z" transform="translate(115.904 120.957)" fill="#444"/>
  </g>
</svg>
