<svg xmlns="http://www.w3.org/2000/svg" width="20.88" height="24.514" viewBox="0 0 20.88 24.514">
  <g id="creditcard-hand" transform="translate(0 1.5)">
    <path id="Path_119" data-name="Path 119" d="M5,15.113V5.423A2.423,2.423,0,0,1,7.423,3H9.845m0,0h7.268a2.423,2.423,0,0,1,2.423,2.423V19.958a2.423,2.423,0,0,1-2.423,2.423H8.634M9.845,3V15.718M14.69,7.845v3.634" transform="translate(-0.155 -3)" fill="none" stroke="#000" stroke-linecap="round" stroke-linejoin="round" stroke-width="3"/>
    <g id="Path_120" data-name="Path 120" transform="translate(-11 -1.944)" stroke-linecap="round" stroke-linejoin="round">
      <path d="M 14.84546375274658 23.45798492431641 L 14.8452033996582 23.45798492431641 L 12.50017356872559 23.45798492431641 L 12.50017356872559 16.35786437988281 C 12.50017356872559 14.61655902862549 13.17037677764893 12.90940570831299 14.34772300720215 11.6296911239624 L 14.34772300720215 15.97873401641846 C 14.34772300720215 17.47490310668945 15.56805324554443 18.69213485717773 17.06803321838379 18.69213485717773 C 17.78488349914551 18.69213485717773 18.46250343322754 18.40930366516113 18.97604370117188 17.8957633972168 L 20.54423332214355 16.32877349853516 C 20.60094261169434 16.27520370483398 20.81490325927734 16.1695442199707 21.05092239379883 16.1695442199707 C 21.26719284057617 16.1695442199707 21.38027381896973 16.25477409362793 21.45462417602539 16.32903480529785 C 21.77471351623535 16.64912414550781 21.52814292907715 17.15680313110352 21.45323371887207 17.23599433898926 L 15.49719333648682 23.18840408325195 C 15.3232536315918 23.36215400695801 15.09170341491699 23.45798492431641 14.84546375274658 23.45798492431641 Z" stroke="none"/>
      <path d="M 14.00017356872559 18.86928749084473 L 14.00017356872559 21.95798492431641 L 14.60639572143555 21.95798492431641 L 16.42254447937012 20.14294052124023 C 15.47494125366211 19.99711608886719 14.63018226623535 19.53534317016602 14.00017356872559 18.86928749084473 M 15.84772300720215 8.000003814697266 L 15.84772300720215 15.97873306274414 C 15.84772300720215 17.0567741394043 17.15227890014648 17.59821319580078 17.91538238525391 16.83510398864746 L 19.48398208618164 15.26770401000977 C 20.08962631225586 14.66206550598145 21.54437446594238 14.29868507385254 22.51461410522461 15.26770401000977 C 23.48363304138184 16.23673439025879 23.12025451660156 17.69027328491211 22.51461410522461 18.29592514038086 L 16.55753326416016 24.2493839263916 C 16.10312461853027 24.70328330993652 15.48833656311035 24.95767211914062 14.84478378295898 24.95798492431641 L 12.21145248413086 24.95798492431641 C 11.54248237609863 24.95798492431641 11.00017356872559 24.41567420959473 11.00017356872559 23.7466926574707 L 11.00017356872559 16.35786437988281 C 11.00017356872559 14.11049461364746 11.89381408691406 11.9534740447998 13.48444366455078 10.36328315734863 L 15.84772300720215 8.000003814697266 Z" stroke="none" fill="#000"/>
    </g>
  </g>
</svg>
