<svg xmlns="http://www.w3.org/2000/svg" width="275.973" height="293.01" viewBox="0 0 275.973 293.01">
  <g id="Group_73" data-name="Group 73" transform="translate(0 37.295) rotate(-9)">
    <g id="Group_24" data-name="Group 24" transform="translate(0 0)">
      <path id="Union_5" data-name="Union 5" d="M46.371,251.179l-2.653-.625a66.121,66.121,0,0,1-10.163-3.024,14.375,14.375,0,0,1-5.433-3.915c-1.182-1.53-1.714-2.225-2.289-2.888L6.143,218.075c-5.025-4.885-3.835-11.495-2.255-14.837.485-1.777,2.4-7.679,11.677-32.954,2.2-6.161,3.712-10.4,4.762-13.332a71.635,71.635,0,0,1-10.034-13.442,69.439,69.439,0,0,1-8.4-21.295c-3.566-16.235-1.43-31.59,1-41.606A105.46,105.46,0,0,1,24.807,37.455,110.228,110.228,0,0,1,68.075,6.784a104.117,104.117,0,0,1,20.1-5.427,100.128,100.128,0,0,1,33.085.038A106.39,106.39,0,0,1,161.345,16.88q2.382,1.554,4.667,3.223A100.63,100.63,0,0,1,185.767,37.2c7.12,8.193,23.384,27.193,23.384,27.193a114.4,114.4,0,0,1,28.259,91.475C226.473,233.9,162.1,250.911,154.8,252.593l-1.234.31a178.877,178.877,0,0,1-47.168,6C78.679,258.9,56.039,253.491,46.371,251.179Zm-13.353-16.69c.7.808,1.345,1.645,1.995,2.485a5.405,5.405,0,0,0,2.488,1.9,54.986,54.986,0,0,0,8.289,2.4l2.792.655c9.342,2.236,31.217,7.465,57.813,7.465a169.236,169.236,0,0,0,44.652-5.663l1.639-.41c6.627-1.525,65.246-17.033,75.3-88.769a104.751,104.751,0,0,0-22.226-79.4q.793,2.512,1.439,5.08a129.437,129.437,0,0,1,1.778,49.179,116.433,116.433,0,0,1-12.145,36.051,114.447,114.447,0,0,1-15.239,22.024,76,76,0,0,1-7.776,7.752,109.92,109.92,0,0,1-21.41,14.426,126.727,126.727,0,0,1-23.247,9.128,175.466,175.466,0,0,1-46.123,6.171l-1.91-.011a262.732,262.732,0,0,1-31.544-2.023,204.225,204.225,0,0,1-28.414-5.456,18.2,18.2,0,0,1-4.82-2.128Zm23.508-53.039a176.543,176.543,0,0,0,23.66,1.6c17.531,0,32.517-2.449,45.072-7.275a67.532,67.532,0,0,0,26.881-18.814c2.73-3.1,8.253-11.133,11.99-22.006,5.789-16.818,11.211-49.12-17.5-76.508A61.961,61.961,0,0,0,132.5,48.818l-.588-.3q-6.46,6.926-14.365,15.565A50.569,50.569,0,0,1,127.362,67a39.89,39.89,0,0,1,22.432,24.828,49.868,49.868,0,0,1,1.858,22.679,67.687,67.687,0,0,1-9.378,25.472,77.2,77.2,0,0,1-13.89,15.59,85.413,85.413,0,0,1-17.048,11.53,81.582,81.582,0,0,1-37.3,9.04,94.523,94.523,0,0,1-14.819-1.179C58.3,177.146,57.37,179.373,56.526,181.449Zm41.318-70.822a74.579,74.579,0,0,0-12.568,14.187q-3.058,4.374-5.812,8.924a42.236,42.236,0,0,0,13.753-4.377,27.171,27.171,0,0,0,6.243-4.392,35.094,35.094,0,0,0,9.678-12.2,12.046,12.046,0,0,0,1.061-7.185c-.2,0-.9-.1-1.6-.1C105.62,105.481,101.9,107.262,97.844,110.627ZM73.959,50.584A63.13,63.13,0,0,0,48.769,76.51c-3.4,6.707-9.169,23.107-6.093,36.706.408-.692.821-1.387,1.236-2.071a174.717,174.717,0,0,1,10.93-16.062,114.117,114.117,0,0,1,14.72-15.946,68.965,68.965,0,0,1,16.1-10.7A53.286,53.286,0,0,1,105.319,63.3c6.571-7.206,12.244-13.358,17.141-18.6a60.475,60.475,0,0,0-17.565-2.723A63.039,63.039,0,0,0,73.959,50.584Z" transform="translate(0 0)" fill="#fff"/>
      <path id="Path_62" data-name="Path 62" d="M21.632,137.08a43.347,43.347,0,0,0-8.146,13.688c-4.246,11.548-11.869,32.42-12.4,35.024,0,0-3.175,5.625,1.356,10.049L22.132,218.5c.856.987,1.63,2.034,2.438,3.068a9.624,9.624,0,0,0,3.663,2.521,59.094,59.094,0,0,0,9.228,2.711c9.884,2.212,58.6,15.805,107.546,2.4q.715-.2,1.428-.357c6.814-1.57,68.455-17.744,78.968-92.752A109.788,109.788,0,0,0,198.24,48.372S182,29.391,174.883,21.209A101.3,101.3,0,0,0,147.993.028C144.247-2.029,45.822,109.536,21.609,137.068Z" transform="translate(7.295 19.112)" fill="#fff" fill-rule="evenodd"/>
      <path id="Union_4" data-name="Union 4" d="M39.661,240.687a59.315,59.315,0,0,1-9.228-2.713,9.584,9.584,0,0,1-3.662-2.52c-.81-1.035-1.582-2.08-2.439-3.068L4.637,209.73C.108,205.306,3.282,199.68,3.282,199.68c.285-1.4,2.622-8.085,5.383-15.764l.013-.212.418-1.141s5.33-14.506,9.379-25.519h-.006l.011-.013,2.345-6.378a62.432,62.432,0,0,1-11.04-13.486A66.189,66.189,0,0,1,1.8,116.9c-3.4-15.5-1.357-30.182.952-39.761a100.706,100.706,0,0,1,20.973-41.3,105.61,105.61,0,0,1,41.4-29.352A98.245,98.245,0,0,1,84.375,1.3,99.9,99.9,0,0,1,100.339,0h.018a88.78,88.78,0,0,1,15.589,1.33,101.87,101.87,0,0,1,38.423,14.82q2.051,1.34,4.027,2.769A96.317,96.317,0,0,1,177.084,35.1c7.112,8.181,23.357,27.164,23.357,27.164A109.79,109.79,0,0,1,227.6,149.98c-11.12,79.409-79.576,92.884-79.576,92.884a173.8,173.8,0,0,1-46.722,6.053C70.924,248.917,46.359,242.186,39.661,240.687Z" transform="translate(5.107 5.225)" fill="#001f26"/>
      <g id="Group_21" transform="translate(13.069 14.241)">
        <path id="Union_2" data-name="Union 2" d="M70.311,198.809a240.745,240.745,0,0,1-28.781-1.842,182.183,182.183,0,0,1-25.742-4.953c-3.113-.813-9.233-2.928-9.233-2.928L3.118,187.9l1.254-3.417C13.266,160.266,18.8,145.21,20.89,139.528A55.72,55.72,0,0,1,8.8,125.538a59.5,59.5,0,0,1-7.16-18.164c-3.1-14.162-1.227-27.6.888-36.38a92.759,92.759,0,0,1,19.3-38A97.158,97.158,0,0,1,59.991,5.953,90.423,90.423,0,0,1,77.638,1.2,92.511,92.511,0,0,1,92.308,0a85.059,85.059,0,0,1,14.331,1.217A92.259,92.259,0,0,1,164.9,35.992a104.108,104.108,0,0,1,12.67,21,76.65,76.65,0,0,1,4.847,13.668,115.118,115.118,0,0,1,1.562,43.662A102.613,102.613,0,0,1,159.752,165.7a67.059,67.059,0,0,1-6.732,6.715,97.936,97.936,0,0,1-18.88,12.734,112.961,112.961,0,0,1-20.66,8.115,157.742,157.742,0,0,1-29.063,5.055l1.055.534ZM39.989,167.825A169.345,169.345,0,0,0,69.3,170.389c17.01,0,31.6-2.4,43.88-7.124a68.276,68.276,0,0,0,27.131-18.989c3.431-3.89,8.659-12.032,12.163-22.227,5.8-16.852,11.223-49.239-17.637-76.751a63.339,63.339,0,0,0-14.446-9.864A61.825,61.825,0,0,0,92.371,28.52a64.125,64.125,0,0,0-31.5,8.726A63.878,63.878,0,0,0,35.409,63.505c-5.478,10.794-12.1,33.669-1.457,48.475,1.9-3.745,3.959-7.451,6.147-11.061a155.1,155.1,0,0,1,9.855-14.476A100.177,100.177,0,0,1,62.979,72.326,58.84,58.84,0,0,1,76.708,63.2a44.038,44.038,0,0,1,18.718-4.365,41.852,41.852,0,0,1,15.808,3.143A31.806,31.806,0,0,1,129.07,81.758a41.123,41.123,0,0,1,1.551,18.768,57.69,57.69,0,0,1-8,21.711,66.455,66.455,0,0,1-11.85,13.27,73.819,73.819,0,0,1-14.853,10.058,70.7,70.7,0,0,1-32.5,7.839,81.821,81.821,0,0,1-16.8-1.782C44.01,157.672,41.4,163.981,39.989,167.825Zm42.417-74.2a75.377,75.377,0,0,0-12.7,14.3,153.309,153.309,0,0,0-10.252,16.859q1.684.1,3.368.109a45.493,45.493,0,0,0,21.109-5.075A30.117,30.117,0,0,0,90.9,114.9a37.931,37.931,0,0,0,10.179-12.951,16.258,16.258,0,0,0,1.426-9.811,5.056,5.056,0,0,0-3.421-4.079,12.2,12.2,0,0,0-3.285-.45h-.016C91.7,87.612,87.2,89.64,82.406,93.627Z" transform="translate(0 0)" fill="#fff"/>
      </g>
      <path id="Path_64" data-name="Path 64" d="M0,0" transform="translate(133.703 134.619)" stroke="#000" stroke-miterlimit="10" stroke-width="14"/>
    </g>
  </g>
</svg>
