<svg id="Group_74" data-name="Group 74" xmlns="http://www.w3.org/2000/svg" width="186.333" height="202.352" viewBox="0 0 186.333 202.352">
  <g id="Group_24" data-name="Group 24" transform="translate(0 0)">
    <path id="Union_5" data-name="Union 5" d="M36.243,196.315l-2.074-.488a51.679,51.679,0,0,1-7.943-2.364,11.235,11.235,0,0,1-4.246-3.06c-.924-1.2-1.339-1.739-1.789-2.257L4.8,170.442c-3.927-3.818-3-8.984-1.763-11.6.379-1.389,1.875-6,9.127-25.756,1.718-4.815,2.9-8.129,3.722-10.42a55.988,55.988,0,0,1-7.842-10.506A54.272,54.272,0,0,1,1.479,95.521C-1.309,82.832.362,70.831,2.258,63A82.425,82.425,0,0,1,19.388,29.274,86.152,86.152,0,0,1,53.206,5.3,81.375,81.375,0,0,1,68.916,1.061a78.258,78.258,0,0,1,25.858.03,83.152,83.152,0,0,1,31.329,12.1q1.862,1.214,3.648,2.519a78.65,78.65,0,0,1,15.44,13.361c5.565,6.4,18.276,21.253,18.276,21.253a89.409,89.409,0,0,1,22.087,71.494c-8.548,60.992-58.859,74.285-64.567,75.6l-.964.242a139.806,139.806,0,0,1-36.865,4.689A198.44,198.44,0,0,1,36.243,196.315ZM25.806,183.27c.545.632,1.051,1.285,1.559,1.942A4.225,4.225,0,0,0,29.31,186.7a42.977,42.977,0,0,0,6.479,1.874l2.182.512a191.32,191.32,0,0,0,45.186,5.834,132.27,132.27,0,0,0,34.9-4.426l1.281-.321c5.18-1.192,50.995-13.313,58.853-69.38a81.87,81.87,0,0,0-17.372-62.06q.62,1.963,1.125,3.971a101.164,101.164,0,0,1,1.39,38.437,91,91,0,0,1-9.492,28.176,89.449,89.449,0,0,1-11.911,17.213,59.4,59.4,0,0,1-6.077,6.059,85.911,85.911,0,0,1-16.733,11.275,99.046,99.046,0,0,1-18.169,7.134A137.14,137.14,0,0,1,64.9,175.818l-1.493-.008a205.347,205.347,0,0,1-24.654-1.581,159.618,159.618,0,0,1-22.208-4.264,14.221,14.221,0,0,1-3.767-1.663ZM44.18,141.816a137.982,137.982,0,0,0,18.492,1.249c13.7,0,25.414-1.914,35.227-5.686a52.781,52.781,0,0,0,21.009-14.7,55.377,55.377,0,0,0,9.371-17.2c4.524-13.145,8.762-38.391-13.68-59.8a48.427,48.427,0,0,0-11.041-7.524l-.46-.235Q98.05,43.334,91.872,50.085a39.523,39.523,0,0,1,7.671,2.278,31.177,31.177,0,0,1,17.532,19.4,38.976,38.976,0,0,1,1.452,17.725A52.9,52.9,0,0,1,111.2,109.4a60.336,60.336,0,0,1-10.856,12.185A66.756,66.756,0,0,1,87.017,130.6a63.762,63.762,0,0,1-29.152,7.066,73.875,73.875,0,0,1-11.582-.921C45.563,138.453,44.839,140.193,44.18,141.816ZM76.472,86.463a58.289,58.289,0,0,0-9.823,11.088q-2.39,3.419-4.542,6.975A33.01,33.01,0,0,0,72.856,101.1a21.237,21.237,0,0,0,4.879-3.433A27.428,27.428,0,0,0,85.3,88.136a9.415,9.415,0,0,0,.829-5.615c-.153,0-.7-.079-1.251-.079C82.55,82.441,79.643,83.833,76.472,86.463ZM57.8,39.535A49.341,49.341,0,0,0,38.116,59.8c-2.661,5.242-7.166,18.06-4.762,28.688.319-.541.641-1.084.966-1.618a136.555,136.555,0,0,1,8.542-12.554,89.191,89.191,0,0,1,11.5-12.463A53.9,53.9,0,0,1,66.95,53.488a41.647,41.647,0,0,1,15.365-4.018c5.135-5.632,9.57-10.44,13.4-14.536a47.266,47.266,0,0,0-13.728-2.128A49.27,49.27,0,0,0,57.8,39.535Z" transform="translate(0 0)" fill="#fff"/>
    <path id="Path_62" data-name="Path 62" d="M16.907,107.139a33.879,33.879,0,0,0-6.367,10.7c-3.319,9.026-9.276,25.338-9.7,27.374,0,0-2.481,4.4,1.06,7.854L17.3,170.773c.669.772,1.274,1.589,1.906,2.4a7.522,7.522,0,0,0,2.863,1.971,46.187,46.187,0,0,0,7.212,2.119c7.725,1.729,45.8,12.353,84.055,1.878q.559-.153,1.116-.279c5.326-1.227,53.5-13.868,61.72-72.492a85.807,85.807,0,0,0-21.23-68.561s-12.7-14.835-18.256-21.23A79.176,79.176,0,0,0,115.667.022C112.74-1.586,35.813,85.611,16.889,107.129Z" transform="translate(5.702 14.937)" fill="#fff" fill-rule="evenodd"/>
    <path id="Union_4" data-name="Union 4" d="M31,188.115a46.36,46.36,0,0,1-7.213-2.121,7.491,7.491,0,0,1-2.862-1.97c-.633-.809-1.236-1.626-1.906-2.4L3.624,163.919c-3.54-3.457-1.059-7.854-1.059-7.854.223-1.092,2.05-6.319,4.207-12.321l.01-.166.327-.892s4.166-11.338,7.331-19.945h-.005l.009-.01,1.833-4.985a48.8,48.8,0,0,1-8.628-10.54A51.732,51.732,0,0,1,1.407,91.366C-1.247,79.253.346,67.776,2.151,60.29A78.709,78.709,0,0,1,18.543,28.01,82.542,82.542,0,0,1,50.9,5.069,76.786,76.786,0,0,1,65.945,1.015,78.081,78.081,0,0,1,78.422,0h.014A69.388,69.388,0,0,1,90.621,1.04a79.619,79.619,0,0,1,30.03,11.583q1.6,1.047,3.147,2.164A75.279,75.279,0,0,1,138.4,27.431c5.559,6.394,18.255,21.231,18.255,21.231a85.809,85.809,0,0,1,21.23,68.559c-8.691,62.064-62.195,72.6-62.195,72.6a135.835,135.835,0,0,1-36.517,4.731C55.433,194.547,36.233,189.287,31,188.115Z" transform="translate(3.991 4.083)"/>
    <g id="Group_21" transform="translate(10.215 11.13)">
      <path id="Union_2" data-name="Union 2" d="M54.953,155.384a188.159,188.159,0,0,1-22.495-1.44,142.389,142.389,0,0,1-20.119-3.871c-2.433-.635-7.217-2.289-7.217-2.289l-2.686-.926.98-2.67c6.951-18.928,11.274-30.7,12.911-35.137A43.549,43.549,0,0,1,6.878,98.118a46.506,46.506,0,0,1-5.6-14.2C-1.142,72.852.323,62.35,1.976,55.488a72.5,72.5,0,0,1,15.086-29.7A75.937,75.937,0,0,1,46.888,4.653,70.673,70.673,0,0,1,60.68.939,72.3,72.3,0,0,1,72.146,0a66.48,66.48,0,0,1,11.2.951,72.107,72.107,0,0,1,45.536,27.179,81.369,81.369,0,0,1,9.9,16.417,59.907,59.907,0,0,1,3.788,10.682,89.974,89.974,0,0,1,1.22,34.125,80.2,80.2,0,0,1-18.935,40.156,52.411,52.411,0,0,1-5.261,5.248,76.544,76.544,0,0,1-14.756,9.953,88.288,88.288,0,0,1-16.148,6.343A123.287,123.287,0,0,1,65.978,155l.824.417Zm-23.7-24.216a132.355,132.355,0,0,0,22.907,2c13.294,0,24.695-1.874,34.3-5.568a53.363,53.363,0,0,0,21.2-14.841,55.384,55.384,0,0,0,9.507-17.372C123.7,82.22,127.94,56.907,105.384,35.4a49.5,49.5,0,0,0-11.29-7.71,48.321,48.321,0,0,0-21.9-5.4,50.118,50.118,0,0,0-24.617,6.82,49.925,49.925,0,0,0-19.9,20.524c-4.282,8.437-9.458,26.315-1.139,37.887,1.486-2.927,3.094-5.824,4.8-8.645a121.221,121.221,0,0,1,7.7-11.314,78.3,78.3,0,0,1,10.18-11.034A45.988,45.988,0,0,1,59.953,49.4a34.419,34.419,0,0,1,14.629-3.412,32.71,32.71,0,0,1,12.356,2.456A24.859,24.859,0,0,1,100.878,63.9a32.141,32.141,0,0,1,1.212,14.669,45.089,45.089,0,0,1-6.253,16.969,51.94,51.94,0,0,1-9.262,10.372,57.7,57.7,0,0,1-11.609,7.861,55.255,55.255,0,0,1-25.4,6.127,63.949,63.949,0,0,1-13.131-1.393C34.4,123.232,32.361,128.163,31.254,131.168ZM64.407,73.177A58.913,58.913,0,0,0,54.48,84.353a119.823,119.823,0,0,0-8.013,13.177q1.316.079,2.633.085a35.557,35.557,0,0,0,16.5-3.967,23.539,23.539,0,0,0,5.449-3.842A29.646,29.646,0,0,0,79,79.684a12.707,12.707,0,0,0,1.114-7.668,3.952,3.952,0,0,0-2.673-3.188,9.531,9.531,0,0,0-2.567-.352h-.012C71.672,68.475,68.154,70.06,64.407,73.177Z" transform="translate(0 0)" fill="#fff"/>
    </g>
    <path id="Path_64" data-name="Path 64" d="M0,0" transform="translate(104.499 105.215)" stroke="#000" stroke-miterlimit="10" stroke-width="14"/>
  </g>
</svg>
