<?xml version="1.0" encoding="UTF-8"?>
<svg id="Layer_1" xmlns="http://www.w3.org/2000/svg" version="1.1" viewBox="0 0 1000 1000">
  <!-- Generator: Adobe Illustrator 29.1.0, SVG Export Plug-In . SVG Version: 2.1.0 Build 142)  -->
  <defs>
    <style>
      .st0, .st1 {
        fill: #fff;
      }

      .st2 {
        stroke: #000;
        stroke-miterlimit: 10;
        stroke-width: 14px;
      }

      .st1 {
        fill-rule: evenodd;
      }

      .st3 {
        fill: #191919;
      }

      .st4 {
        fill: #ffd43c;
      }
    </style>
  </defs>
  <path class="st4" d="M966.56,184.21c-8.81-64.28-38.75-108.31-88.94-133.85-38.14-19.66-205.31-32.46-377.62-32.95-172.32.5-339.49,13.29-377.62,32.95-50.19,25.54-80.13,69.57-88.94,133.85-27.3,185.8-16.73,630.5,16.73,693.91,25.54,51.07,69.57,80.13,133.85,88.94,76.39,11.22,196.55,16.04,315.98,15.5,119.43.54,239.59-4.28,315.98-15.5,64.28-8.81,108.31-37.87,133.85-88.94,33.46-63.4,44.03-508.1,16.73-693.91Z"/>
  <g>
    <g id="Group_32">
      <g id="Group_24">
        <path id="Path_62" class="st1" d="M259.54,570.45c-9.4,10.69-16.75,23.02-21.66,36.39-11.28,30.7-31.55,86.18-32.97,93.09-4.8,8.73-3.34,19.57,3.6,26.72l52.35,60.22c2.28,2.62,4.33,5.41,6.49,8.15,2.68,2.96,6.01,5.26,9.74,6.7,7.97,3.07,16.17,5.48,24.53,7.21,26.27,5.9,155.75,42.01,285.88,6.38,1.27-.35,2.53-.66,3.79-.94,18.11-4.17,181.95-47.17,209.9-246.54,11.16-84.54-15.22-169.73-72.2-233.16,0,0-43.18-50.45-62.08-72.2-20.46-22.68-44.63-41.72-71.48-56.3-9.96-5.46-271.54,291.07-335.93,364.25l.04.03Z"/>
        <path id="Union_4" class="st3" d="M204.11,701.59c4.81-13.94,11.46-33.22,16.28-47.16,0,0,14.17-38.56,24.93-67.83l3.07-8.35c1.9-5.16.58-10.91-3.26-14.85-8.73-8.96-16.42-18.89-22.92-29.6-9.99-16.67-17.15-34.89-21.19-53.9-7.03-34.98-6.16-71.09,2.53-105.69,9.8-40.41,28.89-77.98,55.74-109.74,29.79-34.58,67.56-61.37,110.03-78.06,16.55-6.32,33.69-10.94,51.17-13.79,14.03-2.28,28.22-3.44,42.43-3.45h.05c13.89-.04,27.76,1.14,41.44,3.53,36.37,6.04,71.12,19.45,102.12,39.4,3.64,2.37,7.2,4.83,10.7,7.36,18.33,12.14,35.03,26.6,49.67,43.01,18.91,21.75,62.08,72.2,62.08,72.2,56.98,63.44,83.36,148.62,72.2,233.16-28.83,205.87-202.69,245.01-211.18,246.8l-.72.17c-40.35,10.9-81.99,16.28-123.78,15.98-55.31-.66-110.33-8-163.87-21.87-8.36-1.74-16.56-4.15-24.53-7.21-3.72-1.44-7.06-3.73-9.73-6.7-2.15-2.75-4.22-5.53-6.49-8.15l-52.34-60.22c-6.5-6.7-8.19-16.65-4.43-25.05"/>
        <path id="Path_64" class="st2" d="M538.02,513.11"/>
      </g>
    </g>
    <path id="Union_2" class="st0" d="M404.27,721.6c-30.37-.1-56.26-2.35-76.5-4.9-17.76-2.24-39.79-5.68-68.42-13.16-8.23-2.15-24.54-7.77-24.54-7.77-5.01-1.74-7.61-7.25-5.77-12.22v-.02c17.01-46.35,29.41-80.08,37.1-100.97,3.92-10.66,1.44-22.61-6.37-30.87-7.16-7.58-13.52-15.9-18.95-24.84-8.97-14.93-15.42-31.24-19.08-48.27-6.4-32.01-5.59-65.04,2.39-96.7,9.02-37.19,26.58-71.77,51.28-101,27.45-31.86,62.27-56.54,101.43-71.88,15.17-5.79,30.88-10.03,46.9-12.65,12.89-2.09,25.93-3.15,38.99-3.17,12.77,0,25.51,1.09,38.09,3.24,61.49,10.02,116.86,43.07,154.86,92.43,13.39,17.22,24.69,35.96,33.67,55.83,5.44,11.67,9.76,23.83,12.91,36.32,8.78,38.07,10.19,77.46,4.15,116.05-8.19,50.67-30.51,98.01-64.39,136.56-5.53,6.37-11.51,12.33-17.89,17.85-4.27,3.69-21.74,19.08-50.18,33.85-7.26,3.77-26.26,13.24-54.92,21.57-24.72,7.19-63.9,15.66-114.76,14.72ZM330.4,622.09c-3.61,8.85,2.1,18.75,11.57,20.02,19.74,2.64,39.64,3.97,59.57,3.98,39.72.88,79.27-5.54,116.67-18.96,27.81-10.65,52.58-27.98,72.11-50.47,14.24-17.59,25.19-37.6,32.33-59.08,15.42-44.79,29.87-130.87-46.87-204-11.52-10.47-24.45-19.3-38.4-26.22-23.03-11.92-48.54-18.22-74.47-18.38-29.44.37-58.29,8.36-83.72,23.2-28.88,16.17-52.41,40.43-67.68,69.8-12.85,25.29-28.05,75.55-12.09,114.08,2.77,6.69,12.07,7.22,15.57.88,2.88-5.22,5.87-10.39,8.96-15.48,8-13.31,16.74-26.16,26.19-38.48,10.32-13.59,21.91-26.16,34.63-37.53,10.97-9.76,23.25-17.92,36.5-24.25,15.53-7.48,32.52-11.45,49.75-11.6,14.42.04,28.69,2.87,42.02,8.36,22.73,9.75,40.05,28.96,47.4,52.57,5.22,16.09,6.63,33.16,4.12,49.89-3.12,20.47-10.35,40.1-21.27,57.71-8.87,13.12-19.46,24.98-31.5,35.27-12.03,10.48-25.28,19.46-39.48,26.73-26.72,13.75-56.34,20.9-86.39,20.84-10.26-.02-20.49-.77-30.63-2.23-8.42-1.22-16.61,3.42-19.9,11.27-1.75,4.17-3.44,8.25-5.01,12.1ZM436.38,442.05c-12.81,11.19-24.15,23.96-33.73,38.01-8.34,11.91-16.03,24.25-23.04,36.98-2.01,3.64.59,8.1,4.75,8.12h0c19.52.1,38.77-4.53,56.11-13.49,6.77-3.45,13.01-7.85,18.54-13.06,0,0,.01,0,.02-.01,11.43-9.35,20.66-21.1,27.04-34.42,3.95-8.09,5.27-17.21,3.79-26.08-.73-5.05-4.25-9.25-9.09-10.84-2.84-.79-5.78-1.2-8.73-1.2h0c-13.37,1.04-25.96,6.69-35.63,15.98l-.03.02Z"/>
  </g>
</svg>