<svg xmlns="http://www.w3.org/2000/svg" width="83.755" height="76.941" viewBox="0 0 83.755 76.941">
  <g id="HeartHandshake" transform="translate(0 -3)">
    <path id="Path_128" data-name="Path 128" d="M8.687,50.812C3.769,45.757,1,38.127,1,30.965A27.367,27.367,0,0,1,8.687,11.886,25.647,25.647,0,0,1,41.879,8.624a25.971,25.971,0,0,1,4.65-2.572,25.523,25.523,0,0,1,20.035,0,26.167,26.167,0,0,1,8.5,5.838,27.011,27.011,0,0,1,5.689,8.744,27.631,27.631,0,0,1,2,10.332c0,5.91-1.987,14.112-7.68,19.83a.048.048,0,0,1-.034.014h0a.048.048,0,0,0-.034.014L49.237,75.946a10.549,10.549,0,0,1-14.721.005Zm0,0h.042" fill="none" stroke="#dbdbdb" stroke-linejoin="round" stroke-width="2"/>
    <path id="Path_129" data-name="Path 129" d="M27.463,50.353l7.7-10.788" transform="translate(8.432 11.333)" fill="none" stroke="#828282" stroke-linecap="round" stroke-linejoin="round" stroke-width="2"/>
    <path id="Path_130" data-name="Path 130" d="M52.934,38.008,43.767,27.364l-1,1.015a7.061,7.061,0,0,0-.69,9.855l4.28,5.583-.009-.011" transform="translate(12.552 7.445)" fill="none" stroke="#000" stroke-linejoin="round" stroke-width="2"/>
    <path id="Path_131" data-name="Path 131" d="M36.818,51.578l-2.48-3.306a7.061,7.061,0,0,1,.69-9.855l1-1.015,7.792,9.1" transform="translate(10.087 10.643)" fill="none" stroke="#000" stroke-linejoin="round" stroke-width="2"/>
    <path id="Path_132" data-name="Path 132" d="M42.848,48.456l-6.889-8.079a6.937,6.937,0,0,1,.854-9.665l1-1.013L48.846,43.376" transform="translate(10.637 8.189)" fill="none" stroke="#000" stroke-linejoin="round" stroke-width="2"/>
    <path id="Path_133" data-name="Path 133" d="M30.328,27.259h0A102.135,102.135,0,0,0,20.2,40.809l-3.5,5.591L36.819,64.894,61.143,42.517A17.694,17.694,0,0,0,51.727,11.6a17.46,17.46,0,0,0-14.862,5.571" transform="translate(5.004 2.386)" fill="none" stroke="#828282" stroke-linecap="square" stroke-linejoin="round" stroke-width="2"/>
    <path id="Path_134" data-name="Path 134" d="M28.124,35.854l-6,8.765" transform="translate(6.732 10.15)" fill="none" stroke="#828282" stroke-linecap="round" stroke-linejoin="round" stroke-width="2"/>
    <path id="Path_135" data-name="Path 135" d="M22.7,23.163a9.8,9.8,0,0,0,8.71,3.355l4.641-.657,1.062,1.192a7.227,7.227,0,0,0,11.2-.186l-9.161-9.676a17.2,17.2,0,0,0-14.742-5.565,17.755,17.755,0,0,0-9.378,30.937L17.9,45.056" transform="translate(2.549 2.395)" fill="none" stroke="#000" stroke-linecap="square" stroke-linejoin="round" stroke-width="2"/>
  </g>
</svg>
