<svg xmlns="http://www.w3.org/2000/svg" xmlns:xlink="http://www.w3.org/1999/xlink" width="70.941" height="75" viewBox="0 0 70.941 75">
  <defs>
    <clipPath id="clip-path">
      <rect id="Rectangle_166" data-name="Rectangle 166" width="70.941" height="75" fill="#fff"/>
    </clipPath>
  </defs>
  <g id="_6683040b314d340e3bcec9f2_6682d37febd404a3efaffc81_Caregivers40_20Webflow" data-name="6683040b314d340e3bcec9f2_6682d37febd404a3efaffc81_Caregivers40%20Webflow" clip-path="url(#clip-path)">
    <path id="Path_223" data-name="Path 223" d="M17.082,32.21a11.036,11.036,0,0,1-2.7-7.267,9.7,9.7,0,0,1,2.751-6.872,8.856,8.856,0,0,1,11.5-1.147L32.1,19.342l3.479-2.418a9.007,9.007,0,0,1,1.616-.9,8.836,8.836,0,0,1,6.909,0,9.042,9.042,0,0,1,2.973,2.048A9.675,9.675,0,0,1,49.11,21.2a10,10,0,0,1,.728,3.751,11.056,11.056,0,0,1-2.393,6.934l-.3.3L32.109,46.855,17.094,32.222Z" transform="translate(3.362 3.581)" fill="none" stroke="#000" stroke-linejoin="round" stroke-width="2"/>
    <path id="Path_224" data-name="Path 224" d="M30.71,49.9l14.719-1.172v-.568a5.889,5.889,0,0,0-6.045-5.885l-8.723.234-5.885-.654a13.937,13.937,0,0,0-13.14,6.119L8.49,52.432M19.927,59.8l3.923-4.121H38.187a15.234,15.234,0,0,0,10.08-3.8L54.843,46.1l6.095-5.922-1.382-1.406a5.861,5.861,0,0,0-7.612-.666l-8.007,5.712" transform="translate(1.985 8.651)" fill="none" stroke="#898989" stroke-linecap="round" stroke-linejoin="round" stroke-width="2"/>
    <path id="Path_225" data-name="Path 225" d="M69.841,64.029a9.867,9.867,0,0,1-9.87,9.87H10.62a9.867,9.867,0,0,1-9.87-9.87V27.571a9.859,9.859,0,0,1,4.293-8.143L29.817,2.477A9.891,9.891,0,0,1,41,2.489l24.577,16.94a9.862,9.862,0,0,1,4.269,8.13v36.47Z" transform="translate(0.175 0.176)" fill="none" stroke="#dbdbdb" stroke-miterlimit="10" stroke-width="2"/>
  </g>
</svg>
