<svg xmlns="http://www.w3.org/2000/svg" width="75.456" height="77.457" viewBox="0 0 75.456 77.457">
  <g id="Startups" transform="translate(-3 -1.11)">
    <path id="Path_233" data-name="Path 233" d="M28.743,57.182V34.528" transform="translate(7.509 9.837)" fill="none" stroke="#000" stroke-width="2"/>
    <path id="Path_234" data-name="Path 234" d="M28.743,42.279A30.314,30.314,0,0,1,59.057,11.965,30.314,30.314,0,0,1,28.743,42.279Z" transform="translate(7.509 2.99)" fill="none" stroke="#000" stroke-linejoin="round" stroke-width="2"/>
    <path id="Path_235" data-name="Path 235" d="M33.854,40.332A21.951,21.951,0,0,0,11.9,18.38,21.951,21.951,0,0,0,33.854,40.332Z" transform="translate(2.398 4.937)" fill="none" stroke="#000" stroke-linejoin="round" stroke-width="2"/>
    <path id="Path_236" data-name="Path 236" d="M50.035,53.517a6.517,6.517,0,1,0-13.035,0" transform="translate(10.014 13.622)" fill="none" stroke="#828282" stroke-width="2"/>
    <path id="Path_237" data-name="Path 237" d="M12,52H64.139" transform="translate(2.428 15.139)" fill="none" stroke="#828282" stroke-linecap="round" stroke-width="2"/>
    <path id="Path_238" data-name="Path 238" d="M70.584,2.127C55.506,3.162,41.386,8.744,34.2,18.672c-6.435-6.608-15.086-9.715-23.764-10.21A6.3,6.3,0,0,0,4,15.007V67.139A10.428,10.428,0,0,0,14.428,77.567h52.6A10.428,10.428,0,0,0,77.456,67.139V8.846A6.559,6.559,0,0,0,70.584,2.127Z" transform="translate(0 0)" fill="none" stroke="#dbdbdb" stroke-width="2"/>
  </g>
</svg>
