<svg xmlns="http://www.w3.org/2000/svg" width="100%" height="auto" viewBox="0 0 278.438 66.452">
  <g id="Group_89" data-name="Group 89" transform="translate(-392 -89)">
    <g id="Group_32" data-name="Group 32" transform="translate(392 92)">
      <g id="Group_24" data-name="Group 24" transform="translate(0 0)">
        <path id="Union_5" data-name="Union 5" d="M11.365,61.559l-.65-.153a16.2,16.2,0,0,1-2.491-.741,3.523,3.523,0,0,1-1.331-.96c-.29-.375-.42-.545-.561-.708L1.505,53.446A3.173,3.173,0,0,1,.953,49.81c.119-.435.588-1.882,2.862-8.076.539-1.51.91-2.549,1.167-3.267a17.557,17.557,0,0,1-2.459-3.294A17.018,17.018,0,0,1,.464,29.953a23.06,23.06,0,0,1,.244-10.2A25.846,25.846,0,0,1,6.08,9.18a27.015,27.015,0,0,1,10.6-7.517A25.517,25.517,0,0,1,21.61.333a24.539,24.539,0,0,1,8.109.009,26.074,26.074,0,0,1,9.824,3.8q.584.381,1.144.79a24.663,24.663,0,0,1,4.841,4.19c1.745,2.008,5.731,6.664,5.731,6.664A28.036,28.036,0,0,1,58.185,38.2C55.5,57.325,39.728,61.494,37.938,61.906l-.3.076a43.839,43.839,0,0,1-11.56,1.47A62.226,62.226,0,0,1,11.365,61.559Zm-3.273-4.09c.171.2.33.4.489.609a1.325,1.325,0,0,0,.61.465,13.476,13.476,0,0,0,2.032.588l.684.16a59.992,59.992,0,0,0,14.169,1.83,41.476,41.476,0,0,0,10.943-1.388l.4-.1c1.624-.374,15.991-4.175,18.455-21.756a25.672,25.672,0,0,0-5.447-19.46q.194.616.353,1.245a31.723,31.723,0,0,1,.436,12.053,28.536,28.536,0,0,1-2.977,8.835,28.049,28.049,0,0,1-3.735,5.4,18.626,18.626,0,0,1-1.906,1.9,26.939,26.939,0,0,1-5.247,3.536,31.058,31.058,0,0,1-5.7,2.237,43,43,0,0,1-11.3,1.512l-.468,0a64.39,64.39,0,0,1-7.731-.5A50.053,50.053,0,0,1,5.188,53.3a4.46,4.46,0,0,1-1.181-.521Zm5.761-13a43.268,43.268,0,0,0,5.8.392A30.762,30.762,0,0,0,30.7,43.079a16.551,16.551,0,0,0,6.588-4.611,17.365,17.365,0,0,0,2.939-5.393c1.419-4.122,2.748-12.038-4.29-18.751a15.185,15.185,0,0,0-3.462-2.359l-.144-.074q-1.583,1.7-3.521,3.815a12.393,12.393,0,0,1,2.405.714,9.776,9.776,0,0,1,5.5,6.085,12.222,12.222,0,0,1,.455,5.558,16.589,16.589,0,0,1-2.3,6.243,18.92,18.92,0,0,1-3.4,3.821,20.933,20.933,0,0,1-4.178,2.826,19.994,19.994,0,0,1-9.141,2.216,23.166,23.166,0,0,1-3.632-.289C14.287,43.415,14.06,43.961,13.854,44.47ZM23.98,27.113A18.278,18.278,0,0,0,20.9,30.59q-.749,1.072-1.424,2.187A10.351,10.351,0,0,0,22.846,31.7a6.659,6.659,0,0,0,1.53-1.076,8.6,8.6,0,0,0,2.372-2.99,2.952,2.952,0,0,0,.26-1.761c-.048,0-.219-.025-.392-.025A4.536,4.536,0,0,0,23.98,27.113ZM18.126,12.4a15.472,15.472,0,0,0-6.174,6.354c-.834,1.644-2.247,5.663-1.493,9,.1-.17.2-.34.3-.507A42.82,42.82,0,0,1,13.441,23.3a27.968,27.968,0,0,1,3.608-3.908,16.9,16.9,0,0,1,3.945-2.622,13.059,13.059,0,0,1,4.818-1.26c1.61-1.766,3-3.274,4.2-4.558a14.821,14.821,0,0,0-4.3-.667A15.45,15.45,0,0,0,18.126,12.4Z" transform="translate(0 0)" fill="#fff"/>
        <path id="Path_62" data-name="Path 62" d="M1266.482,242.012a10.625,10.625,0,0,0-2,3.355c-1.041,2.83-2.909,7.945-3.04,8.584a2.091,2.091,0,0,0,.332,2.463l4.827,5.552c.21.242.4.5.6.752a2.359,2.359,0,0,0,.9.618,14.484,14.484,0,0,0,2.262.665c2.422.542,14.361,3.874,26.358.589q.175-.048.35-.087c1.67-.385,16.777-4.349,19.354-22.732a26.907,26.907,0,0,0-6.657-21.5s-3.981-4.652-5.724-6.657a24.825,24.825,0,0,0-6.59-5.191c-.918-.5-25.04,26.839-30.974,33.586Z" transform="translate(-1259.392 -203.732)" fill="#fff" fill-rule="evenodd"/>
        <path id="Union_4" data-name="Union 4" d="M9.72,58.988a14.537,14.537,0,0,1-2.262-.665,2.349,2.349,0,0,1-.9-.618c-.2-.254-.388-.51-.6-.752L1.136,51.4A2.092,2.092,0,0,1,.8,48.938c.07-.342.643-1.981,1.319-3.863l0-.052.1-.28s1.306-3.555,2.3-6.254h0l0,0L5.1,36.922A15.3,15.3,0,0,1,2.4,33.617,16.222,16.222,0,0,1,.441,28.65a22.119,22.119,0,0,1,.233-9.745A24.681,24.681,0,0,1,5.815,8.783,25.883,25.883,0,0,1,15.96,1.59,24.078,24.078,0,0,1,20.679.318,24.484,24.484,0,0,1,24.591,0h0a21.758,21.758,0,0,1,3.821.326,24.966,24.966,0,0,1,9.417,3.632q.5.328.987.679A23.605,23.605,0,0,1,43.4,8.6c1.743,2.005,5.724,6.657,5.724,6.657a26.908,26.908,0,0,1,6.657,21.5c-2.725,19.462-19.5,22.764-19.5,22.764A42.594,42.594,0,0,1,24.828,61,63.259,63.259,0,0,1,9.72,58.988Z" transform="translate(1.252 1.28)"/>
        <g id="Group_21" transform="translate(3.203 3.49)">
          <path id="Union_2" data-name="Union 2" d="M17.232,48.724a59,59,0,0,1-7.054-.451,44.649,44.649,0,0,1-6.309-1.214c-.763-.2-2.263-.718-2.263-.718l-.842-.29.307-.837C3.251,39.278,4.607,35.588,5.12,34.2a13.656,13.656,0,0,1-2.963-3.429A14.583,14.583,0,0,1,.4,26.315,20.248,20.248,0,0,1,.62,17.4,22.733,22.733,0,0,1,5.35,8.085,23.812,23.812,0,0,1,14.7,1.459,22.161,22.161,0,0,1,19.028.294,22.673,22.673,0,0,1,22.623,0a20.846,20.846,0,0,1,3.512.3A22.611,22.611,0,0,1,40.414,8.821a25.515,25.515,0,0,1,3.105,5.148,18.785,18.785,0,0,1,1.188,3.35,28.213,28.213,0,0,1,.383,10.7,25.149,25.149,0,0,1-5.938,12.592,16.435,16.435,0,0,1-1.65,1.646,24,24,0,0,1-4.627,3.121,27.684,27.684,0,0,1-5.063,1.989,38.66,38.66,0,0,1-7.123,1.239l.259.131ZM9.8,41.131a41.5,41.5,0,0,0,7.183.629,29.892,29.892,0,0,0,10.754-1.746,16.733,16.733,0,0,0,6.649-4.654,17.367,17.367,0,0,0,2.981-5.447c1.422-4.13,2.751-12.068-4.322-18.81a15.523,15.523,0,0,0-3.54-2.418A15.152,15.152,0,0,0,22.638,6.99a15.716,15.716,0,0,0-7.719,2.139,15.655,15.655,0,0,0-6.241,6.436c-1.343,2.645-2.966,8.252-.357,11.88.466-.918.97-1.826,1.506-2.711a38.011,38.011,0,0,1,2.415-3.548,24.552,24.552,0,0,1,3.192-3.46A14.421,14.421,0,0,1,18.8,15.49a10.793,10.793,0,0,1,4.587-1.07,10.257,10.257,0,0,1,3.874.77,7.8,7.8,0,0,1,4.371,4.847,10.079,10.079,0,0,1,.38,4.6,14.139,14.139,0,0,1-1.961,5.321,16.287,16.287,0,0,1-2.9,3.252,18.092,18.092,0,0,1-3.64,2.465A17.326,17.326,0,0,1,15.542,37.6a20.053,20.053,0,0,1-4.118-.437C10.786,38.642,10.147,40.189,9.8,41.131ZM20.2,22.946a18.474,18.474,0,0,0-3.113,3.5,37.573,37.573,0,0,0-2.513,4.132q.413.025.826.027a11.15,11.15,0,0,0,5.173-1.244,7.381,7.381,0,0,0,1.709-1.2,9.3,9.3,0,0,0,2.495-3.174,3.985,3.985,0,0,0,.349-2.4,1.239,1.239,0,0,0-.838-1,2.989,2.989,0,0,0-.805-.11h0A5.341,5.341,0,0,0,20.2,22.946Z" transform="translate(0)" fill="#fff"/>
        </g>
        <path id="Path_64" data-name="Path 64" d="M1367.47,305.54" transform="translate(-1334.702 -272.547)" stroke="#000" stroke-miterlimit="10" stroke-width="14"/>
      </g>
    </g>
    <text id="Creative_" data-name="Creative® " transform="translate(518.438 135.928)" font-size="34" font-family="Sora-Bold, Sora" font-weight="700" letter-spacing="-0.056em"><tspan x="0" y="0">Creative</tspan><tspan y="0" font-size="19.832" baseline-shift="11.332199483839085">® </tspan></text>
    <text id="eo" transform="translate(455.227 137)" font-size="49" font-family="Sora-Light, Sora" font-weight="300" letter-spacing="-0.056em"><tspan x="0" y="0">eo</tspan></text>
  </g>
</svg>
