<svg xmlns="http://www.w3.org/2000/svg" width="108.994" height="19.985" viewBox="0 0 108.994 19.985">
  <path id="path2859" d="M318.587-465.387h-5.856v7.625h-6.1v-7.625H300.78V-446.2h5.856v-7.546h6.1v7.546h5.856Zm20.37,15.329v-15.329H333.1V-446.2h10.588l.881-3.855Zm-10.185-15.329h-5.856V-446.2h5.856Zm23.739,0h-5.853V-446.2h5.853Zm28.87,4.9c0-1.044,1.044-1.527,2.726-1.527a14.669,14.669,0,0,1,5.215.968l-.48-4.176a22.9,22.9,0,0,0-5.373-.562c-4.733,0-7.941,1.867-7.941,5.779,0,6.742,9.146,5.379,9.146,8.508,0,1.2-.886,1.843-3.051,1.843a17.513,17.513,0,0,1-6.657-1.524l.643,4.416a19.327,19.327,0,0,0,6.1.962c4.891,0,8.9-1.606,8.9-6.423,0-6.417-9.225-5.215-9.225-8.266m-16.518,9.713c5.45,0,8.9-2.811,8.9-7.707,0-5.376-3.688-7.3-9.705-7.3a66.1,66.1,0,0,0-7.137.4V-446.2h5.856v-4.575Zm3.127-7.625c0,2.486-1.2,4.174-4.253,4.174h-.96v-7.928c.341-.019.66-.019.96-.019,2.887,0,4.253,1.363,4.253,3.773m-78.437,7.625c5.452,0,8.9-2.811,8.9-7.707,0-5.376-3.688-7.3-9.7-7.3a66.156,66.156,0,0,0-7.14.4V-446.2h5.856v-4.575Zm3.13-7.625c0,2.486-1.2,4.174-4.253,4.174h-.962v-7.928c.341-.019.662-.019.962-.019,2.887,0,4.253,1.363,4.253,3.773" transform="translate(-281.612 465.788)"/>
</svg>
