<svg xmlns="http://www.w3.org/2000/svg" width="236.77" height="88.001" viewBox="0 0 236.77 88.001">
  <g id="Group_93" data-name="Group 93" transform="translate(-104.109 -167.697)">
    <g id="Group_31" data-name="Group 31" transform="translate(-2660.121 -8523.303)">
      <g id="Group_27" data-name="Group 27" transform="translate(709 38.017)">
        <text id="Creative_" data-name="Creative® " transform="translate(2136 8730.983)" font-size="35" font-family="Sora-Bold, Sora" font-weight="700" letter-spacing="-0.056em"><tspan x="0" y="0">Creative</tspan><tspan y="0" font-size="20.416" baseline-shift="11.66550036619524">® </tspan></text>
        <text id="eo" transform="translate(2134 8698.983)" font-size="47" font-family="Sora-Light, Sora" font-weight="300" letter-spacing="-0.056em"><tspan x="0" y="0">eo</tspan></text>
      </g>
    </g>
    <g id="Group_92" data-name="Group 92" transform="translate(-2719.391 -8796.906)">
      <g id="Group_24" data-name="Group 24" transform="translate(1568.454 8778.654)">
        <path id="Union_5" data-name="Union 5" d="M14.616,79.17l-.836-.2a20.841,20.841,0,0,1-3.2-.953,4.531,4.531,0,0,1-1.712-1.234c-.373-.482-.54-.7-.721-.91L1.936,68.736a4.081,4.081,0,0,1-.711-4.677c.153-.56.756-2.42,3.681-10.387.693-1.942,1.17-3.278,1.5-4.2a22.579,22.579,0,0,1-3.163-4.237A21.887,21.887,0,0,1,.6,38.522,29.657,29.657,0,0,1,.91,25.408a33.24,33.24,0,0,1,6.908-13.6A34.743,34.743,0,0,1,21.457,2.138,32.817,32.817,0,0,1,27.793.428,31.56,31.56,0,0,1,38.221.44,33.533,33.533,0,0,1,50.855,5.32q.751.49,1.471,1.016a31.718,31.718,0,0,1,6.226,5.388c2.244,2.582,7.37,8.571,7.37,8.571A36.057,36.057,0,0,1,74.83,49.128c-3.447,24.6-23.737,29.958-26.039,30.488l-.389.1A56.381,56.381,0,0,1,33.535,81.6,80.027,80.027,0,0,1,14.616,79.17Zm-4.209-5.261c.22.255.424.518.629.783a1.7,1.7,0,0,0,.784.6,17.331,17.331,0,0,0,2.613.756l.88.206a77.155,77.155,0,0,0,18.222,2.353,53.342,53.342,0,0,0,14.074-1.785l.517-.129c2.089-.481,20.565-5.369,23.734-27.98a33.017,33.017,0,0,0-7.006-25.028q.25.792.453,1.6a40.8,40.8,0,0,1,.56,15.5A36.7,36.7,0,0,1,62.041,52.15a36.073,36.073,0,0,1-4.8,6.942,23.954,23.954,0,0,1-2.451,2.443,34.646,34.646,0,0,1-6.748,4.547,39.943,39.943,0,0,1-7.327,2.877A55.306,55.306,0,0,1,26.173,70.9l-.6,0a82.811,82.811,0,0,1-9.943-.638,64.371,64.371,0,0,1-8.956-1.72,5.735,5.735,0,0,1-1.519-.671Zm7.41-16.718a55.645,55.645,0,0,0,7.458.5A39.562,39.562,0,0,0,39.481,55.4a21.286,21.286,0,0,0,8.473-5.93,22.332,22.332,0,0,0,3.779-6.936c1.825-5.3,3.534-15.482-5.517-24.115a19.53,19.53,0,0,0-4.453-3.034l-.185-.095Q39.542,17.476,37.05,20.2a15.939,15.939,0,0,1,3.094.918,12.573,12.573,0,0,1,7.07,7.826,15.718,15.718,0,0,1,.586,7.148,21.335,21.335,0,0,1-2.956,8.029,24.332,24.332,0,0,1-4.378,4.914,26.921,26.921,0,0,1-5.373,3.634,25.714,25.714,0,0,1-11.757,2.849,29.792,29.792,0,0,1-4.671-.371C18.375,55.835,18.083,56.537,17.817,57.192ZM30.84,34.869a23.507,23.507,0,0,0-3.961,4.472q-.964,1.379-1.832,2.813a13.312,13.312,0,0,0,4.335-1.38,8.564,8.564,0,0,0,1.968-1.384,11.061,11.061,0,0,0,3.05-3.846,3.8,3.8,0,0,0,.334-2.265c-.062,0-.282-.032-.5-.032A5.834,5.834,0,0,0,30.84,34.869ZM23.312,15.944a19.9,19.9,0,0,0-7.94,8.172c-1.073,2.114-2.89,7.283-1.921,11.569.129-.218.259-.437.39-.653a55.069,55.069,0,0,1,3.445-5.063,35.969,35.969,0,0,1,4.64-5.026A21.737,21.737,0,0,1,27,21.571a16.8,16.8,0,0,1,6.2-1.62c2.071-2.271,3.859-4.21,5.4-5.862a19.061,19.061,0,0,0-5.536-.858A19.869,19.869,0,0,0,23.312,15.944Z" transform="translate(1255.046 192.346)" fill="#fff"/>
        <path id="Path_62" data-name="Path 62" d="M1268,251.623a13.662,13.662,0,0,0-2.568,4.315c-1.338,3.64-3.741,10.219-3.91,11.039a2.689,2.689,0,0,0,.427,3.168l6.208,7.141c.27.311.514.641.769.967a3.034,3.034,0,0,0,1.155.795,18.63,18.63,0,0,0,2.909.855c3.115.7,18.469,4.982,33.9.757q.225-.062.45-.112c2.148-.495,21.576-5.593,24.89-29.235a34.6,34.6,0,0,0-8.562-27.649s-5.12-5.983-7.362-8.562a31.929,31.929,0,0,0-8.476-6.676c-1.181-.648-32.2,34.516-39.835,43.194Z" transform="translate(-3.835 -10.047)" fill="#fff" fill-rule="evenodd"/>
        <path id="Union_4" data-name="Union 4" d="M12.5,75.863a18.7,18.7,0,0,1-2.909-.855,3.021,3.021,0,0,1-1.154-.794c-.255-.326-.5-.656-.769-.967L1.461,66.106a2.69,2.69,0,0,1-.427-3.168c.09-.44.827-2.548,1.7-4.969l0-.067.132-.36s1.68-4.572,2.956-8.043h0l0,0,.739-2.01a19.678,19.678,0,0,1-3.48-4.251A20.862,20.862,0,0,1,.568,36.846a28.447,28.447,0,0,1,.3-12.533A31.742,31.742,0,0,1,7.478,11.3,33.287,33.287,0,0,1,20.526,2.044,30.966,30.966,0,0,1,26.594.409,31.488,31.488,0,0,1,31.626,0h.006a27.983,27.983,0,0,1,4.914.419A32.109,32.109,0,0,1,48.656,5.091q.647.422,1.269.873a30.358,30.358,0,0,1,5.89,5.1c2.242,2.579,7.362,8.562,7.362,8.562a34.6,34.6,0,0,1,8.562,27.649C68.235,72.3,46.658,76.549,46.658,76.549a54.779,54.779,0,0,1-14.726,1.908A81.356,81.356,0,0,1,12.5,75.863Z" transform="translate(1256.656 193.993)"/>
        <g id="Group_21" transform="translate(1259.166 196.834)">
          <path id="Union_2" data-name="Union 2" d="M22.162,62.663a75.882,75.882,0,0,1-9.072-.581,57.423,57.423,0,0,1-8.114-1.561C4,60.266,2.066,59.6,2.066,59.6L.983,59.225l.4-1.077c2.8-7.633,4.547-12.379,5.207-14.17a17.562,17.562,0,0,1-3.811-4.41A18.755,18.755,0,0,1,.517,33.844,26.041,26.041,0,0,1,.8,22.377,29.237,29.237,0,0,1,6.881,10.4,30.624,30.624,0,0,1,18.909,1.876a28.5,28.5,0,0,1,5.562-1.5A29.159,29.159,0,0,1,29.095,0a26.81,26.81,0,0,1,4.517.384A29.079,29.079,0,0,1,51.976,11.345a32.814,32.814,0,0,1,3.993,6.621A24.159,24.159,0,0,1,57.5,22.273a36.285,36.285,0,0,1,.492,13.762,32.343,32.343,0,0,1-7.636,16.194,21.136,21.136,0,0,1-2.122,2.117,30.869,30.869,0,0,1-5.951,4.014,35.6,35.6,0,0,1-6.512,2.558,49.719,49.719,0,0,1-9.161,1.593l.332.168ZM12.6,52.9a53.377,53.377,0,0,0,9.238.808A38.443,38.443,0,0,0,35.673,51.46a21.52,21.52,0,0,0,8.551-5.985,22.335,22.335,0,0,0,3.834-7.006C49.887,33.158,51.6,22.95,42.5,14.278a19.964,19.964,0,0,0-4.553-3.109,19.487,19.487,0,0,0-8.831-2.18,20.212,20.212,0,0,0-9.928,2.751,20.134,20.134,0,0,0-8.026,8.277C9.434,23.419,7.347,30.629,10.7,35.3c.6-1.18,1.248-2.349,1.937-3.486a48.885,48.885,0,0,1,3.106-4.563A31.575,31.575,0,0,1,19.85,22.8a18.546,18.546,0,0,1,4.328-2.876,13.881,13.881,0,0,1,5.9-1.376,13.191,13.191,0,0,1,4.983.991,10.025,10.025,0,0,1,5.621,6.234,12.962,12.962,0,0,1,.489,5.916,18.184,18.184,0,0,1-2.522,6.843,20.946,20.946,0,0,1-3.735,4.183,23.267,23.267,0,0,1-4.682,3.17,22.283,22.283,0,0,1-10.244,2.471,25.789,25.789,0,0,1-5.3-.562C13.872,49.7,13.05,51.686,12.6,52.9Zm13.37-23.387a23.759,23.759,0,0,0-4,4.507,48.322,48.322,0,0,0-3.231,5.314q.531.032,1.062.034a14.339,14.339,0,0,0,6.654-1.6,9.493,9.493,0,0,0,2.2-1.549,11.956,11.956,0,0,0,3.208-4.082,5.124,5.124,0,0,0,.449-3.093,1.594,1.594,0,0,0-1.078-1.286,3.844,3.844,0,0,0-1.035-.142h0A6.869,6.869,0,0,0,25.974,29.511Z" transform="translate(0)" fill="#fff"/>
        </g>
        <path id="Path_64" data-name="Path 64" d="M1367.47,305.54" transform="translate(-70.281 -70.763)" stroke="#000" stroke-miterlimit="10" stroke-width="14"/>
      </g>
    </g>
  </g>
</svg>
