<svg xmlns="http://www.w3.org/2000/svg" width="76.454" height="76.454" viewBox="0 0 76.454 76.454">
  <g id="_6517042770ab6ed3c2a6453a_Scalability" data-name="6517042770ab6ed3c2a6453a_Scalability" transform="translate(1 1)">
    <rect id="Rectangle_157" data-name="Rectangle 157" width="26" height="27" rx="2" transform="translate(13.343 35)" fill="none" stroke="#828282" stroke-width="2"/>
    <path id="Path_170" data-name="Path 170" d="M5,9.515A5.515,5.515,0,0,1,10.515,4H73.939a5.515,5.515,0,0,1,5.515,5.515V72.939a5.515,5.515,0,0,1-5.515,5.515H10.515A5.515,5.515,0,0,1,5,72.939Z" transform="translate(-5 -4)" fill="none" stroke="#dbdbdb" stroke-width="2"/>
    <path id="Path_171" data-name="Path 171" d="M46.655,62.636H60.879a2.758,2.758,0,0,0,2.758-2.758V15.758A2.758,2.758,0,0,0,60.879,13H16.758A2.758,2.758,0,0,0,14,15.758V29.981" transform="translate(-1.591 -0.591)" fill="none" stroke="#000" stroke-width="2"/>
  </g>
</svg>
