<svg xmlns="http://www.w3.org/2000/svg" width="76.941" height="76.941" viewBox="0 0 76.941 76.941">
  <g id="Group_90" data-name="Group 90" transform="translate(-393 -2576.514)">
    <g id="Refresh" transform="translate(401.236 2584.75)">
      <path id="Path_242" data-name="Path 242" d="M56.468,30.234c-18.861,0-26.234,7.373-26.234,26.234,0-18.861-7.373-26.234-26.234-26.234,18.861,0,26.234-7.373,26.234-26.234C30.234,22.861,37.607,30.234,56.468,30.234Z" transform="translate(0 0)" fill="none" stroke="#000" stroke-width="2"/>
      <path id="Path_243" data-name="Path 243" d="M14.227,22.857,4.857,32.226" transform="translate(1.017 22.368)" fill="none" stroke="#828282" stroke-width="2"/>
      <path id="Path_244" data-name="Path 244" d="M14.227,14.227,4.857,4.857" transform="translate(1.017 1.017)" fill="none" stroke="#828282" stroke-width="2"/>
      <path id="Path_245" data-name="Path 245" d="M22.857,22.857l9.369,9.369" transform="translate(22.368 22.368)" fill="none" stroke="#828282" stroke-width="2"/>
      <path id="Path_246" data-name="Path 246" d="M22.857,14.227l9.369-9.369" transform="translate(22.368 1.017)" fill="none" stroke="#828282" stroke-width="2"/>
    </g>
    <g id="PageBuilding" transform="translate(391 2573.514)">
      <path id="Path_205" data-name="Path 205" d="M3,15.241A11.241,11.241,0,0,1,14.241,4H66.7A11.241,11.241,0,0,1,77.941,15.241V67.7A11.241,11.241,0,0,1,66.7,78.941H14.241A11.241,11.241,0,0,1,3,67.7Z" fill="none" stroke="#dbdbdb" stroke-width="2"/>
    </g>
  </g>
</svg>
