<?xml version="1.0" encoding="UTF-8"?>
<svg id="Layer_1" data-name="Layer 1" xmlns="http://www.w3.org/2000/svg" viewBox="0 0 288.81 63.45">
  <defs>
    <style>
      .cls-1, .cls-2 {
        fill: #fff;
      }

      .cls-2 {
        fill-rule: evenodd;
      }

      .cls-3 {
        isolation: isolate;
      }
    </style>
  </defs>
  <g id="Group_32" data-name="Group 32">
    <g id="Group_24" data-name="Group 24">
      <path id="Union_5" data-name="Union 5" class="cls-1" d="M11.36,61.56l-.65-.15c-.85-.18-1.68-.43-2.49-.74-.51-.21-.97-.54-1.33-.96-.29-.38-.42-.54-.56-.71l-4.83-5.55c-.94-.97-1.16-2.43-.55-3.64.12-.44.59-1.88,2.86-8.08.54-1.51.91-2.55,1.17-3.27-.95-1-1.77-2.1-2.46-3.29-.97-1.61-1.67-3.38-2.06-5.22-.68-3.38-.6-6.86.24-10.2.95-3.89,2.79-7.51,5.37-10.57,2.87-3.33,6.51-5.91,10.6-7.52,1.59-.61,3.25-1.05,4.93-1.33,2.68-.45,5.43-.44,8.11,0,3.5.59,6.84,1.88,9.82,3.8.39.25.77.52,1.14.79,1.79,1.18,3.42,2.59,4.84,4.19,1.74,2.01,5.73,6.66,5.73,6.66,5.47,6.1,8,14.29,6.93,22.41-2.69,19.12-18.46,23.29-20.25,23.71l-.3.08c-3.77,1-7.66,1.5-11.56,1.47-4.96-.04-9.9-.68-14.71-1.89ZM8.08,57.47c.17.2.33.4.49.61.15.21.37.37.61.47.66.25,1.34.45,2.03.59l.68.16c4.63,1.17,9.39,1.79,14.17,1.83,3.69.03,7.37-.44,10.94-1.39l.4-.1c1.62-.37,15.99-4.17,18.45-21.76.92-6.96-1.05-13.99-5.45-19.46.13.41.25.83.35,1.25.91,3.95,1.06,8.04.44,12.05-.5,3.09-1.51,6.07-2.98,8.83-1.03,1.94-2.28,3.75-3.74,5.4-.59.68-1.23,1.31-1.91,1.9-1.6,1.38-3.37,2.57-5.25,3.54-1.82.93-3.73,1.68-5.7,2.24-3.68,1-7.48,1.51-11.3,1.51h-.47c-2.58-.01-5.17-.18-7.73-.5-2.35-.28-4.68-.73-6.96-1.34-.42-.12-.81-.29-1.18-.52l4.09,4.69ZM13.84,44.47c1.92.26,3.86.39,5.8.39,3.76.09,7.5-.52,11.05-1.78,2.54-.97,4.8-2.56,6.59-4.61,1.29-1.61,2.29-3.43,2.94-5.39,1.42-4.12,2.75-12.04-4.29-18.75-1.04-.94-2.2-1.74-3.46-2.36l-.14-.07c-1.06,1.13-2.23,2.41-3.52,3.82.82.16,1.63.4,2.41.71,2.64,1.12,4.65,3.35,5.5,6.08.58,1.79.73,3.7.46,5.56-.34,2.21-1.12,4.34-2.3,6.24-.96,1.42-2.1,2.71-3.4,3.82-1.27,1.11-2.68,2.06-4.18,2.83-2.83,1.46-5.96,2.21-9.14,2.22-1.22,0-2.43-.1-3.63-.29-.23.54-.46,1.08-.67,1.59h0ZM23.97,27.11c-1.17,1.02-2.21,2.19-3.08,3.48-.5.71-.97,1.44-1.42,2.19,1.18-.16,2.32-.53,3.37-1.08.56-.28,1.07-.65,1.53-1.08,1-.81,1.82-1.83,2.37-2.99.27-.55.36-1.16.26-1.76-.05,0-.22-.02-.39-.02-.99.12-1.92.56-2.64,1.26ZM18.12,12.4c-2.63,1.47-4.78,3.68-6.17,6.35-.83,1.64-2.25,5.66-1.49,9,.1-.17.2-.34.3-.51.82-1.36,1.72-2.68,2.68-3.95,1.08-1.41,2.28-2.72,3.61-3.91,1.19-1.05,2.51-1.94,3.94-2.62,1.51-.73,3.15-1.15,4.82-1.26,1.61-1.77,3-3.27,4.2-4.56-1.39-.43-2.84-.66-4.3-.67-2.67.04-5.28.77-7.59,2.12Z"/>
      <path id="Path_62" data-name="Path 62" class="cls-2" d="M7.08,38.28c-.87.99-1.55,2.12-2,3.35-1.04,2.83-2.91,7.95-3.04,8.58-.44.8-.31,1.8.33,2.46l4.83,5.55c.21.24.4.5.6.75.25.27.56.49.9.62.73.28,1.49.51,2.26.67,2.42.54,14.36,3.87,26.36.59.12-.03.23-.06.35-.09,1.67-.39,16.78-4.35,19.35-22.73,1.03-7.8-1.4-15.65-6.66-21.5,0,0-3.98-4.65-5.72-6.66-1.89-2.09-4.11-3.85-6.59-5.19-.92-.5-25.04,26.84-30.97,33.59h0Z"/>
      <path id="Union_4" data-name="Union 4" d="M10.96,60.27c-.77-.16-1.53-.38-2.26-.67-.34-.13-.65-.34-.9-.62-.2-.25-.39-.51-.6-.75l-4.82-5.55c-.64-.66-.78-1.66-.34-2.46.07-.34.64-1.98,1.32-3.86v-.05l.1-.28s1.31-3.56,2.3-6.25h0l.58-1.57c-1.05-.97-1.96-2.08-2.7-3.31-.92-1.54-1.58-3.21-1.96-4.97-.65-3.23-.57-6.55.23-9.75.9-3.73,2.66-7.19,5.14-10.12,2.75-3.19,6.23-5.66,10.14-7.19,1.53-.58,3.11-1.01,4.72-1.27,1.29-.21,2.6-.32,3.91-.32h0c1.28,0,2.56.11,3.82.33,3.35.56,6.56,1.79,9.42,3.63.33.22.66.44.99.68,1.69,1.12,3.23,2.45,4.58,3.96,1.74,2.01,5.72,6.66,5.72,6.66,5.25,5.85,7.69,13.7,6.66,21.5-2.72,19.46-19.5,22.76-19.5,22.76-3.73,1.01-7.59,1.51-11.45,1.48-5.1-.06-10.17-.73-15.11-2.01Z"/>
      <g id="Group_21" data-name="Group 21">
        <path id="Union_2" data-name="Union 2" class="cls-1" d="M20.43,52.21c-2.36,0-4.71-.16-7.05-.45-2.13-.25-4.24-.66-6.31-1.21-.76-.2-2.26-.72-2.26-.72l-.84-.29.31-.84c2.18-5.94,3.54-9.63,4.05-11.01-1.17-.97-2.17-2.13-2.96-3.43-.83-1.38-1.42-2.88-1.76-4.46-.59-2.95-.51-6,.22-8.92.83-3.43,2.45-6.62,4.73-9.31,2.53-2.94,5.74-5.21,9.35-6.63,1.4-.53,2.85-.92,4.33-1.16,1.19-.19,2.39-.29,3.59-.29,1.18,0,2.35.1,3.51.3,5.67.92,10.77,3.97,14.28,8.52,1.23,1.59,2.28,3.32,3.1,5.15.5,1.08.9,2.2,1.19,3.35.81,3.51.94,7.14.38,10.7-.75,4.67-2.81,9.04-5.94,12.59-.51.59-1.06,1.14-1.65,1.65-1.42,1.22-2.97,2.26-4.63,3.12-1.62.83-3.31,1.49-5.06,1.99-2.33.63-4.72,1.05-7.12,1.24l.26.13h-3.72ZM12.99,44.62c2.37.42,4.77.63,7.18.63,3.66.08,7.31-.51,10.75-1.75,2.56-.98,4.85-2.58,6.65-4.65,1.31-1.62,2.32-3.47,2.98-5.45,1.42-4.13,2.75-12.07-4.32-18.81-1.06-.97-2.25-1.78-3.54-2.42-2.12-1.1-4.48-1.68-6.87-1.7-2.71.03-5.37.77-7.72,2.14-2.66,1.49-4.83,3.73-6.24,6.44-1.34,2.64-2.97,8.25-.36,11.88.47-.92.97-1.83,1.51-2.71.74-1.23,1.54-2.41,2.41-3.55.95-1.25,2.02-2.41,3.19-3.46,1.01-.9,2.14-1.65,3.37-2.24,1.43-.69,3-1.06,4.59-1.07,1.33,0,2.64.26,3.87.77,2.1.9,3.69,2.67,4.37,4.85.48,1.48.61,3.06.38,4.6-.29,1.89-.95,3.7-1.96,5.32-.82,1.21-1.79,2.3-2.9,3.25-1.11.97-2.33,1.79-3.64,2.47-2.46,1.27-5.2,1.93-7.97,1.92-1.38,0-2.76-.15-4.12-.44-.64,1.48-1.28,3.03-1.62,3.97ZM23.39,26.44c-1.18,1.03-2.23,2.21-3.11,3.5-.93,1.32-1.76,2.7-2.51,4.13.28.02.55.03.83.03,1.8,0,3.57-.42,5.17-1.24.62-.32,1.2-.72,1.71-1.2,1.05-.86,1.91-1.95,2.49-3.17.36-.74.48-1.58.35-2.4-.07-.47-.39-.85-.84-1-.26-.07-.53-.11-.81-.11h0c-1.23.1-2.39.61-3.28,1.47Z"/>
      </g>
    </g>
  </g>
  <g class="cls-3">
    <path class="cls-1" d="M140.61,44.57c-2.24,0-4.17-.39-5.78-1.17-1.61-.78-2.92-1.81-3.94-3.09-1.02-1.28-1.77-2.66-2.26-4.15s-.73-2.93-.73-4.33v-.75c0-1.54.25-3.07.75-4.57.5-1.51,1.26-2.87,2.29-4.1,1.03-1.22,2.33-2.2,3.91-2.94,1.58-.74,3.44-1.11,5.59-1.11s4.23.42,5.95,1.26c1.72.84,3.1,2,4.13,3.48,1.03,1.49,1.64,3.22,1.82,5.22h-5.61c-.16-1-.52-1.85-1.09-2.55-.57-.7-1.3-1.25-2.19-1.63-.9-.38-1.9-.58-3.01-.58s-2.1.19-2.96.58c-.86.39-1.58.93-2.16,1.63-.58.7-1.02,1.54-1.33,2.5-.31.96-.46,2.04-.46,3.21s.15,2.22.46,3.18c.31.96.76,1.8,1.36,2.52s1.34,1.26,2.23,1.63c.88.37,1.89.56,3.03.56,1.72,0,3.18-.42,4.37-1.26,1.19-.84,1.91-1.99,2.16-3.47h5.58c-.2,1.81-.81,3.47-1.82,4.98-1.01,1.51-2.38,2.71-4.11,3.6-1.73.9-3.79,1.34-6.17,1.34Z"/>
    <path class="cls-1" d="M156.11,43.93v-18.63h4.32v7.99h-.1c0-2.63.56-4.66,1.68-6.09,1.12-1.43,2.75-2.14,4.88-2.14h.71v4.69h-1.36c-1.5,0-2.65.4-3.47,1.21-.82.8-1.22,1.97-1.22,3.48v9.49h-5.44Z"/>
    <path class="cls-1" d="M178.86,44.57c-1.59,0-2.99-.27-4.2-.82-1.21-.54-2.22-1.28-3.03-2.19s-1.42-1.95-1.84-3.09c-.42-1.14-.63-2.32-.63-3.52v-.68c0-1.25.21-2.44.63-3.59.42-1.14,1.03-2.17,1.82-3.08.79-.91,1.79-1.63,2.97-2.16,1.19-.53,2.54-.8,4.06-.8,1.99,0,3.68.45,5.05,1.34,1.37.9,2.42,2.06,3.14,3.5s1.09,3.01,1.09,4.71v1.84h-16.49v-3.09h13.19l-1.77,1.43c0-1.11-.16-2.06-.48-2.86-.32-.79-.79-1.4-1.41-1.82-.62-.42-1.4-.63-2.33-.63s-1.76.22-2.41.65c-.66.43-1.16,1.06-1.5,1.89-.34.83-.51,1.84-.51,3.04,0,1.11.16,2.08.48,2.91.32.83.82,1.47,1.5,1.92.68.45,1.56.68,2.65.68,1,0,1.81-.19,2.45-.58.63-.39,1.07-.86,1.29-1.43h5c-.27,1.25-.8,2.36-1.6,3.33-.79.97-1.79,1.73-2.99,2.28s-2.58.82-4.15.82Z"/>
    <path class="cls-1" d="M196.84,44.4c-1.34,0-2.51-.24-3.52-.71-1.01-.48-1.8-1.16-2.36-2.06-.57-.9-.85-1.97-.85-3.21,0-1.36.35-2.48,1.05-3.35.7-.87,1.69-1.52,2.96-1.94,1.27-.42,2.73-.63,4.39-.63h3.98v3.03h-4.01c-.95,0-1.68.23-2.19.7-.51.46-.77,1.09-.77,1.89,0,.75.25,1.36.77,1.82.51.46,1.24.7,2.19.7.61,0,1.16-.11,1.65-.32.49-.21.89-.58,1.21-1.1s.5-1.25.54-2.18l1.29,1.36c-.11,1.29-.42,2.38-.94,3.26-.51.88-1.21,1.56-2.11,2.04-.9.48-1.99.71-3.28.71ZM202.79,43.93v-5.51h-.92v-5.98c0-.95-.23-1.67-.68-2.14-.45-.48-1.18-.71-2.18-.71-.5,0-1.16.01-1.97.03-.82.02-1.66.06-2.52.1-.86.05-1.64.09-2.35.14v-4.59c.52-.04,1.13-.09,1.84-.14.7-.04,1.43-.08,2.18-.1.75-.02,1.45-.03,2.11-.03,1.9,0,3.51.27,4.81.82,1.3.54,2.29,1.37,2.97,2.46.68,1.1,1.02,2.51,1.02,4.23v11.42h-4.32Z"/>
    <path class="cls-1" d="M209.49,29.27v-3.98h13.33v3.98h-13.33ZM220.2,44.17c-1.88,0-3.4-.23-4.56-.7s-2-1.25-2.53-2.35-.8-2.59-.8-4.47v-16.39h5.07v16.59c0,.88.23,1.56.7,2.02.46.46,1.13.7,1.99.7h2.75v4.59h-2.62Z"/>
    <path class="cls-1" d="M224.89,29.31v-4.01h7.92v4.01h-7.92ZM229.48,23.46c-1.02,0-1.77-.27-2.26-.8s-.73-1.21-.73-2.02.24-1.52.73-2.06,1.24-.8,2.26-.8,1.77.27,2.26.8c.49.53.73,1.22.73,2.06s-.24,1.49-.73,2.02c-.49.53-1.24.8-2.26.8ZM227.37,43.93v-18.63h5.44v18.63h-5.44Z"/>
    <path class="cls-1" d="M241.45,43.93l-5.58-18.63h5.61l5.24,18.63h-5.27ZM243.15,43.93v-4.52h5.47v4.52h-5.47ZM245.16,43.93l4.52-18.63h5.24l-4.83,18.63h-4.93Z"/>
    <path class="cls-1" d="M266.24,44.57c-1.59,0-2.99-.27-4.2-.82s-2.22-1.28-3.03-2.19c-.8-.92-1.42-1.95-1.84-3.09-.42-1.14-.63-2.32-.63-3.52v-.68c0-1.25.21-2.44.63-3.59.42-1.14,1.03-2.17,1.82-3.08.79-.91,1.79-1.63,2.98-2.16,1.19-.53,2.54-.8,4.06-.8,1.99,0,3.68.45,5.05,1.34s2.42,2.06,3.15,3.5c.72,1.44,1.09,3.01,1.09,4.71v1.84h-16.49v-3.09h13.19l-1.77,1.43c0-1.11-.16-2.06-.48-2.86-.32-.79-.79-1.4-1.41-1.82-.62-.42-1.4-.63-2.33-.63s-1.76.22-2.41.65-1.16,1.06-1.5,1.89c-.34.83-.51,1.84-.51,3.04,0,1.11.16,2.08.48,2.91.32.83.82,1.47,1.5,1.92.68.45,1.56.68,2.65.68,1,0,1.81-.19,2.45-.58.63-.39,1.07-.86,1.29-1.43h5c-.27,1.25-.8,2.36-1.6,3.33-.79.97-1.79,1.73-2.99,2.28-1.2.54-2.58.82-4.15.82Z"/>
  </g>
  <g class="cls-3">
    <path class="cls-1" d="M78.8,45.83c-2.22,0-4.15-.38-5.78-1.15-1.63-.77-2.97-1.8-4.02-3.09-1.05-1.29-1.82-2.74-2.33-4.34-.51-1.6-.76-3.25-.76-4.95v-.69c0-1.67.25-3.3.76-4.9.51-1.6,1.28-3.04,2.33-4.31,1.04-1.27,2.36-2.29,3.94-3.06,1.58-.77,3.44-1.15,5.56-1.15,2.71,0,4.97.6,6.79,1.81,1.81,1.21,3.18,2.75,4.09,4.63.91,1.88,1.37,3.9,1.37,6.05v1.91h-23.18v-2.84h20.63l-.93,1.42c0-1.93-.33-3.62-1-5.07-.67-1.45-1.65-2.6-2.94-3.43-1.29-.83-2.9-1.25-4.83-1.25-2.03,0-3.71.47-5.05,1.42-1.34.95-2.34,2.21-3.01,3.77-.67,1.57-1,3.35-1,5.34s.33,3.75,1,5.37c.67,1.62,1.7,2.9,3.09,3.85,1.39.95,3.14,1.42,5.27,1.42,2.25,0,4.08-.51,5.49-1.54s2.27-2.25,2.6-3.65h3.43c-.33,1.73-1.01,3.23-2.06,4.48-1.05,1.26-2.37,2.23-3.97,2.92-1.6.69-3.43,1.03-5.49,1.03Z"/>
    <path class="cls-1" d="M109.43,45.83c-2.22,0-4.17-.38-5.86-1.15-1.68-.77-3.1-1.8-4.26-3.09-1.16-1.29-2.04-2.74-2.65-4.34-.61-1.6-.91-3.23-.91-4.9v-.69c0-1.67.31-3.31.93-4.92.62-1.62,1.52-3.06,2.69-4.34,1.18-1.27,2.61-2.29,4.29-3.06,1.68-.77,3.6-1.15,5.76-1.15s4.12.38,5.81,1.15,3.11,1.79,4.29,3.06c1.18,1.27,2.07,2.72,2.67,4.34.6,1.62.91,3.26.91,4.92v.69c0,1.67-.29,3.3-.88,4.9-.59,1.6-1.46,3.05-2.62,4.34-1.16,1.29-2.59,2.32-4.29,3.09-1.7.77-3.66,1.15-5.88,1.15ZM109.43,42.55c2.16,0,3.98-.48,5.46-1.45,1.49-.96,2.62-2.24,3.41-3.82.78-1.58,1.18-3.34,1.18-5.27s-.4-3.73-1.2-5.32c-.8-1.58-1.95-2.84-3.45-3.77-1.5-.93-3.3-1.4-5.39-1.4s-3.84.46-5.34,1.4c-1.5.93-2.65,2.19-3.45,3.77-.8,1.58-1.2,3.36-1.2,5.32s.39,3.68,1.18,5.27c.78,1.58,1.92,2.86,3.41,3.82,1.49.96,3.29,1.45,5.42,1.45Z"/>
  </g>
  <g class="cls-3">
    <path class="cls-1" d="M283.16,29.11c-.93,0-1.74-.16-2.45-.49-.71-.32-1.3-.75-1.78-1.29-.48-.54-.83-1.13-1.07-1.77-.24-.65-.36-1.3-.36-1.94v-.32c0-.67.12-1.33.37-1.97.24-.64.61-1.23,1.09-1.75.48-.53,1.07-.95,1.77-1.26s1.51-.47,2.42-.47,1.72.16,2.42.47c.7.31,1.29.73,1.77,1.26.48.53.85,1.11,1.09,1.75s.37,1.3.37,1.97v.32c0,.65-.12,1.3-.36,1.94-.24.65-.59,1.24-1.07,1.77-.48.54-1.07.97-1.78,1.29-.71.32-1.52.49-2.45.49ZM283.16,28.07c.91,0,1.71-.21,2.39-.62.68-.42,1.21-.97,1.59-1.67s.56-1.46.56-2.31-.19-1.66-.56-2.35-.91-1.24-1.59-1.65-1.48-.6-2.39-.6-1.71.2-2.39.6-1.21.95-1.59,1.65-.56,1.48-.56,2.35.19,1.62.56,2.31.91,1.25,1.59,1.67c.68.42,1.48.62,2.39.62ZM280.76,26.47v-6.25h1.65v6.25h-1.65ZM281.53,24.66v-1.37h1.73c.34,0,.59-.07.74-.22.15-.15.23-.35.23-.61,0-.28-.08-.49-.23-.63-.15-.15-.4-.22-.74-.22h-1.73v-1.39h1.65c.87,0,1.54.19,2,.57.46.38.69.93.69,1.66s-.23,1.28-.69,1.66c-.46.38-1.13.57-2,.57h-1.65ZM284.39,26.47l-1.47-2.42h1.73l1.55,2.42h-1.8Z"/>
  </g>
</svg>