<?xml version="1.0" encoding="UTF-8"?>
<svg id="Layer_1" data-name="Layer 1" xmlns="http://www.w3.org/2000/svg" viewBox="0 0 1265.96 300.04">
  <defs>
    <style>
      .cls-1 {
        fill: #fff;
      }

      .cls-2 {
        fill: none;
        stroke: #fff;
        stroke-miterlimit: 10;
        stroke-width: 2px;
      }
    </style>
  </defs>
  <path id="Union_4" data-name="Union 4" class="cls-2" d="M16.84,220.85c1.69-4.9,4.03-11.67,5.72-16.57,0,0,4.98-13.55,8.76-23.83l1.08-2.93c.67-1.81.2-3.83-1.15-5.22-3.07-3.15-5.77-6.64-8.06-10.4-3.51-5.86-6.03-12.26-7.45-18.94-2.47-12.29-2.17-24.98.89-37.14,3.45-14.2,10.15-27.4,19.59-38.56,10.47-12.15,23.74-21.56,38.67-27.43,5.81-2.22,11.84-3.84,17.98-4.85,4.93-.8,9.92-1.21,14.91-1.21h.02c4.88-.02,9.75.4,14.56,1.24,12.78,2.12,24.99,6.83,35.89,13.84,1.28.83,2.53,1.7,3.76,2.59,6.44,4.27,12.31,9.35,17.45,15.11,6.64,7.64,21.82,25.37,21.82,25.37,20.02,22.29,29.29,52.23,25.37,81.93-10.13,72.34-71.23,86.1-74.21,86.73l-.25.06c-14.18,3.83-28.81,5.72-43.5,5.62-19.43-.23-38.77-2.81-57.58-7.69-2.94-.61-5.82-1.46-8.62-2.53-1.31-.51-2.48-1.31-3.42-2.35-.76-.97-1.48-1.94-2.28-2.87l-18.39-21.16c-2.28-2.36-2.88-5.85-1.56-8.8"/>
  <path id="Union_2" data-name="Union 2" class="cls-1" d="M87.17,227.88c-10.67-.04-19.77-.82-26.88-1.72-6.24-.79-13.98-2-24.04-4.63-2.89-.76-8.62-2.73-8.62-2.73-1.76-.61-2.68-2.55-2.03-4.3h0c5.98-16.3,10.33-28.15,13.03-35.49,1.38-3.75.51-7.95-2.24-10.85-2.52-2.66-4.75-5.59-6.66-8.73-3.15-5.25-5.42-10.98-6.7-16.96-2.25-11.25-1.96-22.86.84-33.98,3.17-13.07,9.34-25.22,18.02-35.49,9.65-11.2,21.88-19.87,35.64-25.26,5.33-2.03,10.85-3.52,16.48-4.45,4.53-.73,9.11-1.11,13.7-1.11s8.96.38,13.39,1.14c21.61,3.52,41.06,15.13,54.42,32.48,4.7,6.05,8.68,12.64,11.83,19.62,1.91,4.1,3.43,8.37,4.54,12.76,3.08,13.38,3.58,27.22,1.46,40.78-2.88,17.81-10.72,34.44-22.63,47.99-1.94,2.24-4.05,4.33-6.29,6.27-1.5,1.3-7.64,6.7-17.63,11.89-2.55,1.33-9.23,4.65-19.3,7.58-8.69,2.53-22.45,5.5-40.33,5.17v.02ZM61.21,192.91c-1.27,3.11.74,6.59,4.06,7.03,6.94.93,13.93,1.4,20.93,1.4,13.96.31,27.86-1.95,41-6.66,9.77-3.74,18.48-9.83,25.34-17.74,5-6.18,8.85-13.21,11.36-20.76,5.42-15.74,10.5-45.99-16.47-71.69-4.05-3.68-8.59-6.78-13.49-9.21-8.09-4.19-17.06-6.4-26.17-6.46-10.35.13-20.48,2.94-29.42,8.15-10.15,5.68-18.42,14.21-23.78,24.53-4.51,8.89-9.86,26.55-4.25,40.09.97,2.35,4.24,2.54,5.47.31,1.01-1.83,2.06-3.65,3.15-5.44,2.81-4.68,5.88-9.19,9.2-13.52,3.62-4.78,7.7-9.19,12.17-13.19,3.85-3.43,8.17-6.3,12.83-8.52,5.46-2.63,11.43-4.02,17.48-4.08,5.07.01,10.08,1.01,14.77,2.94,7.99,3.43,14.07,10.18,16.66,18.47,1.83,5.65,2.33,11.65,1.45,17.53-1.1,7.19-3.64,14.09-7.47,20.28-3.12,4.61-6.84,8.78-11.07,12.4-4.23,3.68-8.88,6.84-13.87,9.39-9.39,4.83-19.8,7.34-30.36,7.32-3.6,0-7.2-.27-10.76-.79-2.96-.43-5.84,1.2-6.99,3.96-.61,1.47-1.21,2.9-1.76,4.25h0ZM98.46,129.65c-4.5,3.93-8.49,8.42-11.85,13.36-2.93,4.18-5.63,8.52-8.1,13-.71,1.28.21,2.85,1.67,2.85h0c6.86.03,13.62-1.59,19.72-4.74,2.38-1.21,4.57-2.76,6.52-4.59h0c4.02-3.29,7.26-7.42,9.5-12.09,1.39-2.84,1.85-6.05,1.33-9.17-.26-1.77-1.49-3.25-3.19-3.81-1-.28-2.03-.42-3.07-.42h0c-4.7.37-9.12,2.35-12.52,5.62h-.01,0Z"/>
  <path class="cls-1" d="M418.78,215.7c-8.58,0-16.11-1.48-22.6-4.45-6.5-2.96-11.98-6.93-16.46-11.92-4.48-4.98-7.88-10.56-10.21-16.74-2.33-6.18-3.5-12.48-3.5-18.92v-2.65c0-6.43,1.2-12.77,3.59-19.01,2.39-6.24,5.86-11.82,10.4-16.74,4.54-4.92,10.06-8.86,16.55-11.82s13.9-4.45,22.23-4.45,15.92,1.48,22.41,4.45c6.49,2.96,12.01,6.9,16.55,11.82,4.54,4.92,7.97,10.5,10.31,16.74,2.33,6.24,3.5,12.58,3.5,19.01v2.65c0,6.43-1.13,12.74-3.4,18.92s-5.65,11.76-10.12,16.74c-4.48,4.98-10,8.96-16.55,11.92-6.56,2.96-14.12,4.45-22.7,4.45ZM418.78,203.03c8.32,0,15.35-1.86,21.09-5.58s10.12-8.64,13.15-14.75,4.54-12.89,4.54-20.33-1.55-14.41-4.63-20.52c-3.09-6.12-7.54-10.97-13.34-14.56s-12.74-5.39-20.81-5.39-14.82,1.8-20.62,5.39-10.25,8.45-13.34,14.56c-3.09,6.12-4.63,12.96-4.63,20.52s1.51,14.22,4.54,20.33c3.03,6.12,7.41,11.04,13.15,14.75,5.74,3.72,12.7,5.58,20.9,5.58Z"/>
  <path class="cls-1" d="M362.31,183.17h-5.79c-.9,0-1.68.58-1.95,1.44-1.49,4.82-4.7,9.04-9.64,12.65-5.42,3.97-12.48,5.96-21.19,5.96-8.2,0-14.98-1.83-20.33-5.49-5.36-3.66-9.33-8.61-11.92-14.85-2.3-5.56-3.58-11.64-3.83-18.25h70.93c0-.32-.01-.63-.01-.95v-2.65c0-6.43,1.2-12.77,3.59-19.01.89-2.31,1.92-4.54,3.11-6.67-.22-.49-.45-.98-.68-1.46-3.53-7.25-8.8-13.21-15.79-17.88-7-4.66-15.73-7-26.2-7-8.2,0-15.35,1.48-21.47,4.45-6.12,2.96-11.19,6.9-15.23,11.82s-7.03,10.47-8.98,16.65c-1.96,6.18-2.93,12.48-2.93,18.92v2.65c0,6.56.98,12.93,2.93,19.1,1.95,6.18,4.95,11.76,8.98,16.74,4.03,4.98,9.2,8.96,15.51,11.92,6.3,2.96,13.74,4.45,22.32,4.45,7.94,0,15.01-1.32,21.19-3.97s11.28-6.4,15.32-11.25c2.41-2.9,4.33-6.14,5.75-9.7-1.43-2.43-2.67-4.96-3.7-7.61h.01ZM291.49,141.55c2.58-6.05,6.46-10.91,11.63-14.56,5.17-3.66,11.66-5.49,19.48-5.49s13.65,1.61,18.63,4.82c4.98,3.22,8.76,7.63,11.35,13.24,1.93,4.19,3.14,8.89,3.63,14.09h-68.02c.61-4.34,1.71-8.38,3.3-12.11h0Z"/>
  <path class="cls-1" d="M602.39,213.47v-95.21c0-1.22.99-2.21,2.21-2.21h18.67c1.22,0,2.21.99,2.21,2.21v40.24c0,.15-.12.27-.27.27h0c-.15,0-.27-.12-.27-.27.04-13.93,3.04-24.68,9-32.27,6-7.64,14.7-11.45,26.09-11.45h1.61c1.22,0,2.21.99,2.21,2.21v20.67c0,1.22-.99,2.21-2.21,2.21h-5.06c-8,0-14.18,2.15-18.55,6.45-4.36,4.3-6.55,10.52-6.55,18.64v48.52c0,1.22-.99,2.21-2.21,2.21h-24.67c-1.22,0-2.21-.99-2.21-2.21h0Z"/>
  <path class="cls-1" d="M821.01,215.68c-7.15,0-13.43-1.27-18.82-3.82s-9.61-6.21-12.64-11-4.55-10.51-4.55-17.18c0-7.27,1.88-13.24,5.64-17.91,3.76-4.66,9.03-8.12,15.82-10.36s14.61-3.36,23.45-3.36h19.33c1.07,0,1.94.87,1.94,1.94v12.3c0,1.07-.87,1.94-1.94,1.94h-19.51c-5.09,0-9,1.24-11.73,3.73-2.73,2.49-4.09,5.85-4.09,10.09,0,4,1.36,7.24,4.09,9.73,2.73,2.49,6.64,3.73,11.73,3.73,3.27,0,6.21-.57,8.82-1.73,2.6-1.15,4.76-3.12,6.46-5.91,1.7-2.79,2.66-6.66,2.91-11.64l6.3,6.63c.39.41.58.98.52,1.55-.67,6.51-2.31,12.03-4.91,16.55-2.73,4.73-6.49,8.36-11.27,10.91-4.79,2.55-10.64,3.82-17.55,3.82h0ZM852.83,211.2v-25.57c0-1.07-.87-1.94-1.94-1.94h-1.03c-1.07,0-1.94-.87-1.94-1.94v-30.06c0-5.09-1.21-8.91-3.64-11.45-2.43-2.55-6.3-3.82-11.64-3.82-2.67,0-6.18.06-10.55.18-4.36.12-8.85.3-13.45.55-3.78.2-7.28.4-10.49.6-1.12.07-2.06-.82-2.06-1.94v-20.69c0-1.01.78-1.85,1.78-1.94,2.37-.19,5.05-.38,8.04-.58,3.76-.24,7.64-.42,11.64-.55,4-.12,7.76-.18,11.27-.18,10.18,0,18.76,1.45,25.73,4.36s12.27,7.3,15.91,13.18c3.64,5.88,5.45,13.43,5.45,22.64v59.15c0,1.07-.87,1.94-1.94,1.94h-19.21c-1.07,0-1.94-.87-1.94-1.94h.01Z"/>
  <path class="cls-1" d="M967.44,135.57v-17.56c0-1.07.87-1.95,1.95-1.95h38.47c1.07,0,1.95.87,1.95,1.95v17.56c0,1.07-.87,1.95-1.95,1.95h-38.47c-1.07,0-1.95-.87-1.95-1.95h0ZM980.71,213.74v-95.75c0-1.07.87-1.95,1.95-1.95h25.2c1.07,0,1.95.87,1.95,1.95v95.75c0,1.07-.87,1.95-1.95,1.95h-25.2c-1.07,0-1.95-.87-1.95-1.95Z"/>
  <path class="cls-1" d="M1048.9,214.3l-28.66-95.75c-.37-1.25.56-2.5,1.86-2.5h25.92c.87,0,1.63.58,1.87,1.42l26.91,95.75c.35,1.24-.58,2.47-1.87,2.47h-24.17c-.86,0-1.61-.56-1.86-1.38h0ZM1058.4,213.74v-20.3c0-1.07.87-1.94,1.94-1.94h25.39c1.07,0,1.94.87,1.94,1.94v20.3c0,1.07-.87,1.94-1.94,1.94h-25.39c-1.07,0-1.94-.87-1.94-1.94ZM1069.71,213.28l23.24-95.75c.21-.87.99-1.48,1.89-1.48h23.96c1.27,0,2.2,1.2,1.88,2.43l-24.81,95.75c-.22.86-.99,1.45-1.88,1.45h-22.39c-1.26,0-2.18-1.18-1.89-2.4h0Z"/>
  <path class="cls-1" d="M1199.65,182.71c-.73-.16-1.65.24-2.06.87-1.32,2.07-3.24,3.86-5.76,5.39-3.39,2.06-7.76,3.09-13.09,3.09-5.82,0-10.55-1.21-14.18-3.64-3.64-2.42-6.3-5.85-8-10.27-.95-2.46-1.63-5.16-2.04-8.09h70.88c1.05,0,1.9-.85,1.9-1.9v-7.92c0-9.09-1.94-17.48-5.82-25.18s-9.49-13.94-16.82-18.73c-7.34-4.79-16.34-7.18-27-7.18-8.12,0-15.36,1.43-21.73,4.27-6.36,2.85-11.67,6.7-15.91,11.55s-7.49,10.34-9.73,16.45c-2.24,6.12-3.36,12.52-3.36,19.18v3.64c0,6.43,1.12,12.7,3.36,18.82s5.51,11.64,9.82,16.55c4.3,4.91,9.7,8.82,16.18,11.73,6.48,2.91,13.97,4.36,22.45,4.36s15.76-1.45,22.18-4.36,11.76-6.97,16-12.18c2.29-2.81,4.18-5.84,5.65-9.08.51-1.12-.16-2.43-1.36-2.69l-21.57-4.68h0ZM1156.74,146.34c1.82-4.42,4.48-7.79,8-10.09,3.51-2.3,7.82-3.45,12.91-3.45s9.12,1.12,12.45,3.36,5.85,5.49,7.55,9.73c.92,2.3,1.58,4.85,2,7.64h-44.92c.45-2.63,1.12-5.03,2.01-7.18h0Z"/>
  <path class="cls-1" d="M746.97,182.71c-.8-.17-1.62.18-2.06.87-1.32,2.07-3.24,3.86-5.76,5.39-3.39,2.06-7.76,3.09-13.09,3.09-5.82,0-10.55-1.21-14.18-3.64-3.64-2.42-6.3-5.85-8-10.27-.95-2.46-1.63-5.16-2.04-8.09h70.88c1.05,0,1.9-.85,1.9-1.9v-7.92c0-9.09-1.94-17.48-5.82-25.18s-9.49-13.94-16.82-18.73c-7.34-4.79-16.34-7.18-27-7.18-8.12,0-15.36,1.43-21.73,4.27-6.36,2.85-11.67,6.7-15.91,11.55s-7.49,10.34-9.73,16.45c-2.24,6.12-3.36,12.52-3.36,19.18v3.64c0,6.43,1.12,12.7,3.36,18.82s5.51,11.64,9.82,16.55c4.3,4.91,9.7,8.82,16.18,11.73s13.97,4.36,22.45,4.36,15.76-1.45,22.18-4.36,11.76-6.97,16-12.18c2.29-2.81,4.18-5.84,5.65-9.08.51-1.12-.16-2.43-1.36-2.69l-21.57-4.68h0ZM704.07,146.34c1.82-4.42,4.48-7.79,8-10.09,3.51-2.3,7.82-3.45,12.91-3.45s9.12,1.12,12.45,3.36,5.85,5.49,7.55,9.73c.92,2.3,1.58,4.85,2,7.64h-44.92c.45-2.63,1.12-5.03,2.01-7.18h0Z"/>
  <path class="cls-1" d="M564.94,176.25c-.98-.21-2.01.4-2.27,1.36-2.28,8.32-9.57,13.38-18.83,13.17-9.93.06-16.51-4.49-19.64-13.55-2.96-8.38-2.91-21.49.18-29.55,3.23-8.6,9.78-13.72,19.27-13.64,10.09-.24,16.79,5.54,18.48,14.41.17.92.97,1.59,1.91,1.59h24.78c1.15,0,2.05-.99,1.93-2.13-3.45-33.55-40.09-46.38-69.01-34.59-18.91,7.94-28.92,27.78-28.82,47.64-1.31,30.95,18.44,55.17,50.91,54.73,21.42.47,41.15-11.93,46.45-31.87.28-1.07-.38-2.16-1.47-2.39l-23.88-5.18h.01Z"/>
  <path class="cls-1" d="M955.14,137.28c1.07,0,1.94-.87,1.94-1.94v-17.39c0-1.07-.87-1.94-1.94-1.94h-19.92v-24.97c0-1.07-.87-1.94-1.94-1.94h-23.2c-1.07,0-1.94.87-1.94,1.94v14.03c0,.63-.03,1.26-.12,1.88-1.18,8.62-8.79,9.04-9.9,9.06h-9.89c-1.07,0-1.94.87-1.94,1.94v17.39c0,1.07.87,1.94,1.94,1.94h19.91v38.24c0,10.06,1.42,18.03,4.27,23.91,2.85,5.88,7.36,10.06,13.55,12.55,6.18,2.48,14.3,3.73,24.36,3.73h4.82c1.07,0,1.94-.87,1.94-1.94v-20.66c0-1.07-.87-1.94-1.94-1.94h-5.55c-4.61,0-8.15-1.24-10.64-3.73-2.49-2.48-3.73-6.09-3.73-10.82v-39.33h19.92Z"/>
  <path class="cls-1" d="M991.64,106.58c-5.44,0-9.46-1.42-12.05-4.26-2.6-2.84-3.9-6.43-3.9-10.78s1.3-8.12,3.9-10.96c2.6-2.84,6.61-4.26,12.05-4.26s9.45,1.42,12.05,4.26c2.6,2.84,3.9,6.5,3.9,10.96s-1.3,7.95-3.9,10.78c-2.6,2.84-6.61,4.26-12.05,4.26Z"/>
  <path class="cls-1" d="M1220.9,111.54v-2.32h12.09v2.32h-12.09ZM1225.63,125.19v-14.08h2.62v14.08h-2.62Z"/>
  <path class="cls-1" d="M1235.67,125.19v-15.96h3.54l4.38,10.09h.37l4.33-10.09h3.59v15.96h-2.6v-13.63l.26.04-4.41,10.3h-2.89l-4.46-10.3.3-.04v13.63h-2.41,0Z"/>
</svg>